<svg width="32" height="32" viewBox="0 0 32 32" fill="none" xmlns="http://www.w3.org/2000/svg">
<circle cx="16" cy="16" r="16" fill="white"/>
<path d="M22.7385 10C21.2791 10 19.6811 10.7631 17.9956 12.2682C17.2003 12.9752 16.4998 13.7452 15.989 14.3543C15.989 14.3543 16.8062 15.2573 17.7037 16.2304C18.1926 15.6424 18.8858 14.8443 19.6957 14.1233C21.1916 12.7792 22.1693 12.5062 22.7312 12.5062C24.8326 12.5062 26.5401 14.2003 26.5401 16.2934C26.5401 18.3656 24.8326 20.0597 22.7312 20.0807C22.629 20.0807 22.5123 20.0667 22.3663 20.0387C22.9793 20.3117 23.6433 20.5077 24.2635 20.5077C28.1161 20.5077 28.875 17.9525 28.9188 17.7705C29.0282 17.3015 29.0939 16.8115 29.0939 16.3074C29.0866 12.8282 26.2409 10 22.7385 10Z" fill="url(#paint0_linear_5167_44942)"/>
<path d="M9.27602 22.5868C10.7354 22.5868 12.3333 21.8238 14.0189 20.3187C14.8142 19.6116 15.5147 18.8416 16.0255 18.2325C16.0255 18.2325 15.2083 17.3295 14.3108 16.3564C13.8219 16.9444 13.1287 17.7425 12.3187 18.4635C10.8229 19.7936 9.83787 20.0806 9.28332 20.0806C7.18186 20.0806 5.47443 18.3865 5.47443 16.2934C5.47443 14.2213 7.18186 12.5271 9.28332 12.5061C9.38547 12.5061 9.50222 12.5201 9.64815 12.5481C9.03523 12.2751 8.37123 12.0791 7.751 12.0791C3.89834 12.0721 3.13948 14.6273 3.0957 14.8163C2.98625 15.2853 2.92058 15.7754 2.92058 16.2794C2.92058 19.7586 5.7663 22.5868 9.27602 22.5868Z" fill="url(#paint1_linear_5167_44942)"/>
<path fill-rule="evenodd" clip-rule="evenodd" d="M12.2093 14.1793C11.7861 13.7873 9.72841 12.1841 7.7583 12.1281C4.24128 12.0441 3.21245 14.4943 3.11759 14.8093C3.79618 12.0651 6.30625 10.014 9.28331 10C11.7131 10 14.1721 12.2892 15.989 14.3543L15.9963 14.3473C15.9963 14.3473 16.8135 15.2503 17.711 16.2234C17.711 16.2234 18.7326 17.3785 19.8125 18.3936C20.2357 18.7856 22.2861 20.3677 24.2562 20.4237C27.8681 20.5217 28.8677 17.9315 28.9188 17.7355C28.2548 20.5007 25.7374 22.5588 22.7458 22.5728C20.316 22.5728 17.857 20.2837 16.0328 18.2185C16.0328 18.2255 16.0255 18.2255 16.0255 18.2325C16.0255 18.2325 15.2082 17.3295 14.3108 16.3564C14.318 16.3564 13.2965 15.1943 12.2093 14.1793Z" fill="#29ABE2"/>
<defs>
<linearGradient id="paint0_linear_5167_44942" x1="19.3225" y1="10.9973" x2="27.9424" y2="20.0559" gradientUnits="userSpaceOnUse">
<stop offset="0.21" stop-color="#F15A24"/>
<stop offset="0.6841" stop-color="#FBB03B"/>
</linearGradient>
<linearGradient id="paint1_linear_5167_44942" x1="12.6942" y1="21.5909" x2="4.07435" y2="12.5323" gradientUnits="userSpaceOnUse">
<stop offset="0.21" stop-color="#ED1E79"/>
<stop offset="0.8929" stop-color="#522785"/>
</linearGradient>
</defs>
</svg>
