<svg width="32" height="32" viewBox="0 0 32 32" fill="none" xmlns="http://www.w3.org/2000/svg">
<circle cx="16" cy="16" r="16" fill="url(#paint0_linear_5167_44943)"/>
<g clip-path="url(#clip0_5167_44943)">
<path d="M9.8096 19.3519C9.91905 19.2441 10.0695 19.1813 10.2291 19.1813H24.7036C24.9681 19.1813 25.1003 19.4957 24.9134 19.6798L22.054 22.496C21.9446 22.6038 21.7941 22.6667 21.6345 22.6667H7.16006C6.89556 22.6667 6.76331 22.3523 6.95028 22.1681L9.8096 19.3519Z" fill="white"/>
<path d="M9.80947 8.83733C9.92348 8.72954 10.074 8.66666 10.229 8.66666H24.7034C24.9679 8.66666 25.1002 8.98106 24.9132 9.16521L22.0539 11.9814C21.9445 12.0892 21.794 12.1521 21.6344 12.1521H7.15993C6.89543 12.1521 6.76318 11.8377 6.95015 11.6535L9.80947 8.83733Z" fill="white"/>
<path d="M22.054 14.061C21.9446 13.9532 21.7941 13.8903 21.6345 13.8903H7.16006C6.89556 13.8903 6.76331 14.2047 6.95028 14.3888L9.8096 17.205C9.91905 17.3128 10.0695 17.3757 10.2291 17.3757H24.7036C24.9681 17.3757 25.1003 17.0613 24.9134 16.8771L22.054 14.061Z" fill="white"/>
</g>
<defs>
<linearGradient id="paint0_linear_5167_44943" x1="3.5" y1="25.5" x2="28" y2="6" gradientUnits="userSpaceOnUse">
<stop stop-color="#D923FE"/>
<stop offset="1" stop-color="#0BF5A8"/>
</linearGradient>
<clipPath id="clip0_5167_44943">
<rect width="18.1364" height="14" fill="white" transform="translate(6.86364 8.66666)"/>
</clipPath>
</defs>
</svg>
