<svg preserveAspectRatio="none" width="30" height="16" viewBox="0 0 30 16" fill="none" xmlns="http://www.w3.org/2000/svg">
<path fill-rule="evenodd" clip-rule="evenodd" d="M30 0H0V4H2V8H4V10H6V12H8V14H12V16H30V14V12V10V8V4V0Z" fill="#64AD3B"/>
<path d="M4 0H2V4H4V0Z" fill="#368D00"/>
<path d="M12 10V8H8V6H6V4H4V8H6V10H8V12H12V14H30V10H12Z" fill="#368D00"/>
<path d="M30 14H12V16H30V14Z" fill="black"/>
<path d="M12 12H8V14H12V12Z" fill="black"/>
<path d="M8 10H6V12H8V10Z" fill="black"/>
<path d="M6 8H4V10H6V8Z" fill="black"/>
<path d="M4 4H2V8H4V4Z" fill="black"/>
<path d="M2 0H0V4H2V0Z" fill="black"/>
</svg>
