<svg preserveAspectRatio="none" width="48" height="26" viewBox="0 0 48 26" fill="none" xmlns="http://www.w3.org/2000/svg">
<path d="M48 26V20H46V16H44V12H42V10H40V8H38V6H36V4H32V2H28V0H0V26H48Z" fill="#FFA400"/>
<path d="M40 12V10H38V8H36V6H32V4H28V2H0V6H28V8H32V10H36V12H38V14H40V16H42V12H40Z" fill="#FFE077"/>
<path d="M46 20H44V24H46V20Z" fill="#FFE077"/>
<path d="M44 16H42V20H44V16Z" fill="#FFE077"/>
<path d="M0 2H28V0H0V2Z" fill="black"/>
<path d="M28 4H32V2H28V4Z" fill="black"/>
<path d="M32 6H36V4H32V6Z" fill="black"/>
<path d="M36 8H38V6H36V8Z" fill="black"/>
<path d="M38 10H40V8H38V10Z" fill="black"/>
<path d="M40 12H42V10H40V12Z" fill="black"/>
<path d="M42 16H44V12H42V16Z" fill="black"/>
<path d="M44 20H46V16H44V20Z" fill="black"/>
<path d="M46 26H48V20H46V26Z" fill="black"/>
</svg>
