<svg xmlns="http://www.w3.org/2000/svg" viewBox="0 0 1440 320" preserveAspectRatio="none">
  <!-- Base color for buildings -->
  <defs>
    <linearGradient id="buildingGradient" x1="0" x2="0" y1="0" y2="1">
      <stop offset="0%" style="stop-color:#1a237e;stop-opacity:0.7"/>
      <stop offset="100%" style="stop-color:#0d1117;stop-opacity:0.9"/>
    </linearGradient>
  </defs>
  
  <!-- Background buildings -->
  <path fill="url(#buildingGradient)" d="
    M0,320
    L0,200
    L60,220
    L120,180
    L180,240
    L240,160
    L300,200
    L360,140
    L420,180
    L480,120
    L540,160
    L600,100
    L660,140
    L720,80
    L780,120
    L840,60
    L900,100
    L960,140
    L1020,80
    L1080,120
    L1140,160
    L1200,100
    L1260,140
    L1320,180
    L1380,140
    L1440,160
    L1440,320
    Z"
  />
  
  <!-- Foreground buildings -->
  <path fill="url(#buildingGradient)" opacity="0.8" d="
    M0,320
    L0,240
    L40,260
    L80,220
    L120,280
    L160,200
    L200,240
    L240,180
    L280,220
    L320,160
    L360,200
    L400,140
    L440,180
    L480,220
    L520,160
    L560,200
    L600,140
    L640,180
    L680,220
    L720,160
    L760,200
    L800,140
    L840,180
    L880,220
    L920,160
    L960,200
    L1000,140
    L1040,180
    L1080,220
    L1120,160
    L1160,200
    L1200,140
    L1240,180
    L1280,220
    L1320,160
    L1360,200
    L1400,140
    L1440,180
    L1440,320
    Z"
  />
  
  <!-- Windows -->
  <g fill="#ffffff" opacity="0.15">
    {#each Array(50) as _, i}
      <rect 
        x={Math.random() * 1440} 
        y={Math.random() * 200 + 100}
        width="4"
        height="6"
      />
    {/each}
  </g>
</svg> 