<svg width="32" height="33" viewBox="0 0 32 33" fill="none" xmlns="http://www.w3.org/2000/svg">
<g clip-path="url(#clip0_4701_38129)">
<path d="M16 32.9007C24.8366 32.9007 32 25.7372 32 16.9007C32 8.06409 24.8366 0.90065 16 0.90065C7.16344 0.90065 0 8.06409 0 16.9007C0 25.7372 7.16344 32.9007 16 32.9007Z" fill="#0D1E30"/>
<g filter="url(#filter0_d_4701_38129)">
<path d="M15.725 6.96065C16.204 6.71365 16.789 7.28465 16.535 7.75565C16.386 8.13965 15.825 8.24165 15.539 7.94865C15.236 7.66865 15.335 7.11265 15.725 6.95965V6.96065ZM10.57 7.50665C10.861 7.38865 11.23 7.65065 11.2 7.96365C11.23 8.30165 10.81 8.55165 10.513 8.39065C10.12 8.24065 10.165 7.61265 10.57 7.50665V7.50665ZM21.128 8.39965C20.673 8.34565 20.601 7.64165 21.038 7.49965C21.378 7.33765 21.69 7.64265 21.74 7.95965C21.668 8.22965 21.438 8.47765 21.128 8.39965V8.39965ZM11.743 9.66465C12.23 9.36165 12.924 9.81265 12.849 10.3697C12.824 10.9307 12.066 11.2567 11.638 10.8767C11.224 10.5787 11.287 9.89465 11.743 9.66465ZM19.173 9.98665C19.39 9.43665 20.27 9.41865 20.517 9.95465C20.762 10.3717 20.461 10.8887 20.026 11.0307C19.449 11.1367 18.902 10.5227 19.173 9.98665ZM15.104 10.9997C15.099 10.5256 15.537 10.1737 15.994 10.1407C16.298 10.2007 16.628 10.3276 16.758 10.6286C17.001 11.0446 16.785 11.6157 16.348 11.8067C16.148 11.9167 15.91 11.8756 15.692 11.8626C15.359 11.7026 15.078 11.3857 15.104 10.9997ZM7.438 11.6896C7.883 11.4196 8.483 11.9096 8.314 12.3856C8.222 12.7966 7.66 12.9636 7.339 12.7016C6.996 12.4556 7.05 11.8647 7.439 11.6887L7.438 11.6896ZM23.9 11.6876C24.277 11.3996 24.9 11.7307 24.854 12.1987C24.88 12.6257 24.341 12.9487 23.967 12.7287C23.555 12.5457 23.512 11.9217 23.9 11.6887V11.6876ZM17.26 12.5386C17.882 12.3186 18.622 12.5816 18.976 13.1286C19.444 13.7956 19.196 14.8116 18.469 15.1946C17.717 15.6476 16.618 15.2647 16.339 14.4367C16.024 13.6967 16.484 12.7706 17.259 12.5386H17.26ZM13.607 12.6117C14.297 12.2917 15.226 12.5596 15.559 13.2536C15.951 13.9296 15.648 14.8707 14.947 15.2197C14.245 15.6127 13.254 15.3147 12.915 14.5897C12.534 13.8877 12.872 12.9347 13.607 12.6117V12.6117ZM9.95 13.8406C10.003 13.4036 10.422 13.1186 10.845 13.0886C11.0656 13.1119 11.2718 13.2094 11.4298 13.3651C11.5878 13.5207 11.6884 13.7254 11.715 13.9457C11.685 14.3957 11.332 14.8336 10.848 14.8316C10.315 14.8766 9.848 14.3546 9.95 13.8406V13.8406ZM20.752 13.1847C21.299 12.8717 22.058 13.3266 22.034 13.9446C22.071 14.5996 21.231 15.0607 20.687 14.6767C20.121 14.3567 20.165 13.4567 20.752 13.1847ZM12.122 15.4916C12.76 15.3186 13.492 15.6146 13.805 16.1926C14.148 16.7746 14.008 17.5827 13.475 18.0107C12.79 18.6367 11.529 18.3846 11.165 17.5306C10.746 16.7476 11.255 15.6977 12.121 15.4907L12.122 15.4916ZM19.049 15.4887C19.67 15.3137 20.4 15.5486 20.734 16.1056C21.176 16.7426 20.965 17.6936 20.308 18.1036C19.618 18.5806 18.552 18.3307 18.172 17.5847C17.712 16.8137 18.175 15.7237 19.049 15.4887V15.4887ZM8.009 16.2147C8.561 16.0097 9.173 16.6086 8.949 17.1476C8.813 17.6376 8.11 17.8196 7.747 17.4576C7.322 17.1176 7.479 16.3627 8.009 16.2147V16.2147ZM22.978 16.9967C22.9676 16.7765 23.0446 16.5612 23.1922 16.3975C23.3397 16.2338 23.546 16.1351 23.766 16.1227C24.144 16.1827 24.512 16.4827 24.482 16.8877C24.517 17.4227 23.862 17.7857 23.398 17.5347C23.181 17.4257 23.07 17.2067 22.978 16.9967ZM5.294 16.4806C5.626 16.3376 6.037 16.6207 5.961 16.9837C5.943 17.3947 5.326 17.5537 5.1 17.2097C4.9 16.9707 5.02 16.6037 5.294 16.4797V16.4806ZM26.243 16.4717C26.477 16.3087 26.853 16.4256 26.945 16.6946C27.102 16.9886 26.814 17.3907 26.478 17.3417C26.006 17.3837 25.854 16.6767 26.243 16.4717ZM13.926 18.4447C14.8 18.2217 15.74 18.9386 15.746 19.8246C15.802 20.7196 14.876 21.5127 13.982 21.3067C13.29 21.1967 12.747 20.5406 12.77 19.8536C12.768 19.1956 13.272 18.5837 13.926 18.4447V18.4447ZM17.388 18.4436C18.275 18.1996 19.243 18.9296 19.229 19.8356C19.276 20.7136 18.379 21.4807 17.503 21.3057C16.678 21.2017 16.07 20.3106 16.3 19.5226C16.416 18.9986 16.862 18.5726 17.388 18.4426V18.4436ZM10.712 18.9886C11.326 18.8856 11.902 19.5587 11.653 20.1327C11.471 20.7447 10.567 20.9097 10.167 20.4107C9.699 19.9307 10.049 19.0546 10.712 18.9886V18.9886ZM20.866 19.0156C21.414 18.7896 22.086 19.2557 22.044 19.8407C22.066 20.4837 21.236 20.9276 20.701 20.5516C20.094 20.2146 20.205 19.2216 20.866 19.0156V19.0156ZM23.704 21.8157C23.49 21.4227 23.879 20.9016 24.324 20.9746C24.544 20.9706 24.699 21.1417 24.84 21.2857C24.869 21.5187 24.918 21.7967 24.721 21.9757C24.454 22.3087 23.849 22.2137 23.704 21.8157V21.8157ZM7.436 21.0837C7.851 20.8127 8.448 21.2176 8.354 21.6936C8.304 22.1166 7.764 22.3576 7.409 22.1176C7.027 21.9006 7.041 21.2817 7.436 21.0837V21.0837ZM15.629 21.9667C16.172 21.7317 16.864 22.1967 16.812 22.7847C16.852 23.4347 15.997 23.8847 15.466 23.4947C14.876 23.1597 14.975 22.1737 15.629 21.9667V21.9667ZM11.835 22.8377C12.297 22.5987 12.917 23.0117 12.875 23.5217C12.889 23.9397 12.475 24.2957 12.055 24.2337C11.708 24.2267 11.482 23.9197 11.37 23.6287C11.376 23.3117 11.509 22.9586 11.835 22.8386V22.8377ZM19.521 22.8456C19.997 22.5556 20.673 22.9717 20.628 23.5157C20.64 24.0857 19.876 24.4497 19.433 24.0757C19.005 23.7827 19.057 23.0786 19.521 22.8456ZM20.858 26.0957C20.646 25.7817 20.895 25.4027 21.238 25.3307C21.515 25.3857 21.808 25.5907 21.749 25.9047C21.709 26.3317 21.075 26.4617 20.858 26.0967V26.0957ZM10.247 25.8227C10.331 25.5727 10.535 25.3257 10.834 25.3907C11.269 25.4207 11.398 26.0667 11.017 26.2657C10.675 26.4927 10.277 26.1817 10.247 25.8227ZM15.367 26.1097C15.45 25.7397 15.935 25.5607 16.255 25.7567C16.467 25.8467 16.529 26.0787 16.583 26.2767C16.5545 26.3795 16.5278 26.4828 16.503 26.5867C16.372 26.7387 16.203 26.8917 15.985 26.8867C15.58 26.9337 15.214 26.4827 15.366 26.1097H15.367Z" fill="black"/>
</g>
<path d="M15.725 6.96065C16.204 6.71365 16.789 7.28465 16.535 7.75565C16.386 8.13965 15.825 8.24165 15.539 7.94865C15.236 7.66865 15.335 7.11365 15.725 6.96065ZM10.57 7.50665C10.861 7.38865 11.23 7.65065 11.2 7.96365C11.23 8.30165 10.81 8.55165 10.513 8.39065C10.12 8.24065 10.165 7.61265 10.57 7.50665ZM21.128 8.39965C20.673 8.34565 20.601 7.64165 21.038 7.49965C21.378 7.33765 21.69 7.64265 21.74 7.95965C21.668 8.22965 21.438 8.47765 21.128 8.39965ZM11.743 9.66465C12.23 9.36165 12.924 9.81265 12.849 10.3697C12.824 10.9307 12.066 11.2567 11.638 10.8767C11.224 10.5787 11.287 9.89465 11.743 9.66465ZM19.173 9.98665C19.39 9.43665 20.27 9.41865 20.517 9.95465C20.762 10.3717 20.461 10.8887 20.026 11.0307C19.449 11.1367 18.902 10.5227 19.173 9.98665ZM15.104 10.9997C15.099 10.5256 15.537 10.1737 15.994 10.1407C16.298 10.2007 16.628 10.3276 16.758 10.6286C17.001 11.0446 16.785 11.6157 16.348 11.8067C16.148 11.9167 15.91 11.8756 15.692 11.8626C15.359 11.7026 15.078 11.3857 15.104 10.9997ZM7.438 11.6896C7.883 11.4196 8.483 11.9096 8.314 12.3856C8.222 12.7966 7.66 12.9636 7.339 12.7016C6.996 12.4556 7.05 11.8647 7.439 11.6887L7.438 11.6896ZM23.9 11.6876C24.277 11.3996 24.9 11.7307 24.854 12.1987C24.88 12.6257 24.341 12.9487 23.967 12.7287C23.555 12.5457 23.512 11.9217 23.9 11.6887V11.6876ZM17.26 12.5386C17.882 12.3186 18.622 12.5816 18.976 13.1286C19.444 13.7956 19.196 14.8116 18.469 15.1946C17.717 15.6476 16.618 15.2647 16.339 14.4367C16.024 13.6967 16.485 12.7706 17.26 12.5386ZM13.607 12.6117C14.297 12.2917 15.226 12.5596 15.559 13.2536C15.951 13.9296 15.648 14.8707 14.947 15.2197C14.245 15.6127 13.254 15.3147 12.915 14.5897C12.534 13.8877 12.872 12.9347 13.607 12.6117ZM9.95 13.8406C10.003 13.4036 10.422 13.1186 10.845 13.0886C11.0656 13.1119 11.2718 13.2094 11.4298 13.3651C11.5878 13.5207 11.6884 13.7254 11.715 13.9457C11.685 14.3957 11.332 14.8336 10.848 14.8316C10.315 14.8766 9.848 14.3546 9.95 13.8406ZM20.752 13.1847C21.299 12.8717 22.058 13.3266 22.034 13.9446C22.071 14.5996 21.231 15.0607 20.687 14.6767C20.121 14.3567 20.165 13.4567 20.752 13.1847ZM12.122 15.4916C12.76 15.3186 13.492 15.6146 13.805 16.1926C14.148 16.7746 14.008 17.5827 13.475 18.0107C12.79 18.6367 11.529 18.3846 11.165 17.5306C10.746 16.7476 11.255 15.6977 12.121 15.4907L12.122 15.4916ZM19.049 15.4887C19.67 15.3137 20.4 15.5486 20.734 16.1056C21.176 16.7426 20.965 17.6936 20.308 18.1036C19.618 18.5806 18.552 18.3307 18.172 17.5847C17.712 16.8137 18.175 15.7237 19.049 15.4887ZM8.009 16.2147C8.561 16.0097 9.173 16.6086 8.949 17.1476C8.813 17.6376 8.11 17.8196 7.747 17.4576C7.322 17.1176 7.479 16.3627 8.009 16.2147ZM22.978 16.9967C22.9676 16.7765 23.0446 16.5612 23.1922 16.3975C23.3397 16.2338 23.546 16.1351 23.766 16.1227C24.144 16.1827 24.512 16.4827 24.482 16.8877C24.517 17.4227 23.862 17.7857 23.398 17.5347C23.181 17.4257 23.07 17.2067 22.978 16.9967ZM5.294 16.4806C5.626 16.3376 6.037 16.6207 5.961 16.9837C5.943 17.3947 5.326 17.5537 5.1 17.2097C4.9 16.9707 5.02 16.6046 5.294 16.4806ZM26.243 16.4717C26.477 16.3087 26.853 16.4256 26.945 16.6946C27.102 16.9886 26.814 17.3907 26.478 17.3417C26.006 17.3837 25.854 16.6767 26.243 16.4717ZM13.926 18.4447C14.8 18.2217 15.74 18.9386 15.746 19.8246C15.802 20.7196 14.876 21.5127 13.982 21.3067C13.29 21.1967 12.747 20.5406 12.77 19.8536C12.768 19.1956 13.272 18.5837 13.926 18.4447ZM17.388 18.4436C18.275 18.1996 19.243 18.9296 19.229 19.8356C19.276 20.7136 18.379 21.4807 17.503 21.3057C16.678 21.2017 16.07 20.3106 16.3 19.5226C16.416 18.9986 16.862 18.5736 17.388 18.4436ZM10.712 18.9886C11.326 18.8856 11.902 19.5587 11.653 20.1327C11.471 20.7447 10.567 20.9097 10.167 20.4107C9.699 19.9307 10.049 19.0546 10.712 18.9886ZM20.866 19.0156C21.414 18.7896 22.086 19.2557 22.044 19.8407C22.066 20.4837 21.236 20.9276 20.701 20.5516C20.094 20.2146 20.205 19.2216 20.866 19.0156ZM23.704 21.8157C23.49 21.4227 23.879 20.9016 24.324 20.9746C24.544 20.9706 24.699 21.1417 24.84 21.2857C24.869 21.5187 24.918 21.7967 24.721 21.9757C24.454 22.3087 23.849 22.2137 23.704 21.8157ZM7.436 21.0837C7.851 20.8127 8.448 21.2176 8.354 21.6936C8.304 22.1166 7.764 22.3576 7.409 22.1176C7.027 21.9006 7.041 21.2817 7.436 21.0837ZM15.629 21.9667C16.172 21.7317 16.864 22.1967 16.812 22.7847C16.852 23.4347 15.997 23.8847 15.466 23.4947C14.876 23.1597 14.975 22.1737 15.629 21.9667ZM11.835 22.8377C12.297 22.5987 12.917 23.0117 12.875 23.5217C12.889 23.9397 12.475 24.2957 12.055 24.2337C11.708 24.2267 11.482 23.9197 11.37 23.6287C11.376 23.3117 11.509 22.9577 11.835 22.8377ZM19.521 22.8456C19.997 22.5556 20.673 22.9717 20.628 23.5157C20.64 24.0857 19.876 24.4497 19.433 24.0757C19.005 23.7827 19.057 23.0786 19.521 22.8456ZM20.858 26.0957C20.646 25.7817 20.895 25.4027 21.238 25.3307C21.515 25.3857 21.808 25.5907 21.749 25.9047C21.709 26.3317 21.075 26.4607 20.858 26.0957ZM10.247 25.8227C10.331 25.5727 10.535 25.3257 10.834 25.3907C11.269 25.4207 11.398 26.0667 11.017 26.2657C10.675 26.4927 10.277 26.1817 10.247 25.8227ZM15.367 26.1097C15.45 25.7397 15.935 25.5607 16.255 25.7567C16.467 25.8467 16.529 26.0787 16.583 26.2767C16.5545 26.3795 16.5278 26.4828 16.503 26.5867C16.372 26.7387 16.203 26.8917 15.985 26.8867C15.58 26.9337 15.215 26.4827 15.367 26.1097Z" fill="white"/>
</g>
<defs>
<filter id="filter0_d_4701_38129" x="4.00044" y="6.40107" width="23.9886" height="21.989" filterUnits="userSpaceOnUse" color-interpolation-filters="sRGB">
<feFlood flood-opacity="0" result="BackgroundImageFix"/>
<feColorMatrix in="SourceAlpha" type="matrix" values="0 0 0 0 0 0 0 0 0 0 0 0 0 0 0 0 0 0 127 0" result="hardAlpha"/>
<feOffset dy="0.5"/>
<feGaussianBlur stdDeviation="0.5"/>
<feColorMatrix type="matrix" values="0 0 0 0 0 0 0 0 0 0 0 0 0 0 0 0 0 0 0.204257 0"/>
<feBlend mode="normal" in2="BackgroundImageFix" result="effect1_dropShadow_4701_38129"/>
<feBlend mode="normal" in="SourceGraphic" in2="effect1_dropShadow_4701_38129" result="shape"/>
</filter>
<clipPath id="clip0_4701_38129">
<rect width="32" height="32" fill="white" transform="translate(0 0.90065)"/>
</clipPath>
</defs>
</svg>
