<svg width="40" height="40" viewBox="0 0 40 40" fill="none" xmlns="http://www.w3.org/2000/svg">
<path d="M3.625 12.1596V27.8396C3.625 28.8476 4.153 29.7596 5.033 30.2716L18.617 38.1116C19.481 38.6076 20.553 38.6076 21.417 38.1116L35.001 30.2716C35.865 29.7756 36.409 28.8476 36.409 27.8396V12.1596C36.409 11.1516 35.881 10.2396 35.001 9.72762L21.417 1.88762C20.553 1.39163 19.481 1.39163 18.617 1.88762L5.033 9.72762C4.169 10.2236 3.641 11.1516 3.641 12.1596H3.625Z" fill="#213147"/>
<path d="M22.9671 23.0402L21.0311 28.3522C20.9831 28.4962 20.9831 28.6562 21.0311 28.8162L24.3591 37.9522L28.2151 35.7282L23.5911 23.0402C23.4791 22.7522 23.0791 22.7522 22.9671 23.0402Z" fill="#12AAFF"/>
<path d="M26.8631 14.1125C26.7511 13.8245 26.3511 13.8245 26.2391 14.1125L24.3031 19.4245C24.2551 19.5685 24.2551 19.7285 24.3031 19.8885L29.7591 34.8485L33.6151 32.6245L26.8631 14.1285V14.1125Z" fill="#12AAFF"/>
<path d="M20.0122 2.48C20.1082 2.48 20.2042 2.512 20.2842 2.56L34.9722 11.04C35.1482 11.136 35.2442 11.328 35.2442 11.52V28.48C35.2442 28.672 35.1322 28.864 34.9722 28.96L20.2842 37.44C20.2042 37.488 20.1082 37.52 20.0122 37.52C19.9162 37.52 19.8202 37.488 19.7402 37.44L5.05218 28.96C4.87618 28.864 4.78018 28.672 4.78018 28.48V11.504C4.78018 11.312 4.89218 11.12 5.05218 11.024L19.7402 2.544C19.8202 2.496 19.9162 2.464 20.0122 2.464V2.48ZM20.0122 0C19.4842 0 18.9722 0.128 18.4922 0.4L3.80418 8.88C2.86018 9.424 2.28418 10.416 2.28418 11.504V28.464C2.28418 29.552 2.86018 30.544 3.80418 31.088L18.4922 39.568C18.9562 39.84 19.4842 39.968 20.0122 39.968C20.5402 39.968 21.0522 39.84 21.5322 39.568L36.2202 31.088C37.1642 30.544 37.7402 29.552 37.7402 28.464V11.504C37.7402 10.416 37.1642 9.424 36.2202 8.88L21.5162 0.4C21.0522 0.128 20.5242 0 19.9962 0H20.0122Z" fill="#9DCCED"/>
<path d="M10.2871 34.8643L11.6471 31.1523L14.3671 33.4083L11.8231 35.7443L10.2871 34.8643Z" fill="#213147"/>
<path d="M18.7672 10.3031H15.0392C14.7672 10.3031 14.5112 10.4791 14.4152 10.7351L6.43115 32.6231L10.2872 34.8471L19.0872 10.7351C19.1672 10.5111 19.0072 10.2871 18.7832 10.2871L18.7672 10.3031Z" fill="white"/>
<path d="M25.2908 10.3031H21.5628C21.2908 10.3031 21.0348 10.4791 20.9388 10.7351L11.8188 35.7271L15.6748 37.9511L25.5948 10.7351C25.6748 10.5111 25.5148 10.2871 25.2908 10.2871V10.3031Z" fill="white"/>
</svg>
