<svg width="32" height="33" viewBox="0 0 32 33" fill="none" xmlns="http://www.w3.org/2000/svg">
<g clip-path="url(#clip0_4701_38135)">
<path d="M16 32.9007C24.8366 32.9007 32 25.7372 32 16.9007C32 8.06409 24.8366 0.90065 16 0.90065C7.16344 0.90065 0 8.06409 0 16.9007C0 25.7372 7.16344 32.9007 16 32.9007Z" fill="#E84142"/>
<path fill-rule="evenodd" clip-rule="evenodd" d="M11.518 23.6506H8.49C7.854 23.6506 7.54 23.6506 7.348 23.5277C7.24684 23.4616 7.16263 23.3727 7.10217 23.2682C7.04172 23.1636 7.00672 23.0463 7 22.9256C6.988 22.6996 7.145 22.4226 7.46 21.8706L14.932 8.67765C15.25 8.11765 15.412 7.83765 15.614 7.73365C15.7221 7.67867 15.8417 7.65002 15.963 7.65002C16.0843 7.65002 16.2039 7.67867 16.312 7.73365C16.515 7.83765 16.676 8.11765 16.994 8.67765L18.53 11.3637L18.538 11.3777C18.881 11.9777 19.055 12.2836 19.131 12.6037C19.216 12.9539 19.216 13.3194 19.131 13.6697C19.055 13.9927 18.882 14.2996 18.534 14.9096L14.608 21.8596L14.598 21.8766C14.252 22.4826 14.078 22.7896 13.834 23.0216C13.5714 23.2731 13.2526 23.4582 12.904 23.5616C12.585 23.6506 12.23 23.6506 11.518 23.6506ZM19.161 23.6506H23.497C24.137 23.6506 24.459 23.6506 24.651 23.5247C24.7529 23.4583 24.8376 23.3686 24.8981 23.2631C24.9586 23.1576 24.9932 23.0392 24.999 22.9176C25.01 22.6986 24.857 22.4336 24.556 21.9126L24.524 21.8586L22.352 18.1366L22.327 18.0946C22.022 17.5776 21.867 17.3166 21.67 17.2157C21.5627 17.1609 21.444 17.1323 21.3235 17.1323C21.203 17.1323 21.0843 17.1609 20.977 17.2157C20.777 17.3197 20.617 17.5926 20.299 18.1406L18.134 21.8626L18.127 21.8756C17.81 22.4237 17.651 22.6966 17.663 22.9216C17.6697 23.0428 17.7046 23.1607 17.765 23.266C17.8255 23.3712 17.9097 23.4608 18.011 23.5277C18.199 23.6506 18.521 23.6506 19.161 23.6506Z" fill="white"/>
</g>
<defs>
<clipPath id="clip0_4701_38135">
<rect width="32" height="32" fill="white" transform="translate(0 0.90065)"/>
</clipPath>
</defs>
</svg>
