<svg width="32" height="32" viewBox="0 0 32 32" fill="none" xmlns="http://www.w3.org/2000/svg">
<path fill-rule="evenodd" clip-rule="evenodd" d="M16 0C24.8372 0 32 7.16282 32 16C32 24.8372 24.8372 32 16 32C7.16282 32 0 24.8372 0 16C0 7.16282 7.16282 0 16 0Z" fill="#F0B90B"/>
<path d="M8.79359 16L8.80513 20.2308L12.4 22.3462V24.8231L6.70128 21.4808V14.7628L8.79359 16ZM8.79359 11.7693V14.2346L6.7 12.9962V10.5308L8.79359 9.29233L10.8974 10.5308L8.79359 11.7693ZM13.9013 10.5308L15.9949 9.29233L18.0987 10.5308L15.9949 11.7693L13.9013 10.5308Z" fill="white"/>
<path d="M10.3064 19.3539V16.8769L12.4 18.1154V20.5808L10.3064 19.3539ZM13.9013 23.2334L15.9949 24.4718L18.0987 23.2334V25.6987L15.9949 26.9372L13.9013 25.6987V23.2334ZM21.1013 10.5308L23.1949 9.29233L25.2987 10.5308V12.9962L23.1949 14.2346V11.7693L21.1013 10.5308ZM23.1949 20.2308L23.2064 16L25.3 14.7616V21.4795L19.6013 24.8218V22.3449L23.1949 20.2308Z" fill="white"/>
<path d="M21.6936 19.3538L19.6 20.5808V18.1154L21.6936 16.8769V19.3538Z" fill="white"/>
<path d="M21.6936 12.6462L21.7051 15.1231L18.1 17.2385V21.4795L16.0064 22.7064L13.9128 21.4795V17.2385L10.3077 15.1231V12.6462L12.4103 11.4077L15.9936 13.5333L19.5987 11.4077L21.7026 12.6462H21.6936ZM10.3064 8.41668L15.9949 5.06284L21.6936 8.41668L19.6 9.65514L15.9949 7.5295L12.4 9.65514L10.3064 8.41668Z" fill="white"/>
</svg>
