<svg width="32" height="32" viewBox="0 0 32 32" fill="none" xmlns="http://www.w3.org/2000/svg">
<path d="M31.5212 19.8705C29.3841 28.442 20.7016 33.6584 12.1281 31.521C3.55818 29.3841 -1.65886 20.702 0.47923 12.1312C2.61545 3.5587 11.298 -1.65814 19.8688 0.478774C28.4417 2.61569 33.6584 11.2987 31.521 19.8706L31.5212 19.8705H31.5212Z" fill="#F7931A"/>
<path d="M23.0562 13.7203C23.3746 11.5911 21.7534 10.4465 19.5365 9.68297L20.2557 6.79872L18.4997 6.36123L17.7996 9.16955C17.338 9.05443 16.8639 8.94596 16.3928 8.83842L17.0979 6.01157L15.3431 5.57408L14.6235 8.4574C14.2415 8.37043 13.8663 8.28448 13.5023 8.19392L13.5043 8.18485L11.0829 7.58024L10.6158 9.45547C10.6158 9.45547 11.9185 9.75406 11.8911 9.77244C12.6021 9.94989 12.7307 10.4205 12.7094 10.7936L11.8901 14.0794C11.9391 14.0919 12.0026 14.1099 12.0727 14.138C12.0141 14.1235 11.9518 14.1076 11.8871 14.0921L10.7388 18.6951C10.6519 18.9111 10.4313 19.2353 9.9342 19.1122C9.9518 19.1377 8.65796 18.7937 8.65796 18.7937L7.78617 20.8035L10.0712 21.373C10.4963 21.4796 10.9129 21.5912 11.3231 21.696L10.5965 24.6134L12.3504 25.0509L13.07 22.1645C13.5492 22.2946 14.0141 22.4145 14.4694 22.5276L13.7522 25.4004L15.5082 25.8379L16.2348 22.926C19.229 23.4926 21.4804 23.2642 22.4281 20.5562C23.1917 18.3759 22.3901 17.1184 20.8148 16.2983C21.9622 16.0337 22.8264 15.2792 23.0568 13.7205L23.0562 13.7202L23.0562 13.7203ZM19.0443 19.3454C18.5016 21.5256 14.8303 20.3471 13.64 20.0515L14.6043 16.1865C15.7945 16.4837 19.6114 17.0716 19.0443 19.3454H19.0443ZM19.5873 13.6887C19.0923 15.6719 16.0366 14.6643 15.0454 14.4173L15.9196 10.912C16.9109 11.159 20.103 11.6201 19.5875 13.6887H19.5873Z" fill="white"/>
</svg>
