<svg width="40" height="40" viewBox="0 0 40 40" fill="none" xmlns="http://www.w3.org/2000/svg">
<g clip-path="url(#clip0_12579_67794)">
<path d="M-0.0014759 19.9446C-0.00186733 25.2342 2.09906 30.3074 5.83912 34.048C9.57918 37.7886 14.652 39.8903 19.9416 39.8907C25.2313 39.8911 30.3044 37.7901 34.045 34.0501C37.7857 30.31 39.8873 25.2372 39.8877 19.9476C39.8881 14.6579 37.7872 9.58477 34.0471 5.84416C30.3071 2.10354 25.2342 0.00186733 19.9446 0.0014759C14.655 0.00108447 9.58182 2.10201 5.84121 5.84207C2.10059 9.58213 -0.00108447 14.655 -0.0014759 19.9446ZM8.86279 19.9453C8.86301 17.0066 10.0306 14.1883 12.1087 12.1105C14.1868 10.0327 17.0053 8.86552 19.9439 8.86574C22.8826 8.86596 25.7009 10.0336 27.7787 12.1117C29.8565 14.1898 31.0237 17.0082 31.0235 19.9469C31.0232 22.8856 29.8556 25.7038 27.7775 27.7816C25.6994 29.8594 22.881 31.0266 19.9423 31.0264C17.0036 31.0262 14.1854 29.8586 12.1076 27.7805C10.0298 25.7024 8.86257 22.8839 8.86279 19.9453Z" fill="url(#paint0_linear_12579_67794)"/>
<path d="M31.4838 3.6919C34.1249 5.52159 36.2811 7.9543 37.7699 10.7838C39.2586 13.6134 40.0359 16.7563 40.0359 19.9463C40.0359 23.1362 39.2586 26.2792 37.7699 29.1087C36.2811 31.9382 34.1249 34.3709 31.4838 36.2006L26.3359 28.9265C27.7951 27.9157 28.9864 26.5716 29.8089 25.0083C30.6314 23.4451 31.0608 21.7087 31.0608 19.9463C31.0608 18.1838 30.6314 16.4474 29.8089 14.8841C28.9864 13.3209 27.7951 11.9768 26.3359 10.966L31.4838 3.6919Z" fill="url(#paint1_linear_12579_67794)"/>
<path d="M19.9475 31.0264C26.067 31.0264 31.0279 26.0656 31.0279 19.9461C31.0279 13.8266 26.067 8.86572 19.9475 8.86572C13.828 8.86572 8.86719 13.8266 8.86719 19.9461C8.86719 26.0656 13.828 31.0264 19.9475 31.0264Z" fill="#191919"/>
</g>
<defs>
<linearGradient id="paint0_linear_12579_67794" x1="19.8241" y1="39.211" x2="19.7475" y2="-11.0122" gradientUnits="userSpaceOnUse">
<stop stop-color="#FBB03B"/>
<stop offset="1" stop-color="#F05A24"/>
</linearGradient>
<linearGradient id="paint1_linear_12579_67794" x1="22.9854" y1="-7.7665" x2="33.1858" y2="36.2006" gradientUnits="userSpaceOnUse">
<stop stop-color="#5F2583"/>
<stop offset="1" stop-color="#ED1E79"/>
</linearGradient>
<clipPath id="clip0_12579_67794">
<rect width="40" height="40" fill="white"/>
</clipPath>
</defs>
</svg>
