<svg width="32" height="32" viewBox="0 0 32 32" fill="none" xmlns="http://www.w3.org/2000/svg">
<g clip-path="url(#clip0_5779_63190)">
<path d="M32 16C32 7.16344 24.8366 0 16 0C7.16344 0 0 7.16344 0 16C0 24.8366 7.16344 32 16 32C24.8366 32 32 24.8366 32 16Z" fill="#3B00B9"/>
<path fill-rule="evenodd" clip-rule="evenodd" d="M3.59095 16.9217C4.04034 23.0589 8.94116 27.9597 15.0783 28.409V29.7951C8.17726 29.3407 2.65929 23.8227 2.20505 16.9217H3.59095Z" fill="url(#paint0_linear_5779_63190)"/>
<path fill-rule="evenodd" clip-rule="evenodd" d="M15.0717 3.5843C8.93454 4.03366 4.03369 8.9345 3.58433 15.0717H2.19843C2.65265 8.1706 8.17063 2.65262 15.0717 2.19839V3.5843Z" fill="#29ABE2"/>
<path fill-rule="evenodd" clip-rule="evenodd" d="M28.409 15.065C27.9597 8.92786 23.0588 4.02702 16.9217 3.57766V2.19177C23.8227 2.646 29.3407 8.16396 29.7948 15.065H28.409Z" fill="url(#paint1_linear_5779_63190)"/>
<path fill-rule="evenodd" clip-rule="evenodd" d="M16.9283 28.4024C23.0654 27.9531 27.9663 23.0523 28.4158 16.915H29.8017C29.3473 23.8161 23.8295 29.3341 16.9283 29.7883V28.4024Z" fill="#29ABE2"/>
<path d="M21.8787 14.1862C22.14 12.4392 20.8098 11.5 18.9908 10.8735L19.5808 8.50695L18.1402 8.14794L17.5657 10.4521C17.187 10.3578 16.7979 10.2687 16.4114 10.1805L16.99 7.86114L15.5501 7.50215L14.9596 9.86787C14.6461 9.79649 14.3384 9.72593 14.0397 9.65168L14.0413 9.64429L12.0545 9.14822L11.6712 10.6868C11.6712 10.6868 12.7401 10.9318 12.7176 10.947C13.3011 11.0926 13.4065 11.4787 13.3889 11.7848C12.8497 13.9473 12.3117 16.1049 11.7721 18.2678C11.7008 18.445 11.5198 18.7109 11.1119 18.6099C11.1263 18.6309 10.0647 18.3486 10.0647 18.3486L9.34952 19.9976L11.2243 20.4649C11.5731 20.5523 11.9149 20.6438 12.2514 20.7299L11.6552 23.1235L13.0943 23.4825L13.6847 21.1144C14.0778 21.221 14.4594 21.3195 14.8328 21.4122L14.2444 23.7694L15.6851 24.1284L16.2813 21.7392C18.738 22.204 20.5854 22.0167 21.3629 19.7949C21.9895 18.006 21.3317 16.9741 20.0392 16.3013C20.9805 16.0842 21.6896 15.4651 21.8787 14.1862ZM18.587 18.8016C18.1418 20.5904 15.1295 19.6234 14.1529 19.3809L14.944 16.2097C15.9207 16.4535 19.0523 16.936 18.587 18.8016ZM19.0326 14.1603C18.6264 15.7876 16.1193 14.9608 15.306 14.7581L16.0232 11.882C16.8365 12.0847 19.4557 12.463 19.0326 14.1603Z" fill="white"/>
</g>
<defs>
<linearGradient id="paint0_linear_5779_63190" x1="11.7202" y1="26.9129" x2="3.07643" y2="19.6337" gradientUnits="userSpaceOnUse">
<stop offset="0.21" stop-color="#ED1E79"/>
<stop offset="1" stop-color="#522785"/>
</linearGradient>
<linearGradient id="paint1_linear_5779_63190" x1="26.4438" y1="12.1868" x2="17.8001" y2="4.9077" gradientUnits="userSpaceOnUse">
<stop offset="0.21" stop-color="#F15A24"/>
<stop offset="0.6841" stop-color="#FBB03B"/>
</linearGradient>
<clipPath id="clip0_5779_63190">
<rect width="32" height="32" fill="white"/>
</clipPath>
</defs>
</svg>
