<svg width="24" height="24" viewBox="0 0 24 24" fill="none" xmlns="http://www.w3.org/2000/svg">
<g clip-path="url(#clip0_76_349)">
<mask id="mask0_76_349" style="mask-type:luminance" maskUnits="userSpaceOnUse" x="0" y="0" width="24" height="24">
<path d="M24 0H0V24H24V0Z" fill="white"/>
</mask>
<g mask="url(#mask0_76_349)">
<path d="M12 0C18.6266 0 24 5.37334 24 12C24 18.6266 18.6266 24 12 24C5.37334 24 0 18.6266 0 12C0 5.37334 5.37334 0 12 0Z" fill="#3B00B9"/>
<path fill-rule="evenodd" clip-rule="evenodd" d="M2.69352 12.6926C3.02685 17.2926 6.70686 20.9726 11.3068 21.306V22.346C6.1335 21.9993 2.00019 17.8659 1.65352 12.6926H2.69352Z" fill="url(#paint0_linear_76_349)"/>
<path fill-rule="evenodd" clip-rule="evenodd" d="M11.3068 2.69234C6.70686 3.02568 3.02685 6.70566 2.69352 11.3057H1.65352C1.98685 6.13236 6.1335 1.98567 11.3068 1.65234V2.69234Z" fill="#29ABE2"/>
<path fill-rule="evenodd" clip-rule="evenodd" d="M21.3071 11.2927C20.9738 6.69271 17.2937 3.01274 12.6937 2.67941V1.6394C17.8671 1.98607 22.0138 6.11941 22.3471 11.2927H21.3071Z" fill="url(#paint1_linear_76_349)"/>
<path fill-rule="evenodd" clip-rule="evenodd" d="M12.6937 21.306C17.2937 20.9726 20.9738 17.2926 21.3071 12.6926H22.3471C22.0138 17.8659 17.8671 21.9993 12.6937 22.346V21.306Z" fill="#29ABE2"/>
<path d="M12.0269 5.09302V10.133L16.2936 12.0397L12.0269 5.09302Z" fill="white" fill-opacity="0.6"/>
<path d="M12.0268 5.09302L7.76016 12.0397L12.0268 10.133V5.09302Z" fill="white"/>
<path d="M12.0269 15.3062V18.7328L16.2936 12.8262L12.0269 15.3062Z" fill="white" fill-opacity="0.6"/>
<path d="M12.0268 18.7328V15.3062L7.76016 12.8262L12.0268 18.7328Z" fill="white"/>
<path d="M12.0269 14.52L16.2936 12.04L12.0269 10.1333V14.52Z" fill="white" fill-opacity="0.2"/>
<path d="M7.77306 12.0395L12.0397 14.5195V10.1462L7.77306 12.0395Z" fill="white" fill-opacity="0.6"/>
</g>
</g>
<defs>
<linearGradient id="paint0_linear_76_349" x1="8.71446" y1="20.2741" x2="2.23165" y2="14.8146" gradientUnits="userSpaceOnUse">
<stop offset="0.21" stop-color="#ED1E79"/>
<stop offset="1" stop-color="#522785"/>
</linearGradient>
<linearGradient id="paint1_linear_76_349" x1="20.622" y1="8.20303" x2="14.1392" y2="2.74367" gradientUnits="userSpaceOnUse">
<stop offset="0.21" stop-color="#F15A24"/>
<stop offset="0.684" stop-color="#FBB03B"/>
</linearGradient>
<clipPath id="clip0_76_349">
<rect width="24" height="24" fill="white"/>
</clipPath>
</defs>
</svg>
