<svg width="32" height="33" viewBox="0 0 32 33" fill="none" xmlns="http://www.w3.org/2000/svg">
<g clip-path="url(#clip0_4701_38150)">
<path d="M23.4304 3.71591C22.5976 4.53933 21.8346 5.43178 21.1564 6.3834L20.942 6.31437C19.7053 5.91498 18.4237 5.66845 17.1321 5.58463C16.7431 5.55505 15.292 5.55505 14.8182 5.58463C13.387 5.67831 12.29 5.89033 11.0433 6.3193C10.9934 6.33902 10.9485 6.35381 10.9036 6.36861C10.2005 5.42192 9.41759 4.5344 8.55488 3.72084C12.6939 1.62531 17.536 1.37385 21.8695 3.02562C22.3333 3.19819 22.7871 3.40035 23.2309 3.6173L23.4304 3.71591Z" fill="#F00500"/>
<path d="M31.1499 22.4179C30.5215 24.188 29.579 25.8299 28.3573 27.2598C27.694 28.029 26.961 28.7341 26.1731 29.3751C24.328 30.8444 22.1737 31.8946 19.8748 32.4469C17.3316 33.0534 14.6786 33.0534 12.1354 32.4469C9.83148 31.8946 7.6822 30.8444 5.8371 29.3751C5.04919 28.7341 4.31613 28.029 3.6529 27.2598C0.137235 23.1526 -0.929931 17.5119 0.860314 12.4284C1.19941 11.4866 1.62329 10.5794 2.13194 9.71653C2.36631 9.32207 2.65555 8.87831 2.79518 8.69588C3.27391 10.7322 3.86234 12.5221 4.08176 13.168C4.0668 13.2025 4.04685 13.2419 4.0269 13.2765C2.86499 15.6037 2.23666 17.8472 2.08706 20.2336C2.08706 20.2632 2.08207 20.2977 2.08207 20.3273C2.04217 21.0423 2.06212 21.3825 2.1818 21.8312C2.55581 23.2364 3.70775 24.7846 5.51296 26.3033C8.4701 28.7883 12.4795 30.5831 15.5164 30.7902C18.683 31.0022 23.3556 29.1729 26.4673 26.5005C26.956 26.0715 27.4148 25.6179 27.8436 25.1347C28.1528 24.7797 28.6116 24.1683 28.5767 24.1683C28.5667 24.1683 28.5767 24.1584 28.5966 24.1486C28.6116 24.1387 28.6266 24.1239 28.6166 24.1141C28.6116 24.1091 28.6216 24.0943 28.6365 24.0894C28.6515 24.0845 28.6615 24.0746 28.6565 24.0648C28.6515 24.0549 28.6565 24.045 28.6764 24.0401C28.6914 24.0352 28.6964 24.0204 28.6914 24.0105C28.6864 24.0007 28.6914 23.9908 28.7014 23.9908C28.7113 23.9908 28.7213 23.976 28.7213 23.9661C28.7213 23.9563 28.7313 23.9415 28.7413 23.9415C28.7512 23.9415 28.7612 23.9316 28.7612 23.9218C28.7762 23.8823 28.8011 23.8429 28.826 23.8084C28.9008 23.695 29.2 23.1674 29.2399 23.0786C29.5242 22.4426 29.7037 21.8755 29.7885 21.3085C29.8284 21.0373 29.8533 20.5393 29.8334 20.421C29.8284 20.4013 29.8284 20.3668 29.8234 20.3125C29.8134 20.2139 29.8084 20.066 29.7984 19.9181C29.7885 19.6962 29.7685 19.3856 29.7536 19.2327C29.5391 16.9942 28.9607 15.1649 27.8636 13.2272C27.8187 13.1532 27.7788 13.0792 27.7539 13.0201C27.7439 13.0053 27.7389 12.9905 27.7339 12.9806C27.8885 12.5221 28.5218 10.604 29.0255 8.4099L29.0355 8.41976L29.1103 8.51837C29.2399 8.69095 29.584 9.20374 29.7386 9.45027C30.4417 10.5843 30.9903 11.8022 31.3792 13.0743C32.2818 16.1362 32.207 19.4003 31.1499 22.4179Z" fill="#F00500"/>
<path d="M24.677 16.5258C24.6621 16.6047 24.4277 16.8413 24.1933 17.0139C23.5052 17.5119 22.2734 17.9754 21.0218 18.1973C20.3087 18.3255 19.5955 18.3452 19.3811 18.2416C19.2415 18.1726 19.2215 18.1184 19.2714 17.9409C19.3761 17.5711 19.7152 17.1668 20.2438 16.7871C20.5131 16.5948 21.6052 15.939 22.1139 15.6629C22.9516 15.2093 23.6298 14.9381 24.0886 14.874C24.2332 14.8543 24.4078 14.8493 24.4626 14.874C24.5524 14.9085 24.6521 15.1698 24.692 15.4854C24.712 15.653 24.702 16.3926 24.677 16.5258Z" fill="black"/>
<path d="M12.9283 18.1578C12.8983 18.217 12.7487 18.2811 12.5792 18.3057C12.4096 18.3304 11.891 18.3156 11.5968 18.2811C10.5396 18.143 9.41758 17.8225 8.59976 17.4281C8.14098 17.2062 7.81185 16.9843 7.5675 16.7427L7.42787 16.5997L7.41291 16.4124C7.38797 16.0869 7.39296 15.5742 7.43286 15.3917C7.45779 15.2389 7.51264 15.0909 7.58744 14.9578C7.62734 14.9085 7.62734 14.9085 7.80686 14.9085C8.02628 14.9085 8.21079 14.943 8.50999 15.0367C9.12336 15.2241 10.0359 15.6777 11.148 16.3384C12.0655 16.8808 12.4096 17.147 12.6739 17.5119C12.8535 17.7387 12.9731 18.0592 12.9283 18.1578Z" fill="black"/>
<path d="M19.9895 25.0213C19.9895 25.0361 19.9297 25.2728 19.8549 25.5538C19.7801 25.8349 19.7202 26.0617 19.7202 26.0715C19.6654 26.0765 19.6155 26.0814 19.5606 26.0765H19.4011L19.1816 26.5893C19.062 26.8703 18.9523 27.1316 18.9373 27.1711L18.9074 27.2401L18.8027 27.0725L18.6979 26.9048V25.539L18.658 25.5489C18.5733 25.5686 17.9699 25.6475 17.7056 25.6722C16.6135 25.7806 15.5164 25.756 14.4293 25.6031C14.2547 25.5785 14.1051 25.5587 14.1001 25.5637C14.0952 25.5686 14.1001 25.8842 14.1101 26.2737L14.1251 26.9738L14.0403 27.102C13.9954 27.1711 13.9505 27.2302 13.9505 27.2352C13.9356 27.25 13.8857 27.1711 13.771 26.9443C13.6464 26.7076 13.5566 26.4561 13.4918 26.1948L13.4569 26.0518L13.3023 26.0617L13.1477 26.0765L13.1078 25.894C13.0878 25.7954 13.0629 25.6426 13.0529 25.5587L13.038 25.401L12.9083 25.2876C12.8335 25.2235 12.7587 25.1594 12.7438 25.1495C12.7188 25.1298 12.7088 25.0953 12.7088 25.0657V25.0065L13.3322 25.0114L13.9555 25.0164L13.9755 25.0805L13.9954 25.1446L14.2099 25.1544C14.3295 25.1594 14.7085 25.1692 15.0476 25.1791L15.671 25.1939L15.8306 24.9473L15.9951 24.7008H16.2046L16.1996 24.188L16.1946 23.6752L15.9203 23.5569C15.0377 23.1723 14.519 22.7335 14.3245 22.201C14.2847 22.0925 14.2847 22.053 14.2747 21.56C14.2697 21.0718 14.2697 21.0275 14.3046 20.919C14.3744 20.6725 14.5689 20.4802 14.8182 20.4161C14.903 20.3914 15.1274 20.3914 16.3043 20.3914L17.6906 20.3963L17.8452 20.4703C18.0297 20.5591 18.1145 20.6232 18.2192 20.7612C18.3389 20.919 18.3738 21.0423 18.3738 21.343C18.3738 21.772 18.3439 22.1418 18.299 22.2897C18.2342 22.4919 18.1344 22.6842 18.0098 22.8567C17.7604 23.1723 17.3066 23.4879 16.8927 23.6309L16.773 23.6752L16.778 24.193L16.783 24.7107L16.8927 24.7205L17.0024 24.7304L17.152 24.9523L17.2967 25.1742H17.9649C18.3339 25.1742 18.658 25.1791 18.688 25.184C18.7378 25.1939 18.7478 25.1889 18.7977 25.1051L18.8575 25.0164H19.431C19.8598 24.9966 19.9895 25.0065 19.9895 25.0213Z" fill="black"/>
<path d="M17.3565 26.4364C17.2618 26.4906 17.1969 26.5153 17.182 26.5054C17.167 26.5005 17.0972 26.4413 17.0224 26.3871L16.8877 26.2786L16.7481 26.4265C16.4439 26.752 16.4339 26.7668 16.3442 26.7717C16.2046 26.7865 16.1746 26.7618 16.0051 26.5104C15.9153 26.3822 15.8455 26.2737 15.8455 26.2737C15.8455 26.2737 15.7807 26.2638 15.7059 26.2589L15.5663 26.2441L15.5014 26.3772L15.4366 26.5104L15.3219 26.4758C15.2321 26.4463 15.1424 26.4117 15.0576 26.3723L14.908 26.2983V26.0173L16.2345 26.0222L17.561 26.0272L17.5659 26.1603C17.5709 26.3181 17.5759 26.3131 17.3565 26.4364Z" fill="black"/>
<path d="M29.8234 20.421C29.8184 20.4013 29.8184 20.3668 29.8134 20.3125C28.6166 20.1843 25.2007 20.1054 22.0291 22.694C22.0291 22.694 21.0068 18.0592 16.2195 18.0592C11.4322 18.0592 9.65694 22.694 9.65694 22.694C6.97407 19.8392 3.38361 20.0463 2.08705 20.2336C2.08705 20.2632 2.08206 20.2977 2.08206 20.3273C2.04217 21.0423 2.06212 21.3825 2.1818 21.8312C2.55581 23.2364 3.70775 24.7846 5.51295 26.3033C8.4701 28.7883 12.4794 30.5831 15.5164 30.7902C18.683 31.0022 23.3556 29.1729 26.4673 26.5005C26.956 26.0715 27.4148 25.6179 27.8436 25.1347C28.1528 24.7797 28.6116 24.1683 28.5767 24.1683C28.5667 24.1683 28.5767 24.1584 28.5966 24.1486C28.6116 24.1387 28.6266 24.1239 28.6166 24.1141C28.6116 24.1091 28.6216 24.0943 28.6365 24.0894C28.6515 24.0845 28.6615 24.0746 28.6565 24.0648C28.6515 24.0549 28.6565 24.045 28.6764 24.0401C28.6914 24.0352 28.6964 24.0204 28.6914 24.0105C28.6864 24.0007 28.6914 23.9908 28.7014 23.9908C28.7113 23.9908 28.7213 23.976 28.7213 23.9661C28.7213 23.9563 28.7313 23.9415 28.7412 23.9415C28.7512 23.9415 28.7612 23.9316 28.7612 23.9218C28.7762 23.8823 28.8011 23.8429 28.826 23.8084C28.9008 23.695 29.2 23.1674 29.2399 23.0786C29.5242 22.4426 29.7037 21.8755 29.7885 21.3085C29.8184 21.0373 29.8433 20.5393 29.8234 20.421ZM17.3565 26.4364C17.2617 26.4906 17.1969 26.5153 17.182 26.5054C17.167 26.5005 17.0972 26.4413 17.0224 26.3871L16.8877 26.2786L16.7481 26.4265C16.4439 26.752 16.4339 26.7668 16.3442 26.7717C16.2046 26.7865 16.1746 26.7618 16.0051 26.5104C15.9153 26.3822 15.8455 26.2737 15.8455 26.2737C15.8455 26.2737 15.7807 26.2638 15.7059 26.2589L15.5662 26.2441L15.5014 26.3772L15.4366 26.5104L15.3219 26.4759C15.2321 26.4463 15.1424 26.4117 15.0576 26.3723L14.908 26.2983V26.0173L16.2345 26.0222L17.5609 26.0272L17.5659 26.1603C17.5709 26.3181 17.5759 26.3131 17.3565 26.4364ZM19.8499 25.5489C19.7751 25.8299 19.7152 26.0567 19.7152 26.0666C19.6604 26.0715 19.6105 26.0765 19.5557 26.0715H19.3961L19.1816 26.5893C19.062 26.8703 18.9523 27.1316 18.9373 27.1711L18.9074 27.2401L18.8027 27.0725L18.6979 26.9048V25.539L18.658 25.5489C18.5733 25.5686 17.9699 25.6475 17.7056 25.6722C16.6135 25.7806 15.5164 25.756 14.4293 25.6031C14.2547 25.5785 14.1051 25.5587 14.1001 25.5637C14.0952 25.5686 14.1001 25.8842 14.1101 26.2737L14.1251 26.9738L14.0403 27.102C13.9954 27.1711 13.9505 27.2302 13.9505 27.2352C13.9356 27.25 13.8857 27.1711 13.771 26.9443C13.6463 26.7076 13.5566 26.4561 13.4918 26.1948L13.4568 26.0518L13.3023 26.0617L13.1477 26.0765L13.1078 25.894C13.0878 25.7954 13.0629 25.6426 13.0529 25.5587L13.038 25.401L12.9083 25.2876C12.8335 25.2235 12.7587 25.1594 12.7437 25.1495C12.7188 25.1298 12.7088 25.0953 12.7088 25.0657V25.0065L13.3322 25.0114L13.9555 25.0164L13.9755 25.0805L13.9954 25.1446L14.2099 25.1544C14.3295 25.1594 14.7085 25.1692 15.0476 25.1791L15.671 25.1939L15.8305 24.9473L15.9951 24.7008H16.2046L16.1996 24.188L16.1946 23.6752L15.9203 23.5569C15.0377 23.1723 14.519 22.7335 14.3245 22.201C14.2847 22.0925 14.2847 22.053 14.2747 21.56C14.2697 21.0718 14.2697 21.0275 14.3046 20.919C14.3744 20.6725 14.5689 20.4802 14.8182 20.4161C14.903 20.3914 15.1274 20.3914 16.3043 20.3914L17.6906 20.3963L17.8452 20.4703C18.0297 20.5591 18.1145 20.6232 18.2192 20.7612C18.3389 20.919 18.3738 21.0423 18.3738 21.343C18.3738 21.772 18.3439 22.1418 18.299 22.2897C18.2342 22.4919 18.1344 22.6842 18.0098 22.8567C17.7604 23.1723 17.3066 23.4879 16.8927 23.6309L16.773 23.6752L16.778 24.193L16.783 24.7107L16.8927 24.7205L17.0024 24.7304L17.152 24.9523L17.2966 25.1742H17.9649C18.3339 25.1742 18.658 25.1791 18.688 25.184C18.7378 25.1939 18.7478 25.1889 18.7977 25.1051L18.8575 25.0164H19.431C19.8748 25.0164 20.0045 25.0213 20.0045 25.0361C19.9895 25.0312 19.9247 25.2728 19.8499 25.5489Z" fill="white"/>
<path d="M29.7835 19.9181C29.7735 19.6962 29.7536 19.3856 29.7386 19.2327C29.5242 16.9942 28.9457 15.1649 27.8486 13.2272C27.8037 13.1532 27.7638 13.0792 27.7389 13.0201C27.7289 13.0053 27.724 12.9905 27.719 12.9806C27.8736 12.5221 28.5069 10.604 29.0105 8.4099C29.6937 5.43178 30.1276 1.95073 28.8011 0.905433C28.8011 0.905433 26.5072 0.73779 23.4353 3.71591C22.6026 4.53933 21.8396 5.43178 21.1614 6.3834L20.947 6.31437C19.7102 5.91499 18.4286 5.66845 17.1371 5.58463C16.7481 5.55505 15.297 5.55505 14.8232 5.58463C13.392 5.67831 12.2949 5.89033 11.0483 6.3193C10.9984 6.33902 10.9535 6.35381 10.9086 6.36861C10.2055 5.42192 9.42257 4.5344 8.55986 3.72084C5.36335 0.727929 2.98467 0.900502 2.98467 0.900502C1.5784 1.98032 2.05713 5.61915 2.7852 8.69588C3.26393 10.7322 3.85236 12.5221 4.07178 13.168C4.05682 13.2025 4.03688 13.242 4.01693 13.2765C2.85501 15.6037 2.22668 17.8472 2.07708 20.2336C3.37862 20.0463 6.9641 19.8342 9.65196 22.694C9.65196 22.694 11.4272 18.0592 16.2145 18.0592C21.0018 18.0592 22.0241 22.694 22.0241 22.694C25.1957 20.1054 28.6116 20.1893 29.8084 20.3125C29.8034 20.2139 29.7935 20.066 29.7835 19.9181ZM5.01428 11.3091C5.01428 11.3091 3.14923 6.69896 3.62796 4.06599C3.70775 3.62223 3.85735 3.2327 4.09173 2.93686C4.09173 2.93686 6.20611 3.14395 9.61705 6.89126C9.61705 6.89126 8.96878 7.20189 8.10108 7.8626C8.10108 7.8626 8.09609 7.86753 8.0911 7.86753C7.14861 8.58247 5.94182 9.71653 5.01428 11.3091ZM12.9283 18.1578C12.8983 18.217 12.7487 18.2811 12.5792 18.3057C12.4096 18.3304 11.891 18.3156 11.5968 18.2811C10.5396 18.143 9.41758 17.8225 8.59976 17.4281C8.14097 17.2062 7.81185 16.9843 7.56749 16.7427L7.42787 16.5997L7.41291 16.4124C7.38797 16.0869 7.39296 15.5742 7.43285 15.3917C7.45779 15.2389 7.51264 15.0909 7.58744 14.9578C7.62734 14.9085 7.62734 14.9085 7.80686 14.9085C8.02628 14.9085 8.21079 14.943 8.50999 15.0367C9.12336 15.2241 10.0359 15.6777 11.148 16.3384C12.0655 16.8808 12.4096 17.147 12.6739 17.5119C12.8535 17.7387 12.9731 18.0592 12.9283 18.1578ZM24.677 16.5258C24.6621 16.6047 24.4277 16.8413 24.1933 17.0139C23.5052 17.5119 22.2734 17.9754 21.0218 18.1973C20.3087 18.3255 19.5955 18.3452 19.3811 18.2416C19.2415 18.1726 19.2215 18.1184 19.2714 17.9409C19.3761 17.5711 19.7152 17.1668 20.2438 16.7871C20.5131 16.5948 21.6052 15.939 22.1139 15.6629C22.9516 15.2093 23.6298 14.9381 24.0886 14.874C24.2332 14.8543 24.4078 14.8493 24.4626 14.874C24.5524 14.9085 24.6521 15.1698 24.692 15.4854C24.712 15.653 24.702 16.3926 24.677 16.5258ZM23.8492 7.8626L23.8393 7.85767C23.0015 7.19696 22.3732 6.88633 22.3732 6.88633C25.6694 3.13902 27.709 2.93194 27.709 2.93194C27.9334 3.23271 28.078 3.6173 28.1578 4.06106C28.6216 6.69403 26.8213 11.3091 26.8213 11.3091C26.0683 9.98278 25.056 8.80929 23.8492 7.8626Z" fill="#FFA409"/>
<path d="M28.1628 4.06106C27.7738 4.01175 25.9337 4.00189 23.8492 7.8626L23.8393 7.85767C23.0015 7.19696 22.3732 6.88633 22.3732 6.88633C25.6694 3.13902 27.709 2.93194 27.709 2.93194C27.9384 3.23271 28.083 3.6173 28.1628 4.06106Z" fill="#FF9300"/>
<path d="M26.8263 11.3091C26.0684 9.97785 25.061 8.80929 23.8492 7.8626C25.9337 4.00189 27.7688 4.01175 28.1628 4.06106C28.6266 6.69896 26.8263 11.3091 26.8263 11.3091Z" fill="#FF8300"/>
<path d="M28.2376 4.07585C28.2127 4.07092 28.1877 4.06599 28.1628 4.06106L28.2376 4.07585Z" fill="#FF8300"/>
<path d="M9.61705 6.88633C9.61705 6.88633 8.96877 7.19696 8.10108 7.85767C8.10108 7.85767 8.09609 7.8626 8.0911 7.8626C5.93184 3.99696 4.03188 4.01175 3.62297 4.06106C3.70276 3.6173 3.85236 3.22778 4.08674 2.93194C4.09173 2.93194 6.20611 3.13902 9.61705 6.88633Z" fill="#FF9300"/>
<path d="M8.09609 7.8626C7.14861 8.58248 5.94182 9.7116 5.01428 11.3091C5.01428 11.3091 3.14923 6.69896 3.62796 4.06106C4.03189 4.01175 5.93683 4.00189 8.09609 7.8626Z" fill="#FF8300"/>
<path d="M3.62796 4.06106C3.60303 4.06599 3.57311 4.07092 3.54817 4.07585L3.62796 4.06106Z" fill="#FF8300"/>
<path d="M21.7797 13.8681C21.7797 13.8681 20.184 13.9668 20.3835 12.7341C20.5829 11.5014 21.8296 11.3535 22.1787 11.4028C22.5278 11.4521 23.924 11.9452 23.6747 12.9806C23.4254 14.0161 23.0763 13.8188 22.8768 13.8681C22.6774 13.9175 21.7797 13.8681 21.7797 13.8681Z" fill="white"/>
<path d="M10.011 13.8681C10.011 13.8681 8.41524 13.9668 8.61471 12.7341C8.81418 11.5014 10.0609 11.3535 10.4099 11.4028C10.759 11.4521 12.1553 11.9452 11.906 12.9806C11.6566 14.0161 11.3076 13.8188 11.1081 13.8681C10.9086 13.9175 10.011 13.8681 10.011 13.8681Z" fill="white"/>
</g>
<defs>
<clipPath id="clip0_4701_38150">
<rect width="32" height="32" fill="white" transform="translate(0 0.90065)"/>
</clipPath>
</defs>
</svg>
