<svg width="40" height="40" viewBox="0 0 40 40" fill="none" xmlns="http://www.w3.org/2000/svg">
<g clip-path="url(#clip0_13884_3863)">
<path d="M40 20C40 8.9543 31.0457 0 20 0C8.9543 0 0 8.9543 0 20C0 31.0457 8.9543 40 20 40C31.0457 40 40 31.0457 40 20Z" fill="#3B00B9"/>
<path fill-rule="evenodd" clip-rule="evenodd" d="M4.4902 21.1523C5.05192 28.8238 11.1779 34.9498 18.8494 35.5115V37.2441C10.2231 36.6761 3.32562 29.7786 2.75781 21.1523H4.4902Z" fill="url(#paint0_linear_13884_3863)"/>
<path fill-rule="evenodd" clip-rule="evenodd" d="M18.8416 4.48043C11.1701 5.04213 5.04408 11.1682 4.48238 18.8397H2.75C3.31778 10.2133 10.2153 3.31583 18.8416 2.74805V4.48043Z" fill="#29ABE2"/>
<path fill-rule="evenodd" clip-rule="evenodd" d="M35.5076 18.8313C34.9459 11.1599 28.8199 5.03381 21.1484 4.47211V2.73975C29.7747 3.30753 36.6722 10.205 37.2399 18.8313H35.5076Z" fill="url(#paint1_linear_13884_3863)"/>
<path fill-rule="evenodd" clip-rule="evenodd" d="M21.1641 35.5032C28.8355 34.9416 34.9615 28.8156 35.5234 21.144H37.2557C36.6878 29.7704 29.7905 36.6679 21.1641 37.2356V35.5032Z" fill="#29ABE2"/>
<path d="M24.4448 22.5586C24.4448 20.2018 23.0305 19.3936 20.2017 19.0558C18.1811 18.7858 17.777 18.2476 17.777 17.3052C17.777 16.3628 18.4511 15.7566 19.7976 15.7566C21.0099 15.7566 21.684 16.1607 22.0202 17.171C22.0881 17.3731 22.2901 17.5072 22.4922 17.5072H23.5703C23.8403 17.5072 24.0423 17.3052 24.0423 17.0352V16.9673C23.7724 15.4851 22.5601 14.3406 21.0115 14.2065V12.59C21.0115 12.3201 20.8095 12.118 20.4732 12.0518H19.463C19.193 12.0518 18.991 12.2538 18.9247 12.59V14.1386C16.9041 14.4085 15.6239 15.755 15.6239 17.4393C15.6239 19.662 16.9704 20.5381 19.7992 20.8743C21.6856 21.2105 22.2917 21.6146 22.2917 22.6928C22.2917 23.7709 21.3494 24.5113 20.0691 24.5113C18.3185 24.5113 17.7124 23.7709 17.5103 22.7607C17.4424 22.4907 17.2404 22.3566 17.0383 22.3566H15.8939C15.6239 22.3566 15.4219 22.5586 15.4219 22.8286V22.8964C15.6918 24.5808 16.7684 25.7931 18.991 26.1293V27.7458C18.991 28.0157 19.193 28.2179 19.5292 28.2839H20.5395C20.8095 28.2839 21.0115 28.082 21.0778 27.7458V26.1293C23.0967 25.7915 24.4448 24.3771 24.4448 22.5586Z" fill="white"/>
<path d="M16.5654 29.6307C11.312 27.7444 8.6174 21.8848 10.5717 16.6992C11.582 13.8705 13.8046 11.7158 16.5654 10.7055C16.8354 10.5713 16.9695 10.3693 16.9695 10.0314V9.08905C16.9695 8.81911 16.8354 8.61706 16.5654 8.55078C16.4975 8.55078 16.3634 8.55078 16.2955 8.61867C9.89762 10.6392 6.3948 17.4412 8.41535 23.8407C9.62768 27.6118 12.5243 30.5085 16.2955 31.7208C16.5654 31.8551 16.8338 31.7208 16.9017 31.451C16.9695 31.383 16.9695 31.3167 16.9695 31.1808V30.2386C16.9695 30.0348 16.7675 29.7666 16.5654 29.6307ZM23.7036 8.61706C23.4337 8.48289 23.1653 8.61706 23.0974 8.887C23.0295 8.95489 23.0295 9.02116 23.0295 9.15694V10.0993C23.0295 10.3693 23.2316 10.6376 23.4337 10.7734C28.6872 12.6598 31.3817 18.5194 29.4275 23.7049C28.417 26.5337 26.1945 28.6885 23.4337 29.6986C23.1637 29.8329 23.0295 30.0348 23.0295 30.3726V31.3151C23.0295 31.5849 23.1637 31.7871 23.4337 31.8534C23.5015 31.8534 23.6357 31.8534 23.7036 31.7855C30.1014 29.7649 33.6042 22.9629 31.5836 16.5635C30.3713 12.726 27.4086 9.82938 23.7036 8.61706Z" fill="white"/>
</g>
<defs>
<linearGradient id="paint0_linear_13884_3863" x1="14.6518" y1="33.6413" x2="3.84705" y2="24.5423" gradientUnits="userSpaceOnUse">
<stop offset="0.21" stop-color="#ED1E79"/>
<stop offset="1" stop-color="#522785"/>
</linearGradient>
<linearGradient id="paint1_linear_13884_3863" x1="33.0511" y1="15.2335" x2="22.2465" y2="6.13466" gradientUnits="userSpaceOnUse">
<stop offset="0.21" stop-color="#F15A24"/>
<stop offset="0.6841" stop-color="#FBB03B"/>
</linearGradient>
<clipPath id="clip0_13884_3863">
<rect width="40" height="40" fill="white"/>
</clipPath>
</defs>
</svg>
