<svg width="40" height="40" viewBox="0 0 40 40" fill="none" xmlns="http://www.w3.org/2000/svg">
<circle cx="20" cy="20" r="20" fill="white"/>
<circle cx="20" cy="20" r="18.75" stroke="white" stroke-opacity="0.1" stroke-width="2.5"/>
<path d="M16.3393 23.8473V16.1213C16.3393 15.901 16.4219 15.6835 16.5871 15.5376C16.7193 15.4219 16.8762 15.3614 17.058 15.3614H27.9504V11.0028H27.7852C26.6866 11.0028 25.7945 11.8949 25.7945 12.9935V13.0292C25.7945 13.5717 25.376 14.048 24.8335 14.0618C24.2746 14.0755 23.8203 13.6295 23.8203 13.0733V12.9769C23.8203 11.8866 22.9365 11 21.8434 11H15.651C14.9516 11 14.3266 11.1569 13.7732 11.4708C13.2198 11.7847 12.7847 12.2198 12.4708 12.7732C12.1569 13.3266 12 13.9516 12 14.651V25.2433C12 25.9426 12.1569 26.5677 12.4708 27.1211C12.7847 27.6745 13.2198 28.1095 13.7732 28.4234C14.3266 28.7373 14.9516 28.8943 15.651 28.8943H27.9531V24.5549H17.102C16.8818 24.5549 16.6642 24.4723 16.5183 24.3071C16.4027 24.175 16.3421 24.018 16.3421 23.8363L16.3393 23.8473Z" fill="#FF2D2E"/>
</svg>
