<svg width="32" height="33" viewBox="0 0 32 33" fill="none" xmlns="http://www.w3.org/2000/svg">
<g clip-path="url(#clip0_4701_38140)">
<path d="M16 32.9007C24.8366 32.9007 32 25.7372 32 16.9007C32 8.06409 24.8366 0.90065 16 0.90065C7.16344 0.90065 0 8.06409 0 16.9007C0 25.7372 7.16344 32.9007 16 32.9007Z" fill="#E6007A"/>
<path d="M16.272 7.52565C12.565 7.52565 9.536 10.5377 9.536 14.2617C9.536 15.0107 9.66 15.7417 9.892 16.4537C9.97412 16.6887 10.1453 16.8821 10.3686 16.9923C10.5919 17.1025 10.8495 17.1205 11.086 17.0427C11.3209 16.9603 11.5141 16.7891 11.624 16.5658C11.734 16.3425 11.7519 16.085 11.674 15.8486C11.4785 15.2935 11.3879 14.7069 11.407 14.1187C11.478 11.6067 13.51 9.53865 16.023 9.41465C16.6813 9.38006 17.3397 9.47975 17.9582 9.70763C18.5767 9.93552 19.1424 10.2868 19.6209 10.7402C20.0994 11.1936 20.4806 11.7396 20.7414 12.345C21.0022 12.9504 21.1371 13.6025 21.138 14.2617C21.1365 15.5013 20.6616 16.6936 19.8103 17.5947C18.9589 18.4958 17.7956 19.0377 16.558 19.1096C16.558 19.1096 15.613 19.1627 15.15 19.2346C14.918 19.2696 14.74 19.3057 14.615 19.3237C14.561 19.3417 14.508 19.2877 14.525 19.2337L14.686 18.4506L15.559 14.4227C15.6099 14.1818 15.5636 13.9306 15.4303 13.7237C15.297 13.5168 15.0873 13.3708 14.847 13.3176C14.606 13.2668 14.3547 13.3132 14.1477 13.4467C13.9408 13.5803 13.795 13.7901 13.742 14.0307C13.742 14.0307 11.639 23.8326 11.621 23.9396C11.5701 24.1806 11.6165 24.432 11.7501 24.6389C11.8836 24.8458 12.0935 24.9917 12.334 25.0446C12.575 25.0955 12.8263 25.0491 13.0333 24.9156C13.2402 24.782 13.386 24.5722 13.439 24.3316C13.456 24.2246 13.742 22.9237 13.742 22.9237C13.8432 22.4467 14.0893 22.0126 14.4465 21.6807C14.8038 21.3489 15.2549 21.1355 15.738 21.0697C16.0876 21.0314 16.438 21.0017 16.789 20.9806C18.481 20.8488 20.0611 20.0838 21.214 18.8385C22.3669 17.5931 23.0078 15.9588 23.009 14.2617C23.009 10.5377 19.979 7.52565 16.272 7.52565ZM16.753 23.0306C16.6079 22.9994 16.458 22.9972 16.3121 23.0242C16.1661 23.0512 16.027 23.107 15.9027 23.1882C15.7784 23.2694 15.6715 23.3744 15.5882 23.4972C15.5048 23.6201 15.4466 23.7582 15.417 23.9037C15.292 24.5097 15.667 25.1157 16.29 25.2407C16.4352 25.2721 16.5853 25.2743 16.7314 25.2473C16.8775 25.2203 17.0168 25.1645 17.1412 25.0832C17.2656 25.0019 17.3726 24.8967 17.456 24.7736C17.5394 24.6506 17.5975 24.5123 17.627 24.3666C17.751 23.7437 17.377 23.1546 16.753 23.0306Z" fill="white"/>
</g>
<defs>
<clipPath id="clip0_4701_38140">
<rect width="32" height="32" fill="white" transform="translate(0 0.90065)"/>
</clipPath>
</defs>
</svg>
