<svg width="40" height="40" viewBox="0 0 40 40" fill="none" xmlns="http://www.w3.org/2000/svg">
<g clip-path="url(#clip0_12742_23874)">
<path d="M20 40C31.0457 40 40 31.0457 40 20C40 8.9543 31.0457 0 20 0C8.9543 0 0 8.9543 0 20C0 31.0457 8.9543 40 20 40Z" fill="#6747ED"/>
<path fill-rule="evenodd" clip-rule="evenodd" d="M19.7051 22.5833C16.7467 22.5833 14.3717 20.2083 14.3717 17.25C14.3717 14.2917 16.7467 11.9167 19.7051 11.9167C22.6634 11.9167 25.0384 14.2917 25.0384 17.25C25.0384 20.2083 22.6634 22.5833 19.7051 22.5833ZM19.7051 9.25C24.1217 9.25 27.7051 12.8333 27.7051 17.25C27.7051 21.6667 24.1217 25.25 19.7051 25.25C15.2884 25.25 11.7051 21.6667 11.7051 17.25C11.7051 12.8333 15.2884 9.25 19.7051 9.25ZM27.3301 25.6667C27.8717 26.2083 27.8717 27.0417 27.3301 27.5417L21.9967 32.875C21.4551 33.4167 20.6217 33.4167 20.1217 32.875C19.5801 32.3333 19.5801 31.5 20.1217 31L25.4551 25.6667C25.9551 25.125 26.8301 25.125 27.3301 25.6667ZM30.4134 10.5833C30.4134 11.3333 29.8301 11.9167 29.0801 11.9167C28.3301 11.9167 27.7467 11.3333 27.7467 10.5833C27.7467 9.83334 28.3301 9.25 29.0801 9.25C29.7884 9.25 30.4134 9.83334 30.4134 10.5833Z" fill="white"/>
</g>
<defs>
<clipPath id="clip0_12742_23874">
<rect width="40" height="40" fill="white"/>
</clipPath>
</defs>
</svg>
