<svg width="40" height="40" viewBox="0 0 40 40" fill="none" xmlns="http://www.w3.org/2000/svg">
<circle cx="20" cy="20" r="20" fill="url(#paint0_linear_9981_27965)"/>
<circle cx="20" cy="20" r="19.5" stroke="white" stroke-opacity="0.1"/>
<path d="M19.5229 29.9685C19.8023 30.1242 20.1548 30.0225 20.3073 29.7431C20.4311 29.5176 20.5709 29.2635 20.6693 29.0889C20.8853 28.7014 21.1012 28.3076 21.3108 27.9075C21.5204 27.5041 21.7237 27.0913 21.9015 26.6594C22.0794 26.2274 22.2318 25.7701 22.3271 25.2938C22.4224 24.8206 22.4637 24.3315 22.4478 23.8519C22.4351 23.3724 22.3684 22.8992 22.2731 22.4451C22.1778 21.9878 22.0508 21.5431 21.9079 21.1081L21.8539 20.9461L21.7967 20.7841L21.6824 20.4634C21.5998 20.2538 21.5204 20.0378 21.4347 19.8314L21.3077 19.517L21.1743 19.2057C21.1393 19.1232 21.1012 19.0406 21.0663 18.9549C21.0536 18.9295 21.0695 18.9009 21.0949 18.8945C21.2918 18.8342 21.4887 18.7707 21.6824 18.6976C22.4224 18.434 23.1528 18.1196 23.8388 17.7226C24.0103 17.621 24.1786 17.5162 24.3469 17.4114C24.512 17.3003 24.674 17.1859 24.8392 17.0716L25.0742 16.8874C25.1536 16.8239 25.233 16.7667 25.306 16.6969C25.4553 16.5635 25.6109 16.4364 25.7506 16.2904C26.0396 16.0141 26.3 15.7028 26.5414 15.3789C26.5986 15.2963 26.6589 15.2169 26.7161 15.1312L26.878 14.8739C26.878 14.8739 26.913 14.8073 26.9574 14.7247C27.0432 14.5659 26.9955 14.369 26.8494 14.2674C26.6779 14.1499 26.4429 14.2039 26.3413 14.3849L26.2746 14.5056C26.2302 14.5691 26.1603 14.604 26.0872 14.604C26.0364 14.604 25.9856 14.5881 25.9443 14.55L20.8599 10.2849C20.7709 10.2087 20.736 10.088 20.7582 9.9705C20.7805 9.84982 20.7392 9.72279 20.6344 9.64022C20.4947 9.52907 20.2723 9.55765 20.1517 9.68786C20.1294 9.71326 20.1167 9.72914 20.0977 9.7482C20.0754 9.7736 20.0564 9.79583 20.0373 9.82124C19.9992 9.86888 19.9611 9.91969 19.9262 9.96733C19.8913 10.015 19.8563 10.0658 19.8214 10.1166C19.7896 10.1674 19.7579 10.2182 19.7261 10.269C19.6023 10.4755 19.4943 10.6882 19.399 10.9042C19.2085 11.3361 19.0751 11.7902 18.9798 12.2476C18.7988 13.1654 18.7924 14.1086 18.9099 15.0232C18.9258 15.1375 18.9385 15.2519 18.9576 15.3662C18.9766 15.4805 18.9957 15.5949 19.0147 15.706C19.0624 15.9315 19.1037 16.157 19.164 16.3793C19.272 16.8271 19.4117 17.2622 19.561 17.6941L19.6816 18.0148C19.7134 18.1006 19.7452 18.1863 19.7801 18.2689C19.7896 18.2943 19.7769 18.3229 19.7515 18.3292C19.6372 18.361 19.345 18.4372 19.1989 18.4817C18.4526 18.6944 17.7063 18.939 16.9727 19.2502C16.6075 19.4058 16.2454 19.5805 15.8897 19.7837C15.5372 19.9838 15.1942 20.2157 14.8703 20.4792C14.5495 20.7428 14.251 21.0414 13.9874 21.3653C13.7238 21.6892 13.492 22.0354 13.2919 22.3879C12.8918 23.0961 12.5869 23.8202 12.2947 24.5347C12.2947 24.5379 12.2915 24.5443 12.2884 24.5506C12.174 24.8555 12.3233 25.1953 12.6282 25.3128C12.8568 25.3986 13.1046 25.335 13.2633 25.1699C13.3364 25.0937 13.4539 25.0715 13.546 25.1286L19.0497 28.387C19.3228 28.549 19.4276 28.8983 19.2783 29.181C19.2751 29.1841 19.2751 29.1873 19.272 29.1905C19.1259 29.4668 19.2339 29.8066 19.5038 29.959C19.5133 29.9622 19.5165 29.9654 19.5229 29.9685ZM19.9738 11.425C20.0024 11.3456 20.0342 11.2662 20.0627 11.1868C20.1136 11.0566 20.2152 10.8566 20.2978 10.7041C20.3581 10.5898 20.5105 10.5612 20.6122 10.6438L24.5184 13.8005C24.601 13.8704 24.5152 14.0006 24.4168 13.9498L20.1136 11.7807C19.9833 11.714 19.9262 11.5616 19.9738 11.425ZM19.7229 12.3873C19.7229 12.3809 19.7261 12.3746 19.7261 12.3682C19.7388 12.3015 19.8182 12.2698 19.8722 12.3142L23.2735 15.1439C23.3561 15.2138 23.2703 15.344 23.175 15.2932L19.7833 13.5465C19.6816 13.4956 19.6213 13.3877 19.6277 13.2765C19.6404 12.978 19.6689 12.6795 19.7229 12.3873ZM19.6404 19.3232C19.7642 19.2851 19.9135 19.2407 20.0088 19.2121C20.0945 19.1867 20.1866 19.2312 20.2215 19.3137C20.2565 19.3963 20.2914 19.4789 20.3232 19.5614L20.447 19.8663L20.5645 20.1712C20.5804 20.2125 20.5963 20.2538 20.6122 20.295C20.6344 20.3554 20.5613 20.403 20.5137 20.3617L19.5959 19.5297C19.526 19.463 19.5514 19.3518 19.6404 19.3232ZM16.6646 20.5237C16.9123 20.3903 17.1918 20.2506 17.322 20.1839C17.3697 20.1617 17.4268 20.1648 17.4649 20.1998L20.0786 22.2831C20.1644 22.3498 20.0818 22.48 19.9833 22.4355L16.6742 20.8445C16.5408 20.7809 16.5376 20.5936 16.6646 20.5237ZM14.9179 21.9433C15.1117 21.7051 15.3213 21.4828 15.5563 21.2827C15.569 21.2732 15.5785 21.2637 15.5912 21.2541C15.6611 21.197 15.7595 21.197 15.8294 21.2573L19.7737 24.7571C19.8531 24.8269 19.7642 24.954 19.6721 24.9031L15.0164 22.4197C14.8449 22.3276 14.7941 22.0957 14.9179 21.9433ZM18.062 27.1548L13.9049 24.5983C13.7334 24.4935 13.6635 24.2775 13.7397 24.0933C13.8763 23.7567 14.0224 23.4296 14.1812 23.1152C14.2224 23.0326 14.3336 23.0135 14.4003 23.0802L18.1763 27.0182C18.2462 27.0913 18.1509 27.2088 18.062 27.1548ZM20.7837 26.4942C20.6439 26.7896 20.4883 27.0849 20.3295 27.3771L20.3263 27.3834C20.1294 27.7391 19.6435 27.7995 19.3672 27.5009L15.7214 23.5947C15.6516 23.5217 15.7373 23.4073 15.8262 23.4518L20.5423 25.7924C20.7995 25.9226 20.9075 26.2338 20.7837 26.4942ZM21.4252 23.8647V23.8678C21.4283 24.2743 21.3871 24.6745 21.295 25.0683V25.0715C21.2505 25.2747 20.9996 25.3509 20.8472 25.208L17.3284 21.9052C17.2553 21.8353 17.3347 21.7178 17.4268 21.7559L21.0854 23.3565C21.2886 23.4454 21.422 23.6455 21.4252 23.8647ZM21.2981 22.6356C21.3077 22.6928 21.241 22.7309 21.1997 22.6928L18.1287 19.9838C18.0779 19.9394 18.0937 19.8568 18.1541 19.8314C18.3256 19.7647 18.4971 19.7012 18.6717 19.6408C18.7289 19.6218 18.7924 19.6313 18.8401 19.6662L20.8091 21.1462C20.8916 21.2097 20.9551 21.2986 20.9837 21.3971C21.1171 21.8067 21.2219 22.2228 21.2981 22.6356ZM21.765 17.7417C21.6411 17.7862 21.5173 17.8274 21.3934 17.8687C21.187 17.9418 20.9774 18.0021 20.7678 18.0593C20.7106 18.0752 20.6534 18.0466 20.628 17.9926C20.5836 17.8941 20.5455 17.7925 20.5042 17.6941L20.3835 17.3955C20.3422 17.278 20.2978 17.1605 20.2565 17.043C20.2215 16.9446 20.3232 16.8525 20.4184 16.8969L21.7745 17.5257C21.873 17.567 21.8666 17.7068 21.765 17.7417ZM22.8797 17.2876C22.7717 17.3384 22.6606 17.3892 22.5494 17.4368C22.4986 17.4591 22.4414 17.4559 22.3938 17.4305L20.2438 16.3348C20.085 16.2522 19.9675 16.1093 19.923 15.9347C19.8913 15.814 19.8563 15.6711 19.8309 15.5409C19.8087 15.4361 19.7896 15.3313 19.7706 15.2265C19.7483 15.1217 19.7325 15.0169 19.7198 14.9121C19.6944 14.7469 19.6753 14.5786 19.6562 14.4135C19.6499 14.3309 19.7452 14.2832 19.8055 14.3372L22.9051 17.1129C22.9623 17.1637 22.9496 17.2558 22.8797 17.2876ZM24.3755 16.4301C24.223 16.5317 24.0706 16.6333 23.915 16.7318C23.7562 16.8239 23.5974 16.916 23.4386 17.0081C23.41 17.024 23.3815 17.0303 23.3497 17.0303C23.3052 17.0303 23.2576 17.0144 23.2227 16.9795L20.8694 14.7596C20.7932 14.6897 20.8789 14.5691 20.971 14.6135L24.3564 16.2554C24.4295 16.2872 24.439 16.3856 24.3755 16.4301ZM25.7062 15.2233C25.5505 15.4075 25.3727 15.6076 25.2234 15.7441C25.144 15.8235 25.0615 15.8934 24.9757 15.9664C24.9058 16.0236 24.8042 16.0236 24.7375 15.9632L21.5173 13.1685C21.4379 13.0987 21.5204 12.9716 21.6157 13.0193L25.6299 14.8739C25.7633 14.9375 25.8014 15.1121 25.7062 15.2233Z" fill="white"/>
<defs>
<linearGradient id="paint0_linear_9981_27965" x1="33.5" y1="3" x2="7" y2="35.5" gradientUnits="userSpaceOnUse">
<stop stop-color="#0E141B"/>
<stop offset="1" stop-color="#363D46"/>
</linearGradient>
</defs>
</svg>
