<svg width="40" height="40" viewBox="0 0 40 40" fill="none" xmlns="http://www.w3.org/2000/svg">
<g clip-path="url(#clip0_10948_32215)">
<path d="M20 0C31.0444 0 40 8.95556 40 20C40 31.0444 31.0444 40 20 40C8.95556 40 0 31.0444 0 20C0 8.95556 8.95556 0 20 0Z" fill="#3B00B9"/>
<path fill-rule="evenodd" clip-rule="evenodd" d="M4.48919 21.1543C5.04475 28.821 11.1781 34.9543 18.8447 35.5099V37.2432C10.2225 36.6654 3.33364 29.7765 2.75586 21.1543H4.48919Z" fill="url(#paint0_linear_10948_32215)"/>
<path fill-rule="evenodd" clip-rule="evenodd" d="M18.8447 4.48724C11.1781 5.0428 5.04475 11.1761 4.48919 18.8428H2.75586C3.31141 10.2206 10.2225 3.30946 18.8447 2.75391V4.48724Z" fill="#29ABE2"/>
<path fill-rule="evenodd" clip-rule="evenodd" d="M35.5118 18.8213C34.9563 11.1546 28.8229 5.02131 21.1562 4.46576V2.73242C29.7785 3.3102 36.6896 10.1991 37.2451 18.8213H35.5118Z" fill="url(#paint1_linear_10948_32215)"/>
<path fill-rule="evenodd" clip-rule="evenodd" d="M21.1562 35.5099C28.8229 34.9543 34.9563 28.821 35.5118 21.1543H37.2451C36.6896 29.7765 29.7785 36.6654 21.1562 37.2432V35.5099Z" fill="#29ABE2"/>
<path d="M20.0449 8.48828V16.8883L27.156 20.0661L20.0449 8.48828Z" fill="white" fill-opacity="0.6"/>
<path d="M20.0447 8.48828L12.9336 20.0661L20.0447 16.8883V8.48828Z" fill="white"/>
<path d="M20.0449 25.5103V31.2214L27.156 21.377L20.0449 25.5103Z" fill="white" fill-opacity="0.6"/>
<path d="M20.0447 31.2214V25.5103L12.9336 21.377L20.0447 31.2214Z" fill="white"/>
<path d="M20.0449 24.1998L27.156 20.0665L20.0449 16.8887V24.1998Z" fill="white" fill-opacity="0.2"/>
<path d="M12.9551 20.0657L20.0662 24.199V16.9102L12.9551 20.0657Z" fill="white" fill-opacity="0.6"/>
</g>
<defs>
<linearGradient id="paint0_linear_10948_32215" x1="14.5241" y1="33.7901" x2="3.71941" y2="24.691" gradientUnits="userSpaceOnUse">
<stop offset="0.21" stop-color="#ED1E79"/>
<stop offset="1" stop-color="#522785"/>
</linearGradient>
<linearGradient id="paint1_linear_10948_32215" x1="34.37" y1="13.6718" x2="23.5654" y2="4.57286" gradientUnits="userSpaceOnUse">
<stop offset="0.21" stop-color="#F15A24"/>
<stop offset="0.684" stop-color="#FBB03B"/>
</linearGradient>
<clipPath id="clip0_10948_32215">
<rect width="40" height="40" fill="white"/>
</clipPath>
</defs>
</svg>
