<svg width="32" height="32" viewBox="0 0 32 32" fill="none" xmlns="http://www.w3.org/2000/svg">
<circle cx="16" cy="16" r="16" fill="url(#paint0_linear_5792_63242)"/>
<path d="M15.3961 25.743C15.6803 25.9012 16.0388 25.7979 16.1938 25.5137C16.3198 25.2844 16.4619 25.026 16.562 24.8484C16.7816 24.4544 17.0013 24.0539 17.2144 23.6469C17.4276 23.2368 17.6343 22.8169 17.8151 22.3777C17.996 21.9385 18.151 21.4734 18.2479 20.989C18.3448 20.5077 18.3868 20.0104 18.3706 19.5227C18.3577 19.035 18.2899 18.5538 18.193 18.092C18.0961 17.6269 17.9669 17.1748 17.8216 16.7323L17.7667 16.5676L17.7085 16.4029L17.5923 16.0767C17.5083 15.8635 17.4276 15.6439 17.3404 15.434L17.2112 15.1143L17.0755 14.7978C17.04 14.7138 17.0013 14.6298 16.9657 14.5426C16.9528 14.5168 16.969 14.4877 16.9948 14.4812C17.195 14.4199 17.3953 14.3553 17.5923 14.281C18.3448 14.0129 19.0876 13.6932 19.7852 13.2895C19.9596 13.1862 20.1308 13.0796 20.3019 12.973C20.4699 12.86 20.6346 12.7437 20.8025 12.6274L21.0415 12.4401C21.1223 12.3755 21.203 12.3174 21.2773 12.2463C21.4291 12.1107 21.5873 11.9815 21.7294 11.8329C22.0233 11.552 22.2882 11.2355 22.5336 10.906C22.5917 10.8221 22.6531 10.7413 22.7112 10.6541L22.876 10.3925C22.876 10.3925 22.9115 10.3247 22.9567 10.2407C23.0439 10.0793 22.9955 9.87902 22.8469 9.77567C22.6725 9.65618 22.4335 9.71108 22.3301 9.89517L22.2623 10.0179C22.2171 10.0825 22.1461 10.118 22.0718 10.118C22.0201 10.118 21.9684 10.1019 21.9264 10.0631L16.7558 5.72571C16.6654 5.6482 16.6298 5.52548 16.6525 5.40598C16.6751 5.28325 16.6331 5.15407 16.5265 5.0701C16.3844 4.95706 16.1583 4.98613 16.0356 5.11854C16.013 5.14438 16.0001 5.16053 15.9807 5.17991C15.9581 5.20574 15.9387 5.22835 15.9193 5.25419C15.8806 5.30263 15.8418 5.35431 15.8063 5.40275C15.7708 5.45119 15.7352 5.50287 15.6997 5.55454C15.6674 5.60622 15.6351 5.65789 15.6028 5.70957C15.4769 5.91949 15.3671 6.13588 15.2702 6.35549C15.0764 6.79472 14.9407 7.25656 14.8439 7.72163C14.6598 8.65499 14.6533 9.61419 14.7728 10.5443C14.789 10.6606 14.8019 10.7769 14.8213 10.8931C14.8406 11.0094 14.86 11.1257 14.8794 11.2387C14.9278 11.468 14.9698 11.6973 15.0312 11.9234C15.141 12.3788 15.2831 12.8212 15.4349 13.2604L15.5576 13.5866C15.5899 13.6738 15.6222 13.761 15.6577 13.845C15.6674 13.8708 15.6545 13.8999 15.6287 13.9064C15.5124 13.9387 15.2153 14.0162 15.0667 14.0614C14.3077 14.2778 13.5488 14.5265 12.8027 14.843C12.4313 15.0012 12.0631 15.1788 11.7014 15.3855C11.3429 15.589 10.9941 15.8248 10.6647 16.0928C10.3385 16.3609 10.0349 16.6645 9.76688 16.9939C9.49882 17.3233 9.26305 17.6754 9.05959 18.0338C8.65265 18.7541 8.34261 19.4904 8.04548 20.2171C8.04548 20.2203 8.04225 20.2268 8.03902 20.2332C7.92276 20.5433 8.07455 20.8888 8.38459 21.0083C8.61713 21.0955 8.86904 21.0309 9.03052 20.863C9.1048 20.7855 9.2243 20.7629 9.31796 20.821L14.9149 24.1346C15.1927 24.2993 15.2992 24.6546 15.1474 24.942C15.1442 24.9453 15.1442 24.9485 15.141 24.9517C14.9924 25.2327 15.1022 25.5783 15.3767 25.7333C15.3864 25.7365 15.3897 25.7397 15.3961 25.743ZM15.8547 6.88515C15.8838 6.80441 15.9161 6.72367 15.9452 6.64293C15.9968 6.51051 16.1002 6.30705 16.1842 6.15203C16.2455 6.03576 16.4005 6.00669 16.5039 6.09066L20.4763 9.30092C20.5603 9.37197 20.4731 9.50438 20.373 9.45271L15.9968 7.24687C15.8644 7.17905 15.8063 7.02403 15.8547 6.88515ZM15.5996 7.86373C15.5996 7.85727 15.6028 7.85081 15.6028 7.84435C15.6157 7.77653 15.6965 7.74423 15.7514 7.78945L19.2103 10.6671C19.2943 10.7381 19.2071 10.8705 19.1102 10.8188L15.661 9.04255C15.5576 8.99087 15.4962 8.88106 15.5027 8.76803C15.5156 8.46444 15.5447 8.16086 15.5996 7.86373ZM15.5156 14.9172C15.6416 14.8785 15.7934 14.8333 15.8903 14.8042C15.9775 14.7784 16.0711 14.8236 16.1066 14.9076C16.1422 14.9915 16.1777 15.0755 16.21 15.1595L16.3359 15.4695L16.4554 15.7796C16.4716 15.8215 16.4877 15.8635 16.5039 15.9055C16.5265 15.9669 16.4522 16.0153 16.4038 15.9733L15.4704 15.1272C15.3994 15.0594 15.4252 14.9463 15.5156 14.9172ZM12.4895 16.138C12.7414 16.0024 13.0256 15.8603 13.158 15.7925C13.2064 15.7699 13.2646 15.7731 13.3033 15.8086L15.9613 17.9273C16.0485 17.9951 15.9645 18.1275 15.8644 18.0823L12.4991 16.4642C12.3635 16.3996 12.3603 16.2091 12.4895 16.138ZM10.7132 17.5817C10.9102 17.3395 11.1233 17.1134 11.3623 16.9099C11.3752 16.9002 11.3849 16.8906 11.3978 16.8809C11.4689 16.8227 11.569 16.8227 11.6401 16.8841L15.6513 20.4431C15.732 20.5142 15.6416 20.6434 15.5479 20.5917L10.8133 18.0661C10.6389 17.9725 10.5872 17.7367 10.7132 17.5817ZM13.9105 22.8815L9.68291 20.2817C9.50851 20.1751 9.43745 19.9555 9.51497 19.7682C9.65384 19.4258 9.8024 19.0932 9.96388 18.7734C10.0059 18.6895 10.1189 18.6701 10.1867 18.7379L14.0268 22.7426C14.0978 22.8169 14.0009 22.9364 13.9105 22.8815ZM16.6783 22.2098C16.5362 22.5101 16.3779 22.8105 16.2165 23.1076L16.2132 23.1141C16.013 23.4758 15.5189 23.5371 15.2379 23.2336L11.5303 19.2611C11.4592 19.1868 11.5464 19.0706 11.6368 19.1158L16.4328 21.496C16.6944 21.6284 16.8042 21.9449 16.6783 22.2098ZM17.3307 19.5356V19.5389C17.3339 19.9522 17.2919 20.3592 17.1983 20.7597V20.7629C17.153 20.9696 16.8979 21.0471 16.7429 20.9018L13.1645 17.5429C13.0902 17.4719 13.1709 17.3524 13.2646 17.3911L16.9851 19.0189C17.1918 19.1093 17.3274 19.3128 17.3307 19.5356ZM17.2015 18.2858C17.2112 18.3439 17.1434 18.3826 17.1014 18.3439L13.9783 15.589C13.9266 15.5438 13.9428 15.4598 14.0042 15.434C14.1786 15.3662 14.353 15.3016 14.5306 15.2402C14.5887 15.2208 14.6533 15.2305 14.7018 15.266L16.7041 16.7711C16.7881 16.8356 16.8527 16.9261 16.8818 17.0262C17.0174 17.4428 17.124 17.8659 17.2015 18.2858ZM17.6762 13.3089C17.5503 13.3541 17.4243 13.3961 17.2984 13.4381C17.0885 13.5124 16.8753 13.5737 16.6621 13.6319C16.604 13.648 16.5459 13.6189 16.52 13.564C16.4748 13.4639 16.4361 13.3606 16.3941 13.2604L16.2714 12.9569C16.2294 12.8374 16.1842 12.7179 16.1422 12.5984C16.1066 12.4983 16.21 12.4046 16.3069 12.4498L17.6859 13.0893C17.7861 13.1313 17.7796 13.2734 17.6762 13.3089ZM18.8098 12.8471C18.7 12.8987 18.587 12.9504 18.474 12.9988C18.4223 13.0215 18.3642 13.0182 18.3157 12.9924L16.1293 11.8782C15.9678 11.7942 15.8483 11.6489 15.8031 11.4712C15.7708 11.3485 15.7352 11.2032 15.7094 11.0708C15.6868 10.9642 15.6674 10.8576 15.648 10.751C15.6254 10.6444 15.6093 10.5379 15.5964 10.4313C15.5705 10.2633 15.5511 10.0922 15.5318 9.92424C15.5253 9.84027 15.6222 9.79182 15.6836 9.84672L18.8357 12.6694C18.8938 12.7211 18.8809 12.8148 18.8098 12.8471ZM20.331 11.9751C20.176 12.0784 20.021 12.1817 19.8627 12.2819C19.7012 12.3755 19.5397 12.4692 19.3783 12.5628C19.3492 12.579 19.3201 12.5855 19.2878 12.5855C19.2426 12.5855 19.1942 12.5693 19.1586 12.5338L16.7655 10.2763C16.688 10.2052 16.7752 10.0825 16.8688 10.1277L20.3116 11.7974C20.3859 11.8297 20.3956 11.9298 20.331 11.9751ZM21.6842 10.7478C21.526 10.9351 21.3451 11.1386 21.1933 11.2775C21.1126 11.3582 21.0286 11.4292 20.9414 11.5035C20.8704 11.5617 20.767 11.5617 20.6992 11.5003L17.4243 8.65822C17.3436 8.58717 17.4276 8.45798 17.5245 8.50643L21.6067 10.3925C21.7424 10.4571 21.7811 10.6348 21.6842 10.7478Z" fill="white"/>
<defs>
<linearGradient id="paint0_linear_5792_63242" x1="37.2747" y1="16" x2="-1.84615" y2="16" gradientUnits="userSpaceOnUse">
<stop stop-color="#0FB0A2"/>
<stop offset="1" stop-color="#3366CC"/>
</linearGradient>
</defs>
</svg>
