<svg width="32" height="32" viewBox="0 0 32 32" fill="none" xmlns="http://www.w3.org/2000/svg">
<circle cx="16" cy="16" r="16" fill="#8247E5"/>
<path d="M21.3234 12.4098C20.9558 12.1997 20.4831 12.1997 20.0629 12.4098L17.1217 14.143L15.1258 15.246L12.2371 16.9792C11.8694 17.1893 11.3967 17.1893 10.9766 16.9792L8.71811 15.6136C8.35045 15.4036 8.08784 14.9834 8.08784 14.5107V11.8846C8.08784 11.4644 8.29793 11.0442 8.71811 10.7816L10.9766 9.46855C11.3442 9.25846 11.8169 9.25846 12.2371 9.46855L14.4956 10.8341C14.8632 11.0442 15.1258 11.4644 15.1258 11.9371V13.6703L17.1217 12.5148V10.7291C17.1217 10.3089 16.9116 9.88872 16.4914 9.62611L12.2896 7.15757C11.922 6.94748 11.4493 6.94748 11.0291 7.15757L6.72226 9.67863C6.30208 9.88872 6.092 10.3089 6.092 10.7291V15.6662C6.092 16.0863 6.30208 16.5065 6.72226 16.7691L10.9766 19.2377C11.3442 19.4478 11.8169 19.4478 12.2371 19.2377L15.1258 17.557L17.1217 16.4015L20.0104 14.7208C20.378 14.5107 20.8507 14.5107 21.2709 14.7208L23.5294 16.0338C23.897 16.2439 24.1597 16.6641 24.1597 17.1368V19.7629C24.1597 20.1831 23.9496 20.6033 23.5294 20.8659L21.3234 22.1789C20.9558 22.389 20.4831 22.389 20.0629 22.1789L17.8045 20.8659C17.4368 20.6558 17.1742 20.2356 17.1742 19.7629V18.0822L15.1783 19.2377V20.9709C15.1783 21.3911 15.3884 21.8113 15.8086 22.0739L20.0629 24.5424C20.4306 24.7525 20.9033 24.7525 21.3234 24.5424L25.5778 22.0739C25.9454 21.8638 26.208 21.4436 26.208 20.9709V15.9813C26.208 15.5611 25.9979 15.1409 25.5778 14.8783L21.3234 12.4098Z" fill="white"/>
</svg>
