<svg width="32" height="32" viewBox="0 0 32 32" fill="none" xmlns="http://www.w3.org/2000/svg">
<circle cx="16" cy="16" r="16" fill="#FF007A"/>
<path d="M12.0196 6.14397C11.7326 6.10218 11.719 6.08824 11.8556 6.07431C12.1153 6.03252 12.7166 6.08824 13.1402 6.18577C14.1242 6.42261 15.0125 7.03561 15.9554 8.10837L16.2014 8.40094L16.5567 8.34521C18.0737 8.09444 19.6316 8.28948 20.9299 8.90249C21.2852 9.06967 21.8455 9.40403 21.9138 9.48762C21.9412 9.51549 21.9822 9.6966 22.0095 9.87772C22.1052 10.5325 22.0642 11.0201 21.8592 11.3963C21.7498 11.6053 21.7498 11.661 21.8182 11.8421C21.8728 11.9814 22.0368 12.079 22.1872 12.079C22.5151 12.079 22.8568 11.5495 23.0208 10.8112L23.0891 10.5186L23.2121 10.6579C23.9091 11.452 24.4557 12.5526 24.5377 13.3328L24.5651 13.5418L24.4421 13.3607C24.2371 13.0403 24.0457 12.8313 23.7861 12.6502C23.3214 12.3297 22.8295 12.2322 21.5312 12.1625C20.3559 12.0929 19.6863 11.9954 19.0303 11.7725C17.9097 11.3963 17.3357 10.9087 16.0101 9.11146C15.4225 8.31735 15.0535 7.88546 14.6845 7.52323C13.8782 6.72911 13.0719 6.31115 12.0196 6.14397Z" fill="white"/>
<path d="M22.2008 7.9133C22.2282 7.38389 22.2965 7.03559 22.4468 6.71516C22.5015 6.58977 22.5561 6.47832 22.5698 6.47832C22.5835 6.47832 22.5561 6.57584 22.5151 6.6873C22.4058 6.9938 22.3921 7.42569 22.4605 7.9133C22.5561 8.54024 22.5971 8.62383 23.2531 9.30649C23.5538 9.62692 23.9091 10.0309 24.0457 10.1981L24.2781 10.5046L24.0457 10.2817C23.7588 10.0031 23.1028 9.47367 22.9525 9.40401C22.8568 9.34829 22.8431 9.34829 22.7748 9.41795C22.7201 9.47367 22.7065 9.55726 22.7065 9.96129C22.6928 10.5882 22.6108 10.9783 22.4058 11.3823C22.2965 11.5913 22.2828 11.5495 22.3785 11.3127C22.4468 11.1316 22.4605 11.048 22.4605 10.4489C22.4605 9.23683 22.3238 8.94426 21.4902 8.45665C21.2852 8.33126 20.9299 8.15014 20.7249 8.05262C20.5062 7.9551 20.3422 7.87151 20.3559 7.87151C20.3832 7.84364 21.1895 8.08048 21.5039 8.2198C21.9822 8.41485 22.0642 8.42878 22.1188 8.41485C22.1598 8.37305 22.1872 8.2616 22.2008 7.9133Z" fill="white"/>
<path d="M12.5799 9.98916C12.0059 9.18111 11.637 7.92724 11.719 6.9938L11.7463 6.70123L11.8829 6.7291C12.1289 6.77089 12.5526 6.93808 12.7576 7.06346C13.3042 7.39783 13.5502 7.85758 13.7825 8.99999C13.8509 9.33436 13.9465 9.72445 13.9875 9.84984C14.0559 10.0588 14.3155 10.5464 14.5342 10.8529C14.6845 11.0758 14.5888 11.1873 14.2472 11.1594C13.7279 11.1037 13.0309 10.6161 12.5799 9.98916Z" fill="white"/>
<path d="M21.5039 16.0495C18.798 14.935 17.8414 13.9737 17.8414 12.3436C17.8414 12.1068 17.855 11.9118 17.855 11.9118C17.8687 11.9118 17.9643 11.9954 18.0873 12.0929C18.634 12.5387 19.249 12.7337 20.9572 12.9845C21.9548 13.1378 22.5288 13.2492 23.0481 13.4303C24.7017 13.9876 25.7267 15.13 25.9727 16.6765C26.041 17.1223 26 17.9721 25.8907 18.4179C25.795 18.7662 25.5217 19.4071 25.4534 19.421C25.4397 19.421 25.4124 19.3514 25.4124 19.2399C25.385 18.6548 25.098 18.0975 24.6197 17.6656C24.0458 17.1641 23.3078 16.7879 21.5039 16.0495Z" fill="white"/>
<path d="M19.5906 16.5093C19.5633 16.3003 19.495 16.0356 19.454 15.9241L19.3856 15.7152L19.5086 15.8684C19.6863 16.0774 19.8229 16.3282 19.9459 16.6765C20.0416 16.9412 20.0416 17.0248 20.0416 17.4567C20.0416 17.8746 20.0279 17.9721 19.9459 18.209C19.8093 18.5851 19.6453 18.8498 19.372 19.1424C18.88 19.6579 18.2377 19.9365 17.3221 20.0619C17.1581 20.0758 16.6934 20.1176 16.2834 20.1455C15.2585 20.2012 14.5752 20.3127 13.9602 20.5356C13.8782 20.5635 13.7962 20.5913 13.7825 20.5774C13.7552 20.5495 14.1789 20.2988 14.5205 20.1316C14.9988 19.8947 15.4908 19.7693 16.5704 19.5743C17.1034 19.4907 17.65 19.3793 17.7867 19.3235C19.1396 18.8916 19.8093 17.8189 19.5906 16.5093Z" fill="white"/>
<path d="M20.8342 18.7523C20.4789 17.9582 20.3969 17.2059 20.5882 16.4954C20.6156 16.4257 20.6429 16.356 20.6702 16.356C20.6976 16.356 20.7796 16.3978 20.8616 16.4536C21.0255 16.565 21.3672 16.7601 22.2418 17.2477C23.3488 17.8607 23.9774 18.3344 24.4147 18.8777C24.7974 19.3514 25.0297 19.8947 25.139 20.5635C25.2074 20.9396 25.1664 21.8452 25.0707 22.2214C24.77 23.4056 24.0867 24.353 23.0891 24.8963C22.9388 24.9799 22.8158 25.0356 22.8021 25.0356C22.7885 25.0356 22.8431 24.8963 22.9251 24.7291C23.2531 24.0186 23.2941 23.3359 23.0481 22.5697C22.8978 22.096 22.5835 21.5248 21.9548 20.5635C21.2032 19.4489 21.0255 19.1564 20.8342 18.7523Z" fill="white"/>
<path d="M10.653 23.0155C11.6643 22.1517 12.9079 21.5387 14.0559 21.3436C14.5478 21.2601 15.3678 21.2879 15.8188 21.4133C16.5431 21.6084 17.1991 22.0263 17.5407 22.5418C17.8687 23.0433 18.019 23.4752 18.1693 24.4365C18.224 24.8127 18.2923 25.2028 18.306 25.2864C18.4153 25.7879 18.634 26.178 18.9073 26.387C19.331 26.7074 20.0689 26.7214 20.7932 26.4427C20.9162 26.4009 21.0256 26.3591 21.0256 26.3731C21.0529 26.4009 20.6839 26.6517 20.4379 26.7771C20.0963 26.9582 19.8229 27.0139 19.454 27.0139C18.798 27.0139 18.2377 26.6656 17.7867 25.969C17.691 25.8297 17.4997 25.4257 17.3357 25.0495C16.8574 23.921 16.6114 23.5867 16.0511 23.2105C15.5591 22.8901 14.9305 22.8204 14.4522 23.0573C13.8235 23.3638 13.6595 24.1858 14.0969 24.6873C14.2745 24.8963 14.6025 25.0635 14.8758 25.1053C15.3815 25.1749 15.8188 24.7709 15.8188 24.2554C15.8188 23.9211 15.6958 23.726 15.3678 23.5728C14.9305 23.3777 14.4522 23.6006 14.4658 24.0325C14.4658 24.2136 14.5478 24.3251 14.7255 24.4087C14.8348 24.4644 14.8348 24.4644 14.7528 24.4505C14.3565 24.3669 14.2609 23.8653 14.5752 23.5449C14.9578 23.1548 15.7641 23.322 16.0374 23.8653C16.1468 24.0882 16.1604 24.5341 16.0648 24.8127C15.8324 25.4257 15.1765 25.7461 14.5068 25.565C14.0559 25.4396 13.8645 25.3142 13.3179 24.743C12.3613 23.7399 11.9923 23.5449 10.6257 23.3359L10.366 23.2941L10.653 23.0155Z" fill="white"/>
<path fill-rule="evenodd" clip-rule="evenodd" d="M3.46435 0.599071C6.64855 4.5418 11.5547 10.6718 11.8007 11.0062C12.0056 11.2848 11.9237 11.5495 11.582 11.7446C11.3907 11.856 10.9944 11.9675 10.803 11.9675C10.5844 11.9675 10.3247 11.856 10.1471 11.6749C10.0241 11.5495 9.49109 10.7554 8.28848 8.84675C7.37285 7.3839 6.59388 6.17183 6.58022 6.15789C6.52555 6.13003 6.52555 6.13003 8.19281 9.16718C9.2451 11.0759 9.58675 11.7585 9.58675 11.8421C9.58675 12.0232 9.53209 12.1207 9.31343 12.3715C8.94445 12.7895 8.78046 13.2632 8.65746 14.2523C8.5208 15.3529 8.15182 16.1331 7.09953 17.4567C6.48456 18.2368 6.38889 18.3762 6.23857 18.6966C6.04724 19.0867 5.99258 19.3096 5.96525 19.8111C5.93791 20.3406 5.99258 20.6749 6.1429 21.1765C6.27956 21.6223 6.42989 21.9149 6.79888 22.4861C7.11319 22.9876 7.30452 23.3638 7.30452 23.5031C7.30452 23.6146 7.33185 23.6146 7.82383 23.5031C8.99911 23.2245 9.9694 22.7508 10.5024 22.1656C10.8304 21.8034 10.9124 21.6084 10.9124 21.1068C10.9124 20.7864 10.8987 20.7167 10.8167 20.5217C10.68 20.2152 10.4204 19.9644 9.86008 19.5743C9.12211 19.0588 8.80779 18.6409 8.72579 18.0836C8.65746 17.6099 8.73946 17.2895 9.14944 16.4118C9.57309 15.5062 9.68242 15.13 9.75075 14.2105C9.79175 13.6254 9.86008 13.3885 10.0241 13.2074C10.2017 13.0124 10.3521 12.9427 10.7757 12.887C11.4727 12.7895 11.9237 12.6084 12.279 12.2601C12.5933 11.9675 12.73 11.6749 12.7436 11.243L12.7573 10.9226L12.5796 10.7276C11.9373 9.97523 3.04071 0 2.99971 0C2.98604 0 3.2047 0.264706 3.46435 0.599071ZM7.65984 20.4102C7.81016 20.1455 7.72817 19.8111 7.48218 19.644C7.24986 19.4907 6.89454 19.5604 6.89454 19.7693C6.89454 19.8251 6.92187 19.8808 7.00387 19.9087C7.12686 19.9783 7.14053 20.048 7.04486 20.2012C6.9492 20.3545 6.9492 20.4938 7.0722 20.5913C7.26352 20.7446 7.52318 20.661 7.65984 20.4102Z" fill="white"/>
<path fill-rule="evenodd" clip-rule="evenodd" d="M13.1949 13.082C12.8669 13.1796 12.5526 13.5418 12.4569 13.904C12.4023 14.1269 12.4296 14.531 12.5253 14.6563C12.6756 14.8514 12.8122 14.9071 13.1949 14.9071C13.9465 14.9071 14.5888 14.5728 14.6572 14.1687C14.7255 13.8344 14.4385 13.3746 14.0422 13.1656C13.8372 13.0542 13.4135 13.0124 13.1949 13.082ZM14.0695 13.7786C14.1788 13.6115 14.1378 13.4303 13.9329 13.305C13.5639 13.0681 13.0036 13.2632 13.0036 13.6254C13.0036 13.8065 13.2906 14.0015 13.5639 14.0015C13.7415 14.0015 13.9875 13.8901 14.0695 13.7786Z" fill="white"/>
</svg>
