<svg width="40" height="40" viewBox="0 0 40 40" fill="none" xmlns="http://www.w3.org/2000/svg">
<path d="M20 40C31.0834 40 40 31.0834 40 20C40 8.9166 31.0834 0 20 0C8.9166 0 0 8.9166 0 20C0 31.0834 8.9166 40 20 40Z" fill="#2775CA"/>
<path d="M39.5 20C39.5 30.8073 30.8073 39.5 20 39.5C9.19274 39.5 0.5 30.8073 0.5 20C0.5 9.19274 9.19274 0.5 20 0.5C30.8073 0.5 39.5 9.19274 39.5 20Z" stroke="white" stroke-opacity="0.1"/>
<path d="M25.5025 23.167C25.5025 20.2504 23.7525 19.2504 20.2525 18.8338C17.7525 18.5004 17.2525 17.8338 17.2525 16.667C17.2525 15.5002 18.0859 14.7504 19.7525 14.7504C21.2525 14.7504 22.0859 15.2504 22.5025 16.5004C22.5859 16.7504 22.8359 16.917 23.0859 16.917H24.4191C24.7525 16.917 25.0025 16.667 25.0025 16.3338V16.2504C24.6691 14.417 23.1691 13.0004 21.2525 12.8338V10.8338C21.2525 10.5004 21.0025 10.2504 20.5859 10.167H19.3359C19.0025 10.167 18.7525 10.417 18.6691 10.8338V12.7504C16.1691 13.0838 14.5859 14.7504 14.5859 16.8338C14.5859 19.5838 16.2525 20.667 19.7525 21.0838C22.0859 21.5004 22.8359 22.0004 22.8359 23.3338C22.8359 24.6672 21.6691 25.5838 20.0859 25.5838C17.9191 25.5838 17.1691 24.667 16.9191 23.417C16.8359 23.0838 16.5859 22.917 16.3359 22.917H14.9191C14.5859 22.917 14.3359 23.167 14.3359 23.5004V23.5838C14.6691 25.667 16.0025 27.167 18.7525 27.5838V29.5838C18.7525 29.917 19.0025 30.167 19.4191 30.2504H20.6691C21.0025 30.2504 21.2525 30.0004 21.3359 29.5838V27.5838C23.8359 27.167 25.5025 25.417 25.5025 23.167Z" fill="white"/>
<path d="M15.7516 31.9162C9.25162 29.583 5.91823 22.333 8.33503 15.9162C9.58503 12.4162 12.335 9.74961 15.7516 8.49961C16.085 8.33301 16.2516 8.08301 16.2516 7.66621V6.49961C16.2516 6.16621 16.085 5.91621 15.7516 5.83301C15.6682 5.83301 15.5016 5.83301 15.4182 5.91621C7.50163 8.41621 3.16822 16.833 5.66822 24.7496C7.16822 29.4162 10.7516 32.9996 15.4182 34.4996C15.7516 34.6662 16.085 34.4996 16.1682 34.1662C16.2516 34.083 16.2516 33.9996 16.2516 33.833V32.6662C16.2516 32.4162 16.0016 32.083 15.7516 31.9162ZM24.585 5.91621C24.2516 5.74961 23.9182 5.91621 23.835 6.24961C23.7516 6.33301 23.7516 6.41621 23.7516 6.58301V7.74961C23.7516 8.08301 24.0016 8.41621 24.2516 8.58301C30.7516 10.9162 34.085 18.1662 31.6682 24.583C30.4182 28.083 27.6682 30.7496 24.2516 31.9996C23.9182 32.1662 23.7516 32.4162 23.7516 32.833V33.9996C23.7516 34.333 23.9182 34.583 24.2516 34.6662C24.335 34.6662 24.5016 34.6662 24.585 34.583C32.5016 32.083 36.835 23.6662 34.335 15.7496C32.835 10.9996 29.1682 7.41621 24.585 5.91621Z" fill="white"/>
</svg>
