<svg width="32" height="32" viewBox="0 0 32 32" fill="none" xmlns="http://www.w3.org/2000/svg">
<circle cx="16" cy="16" r="16" fill="#50AF95"/>
<path fill-rule="evenodd" clip-rule="evenodd" d="M18.0246 17.4514C17.9115 17.4597 17.3269 17.4941 16.0231 17.4941C14.986 17.4941 14.2497 17.4634 13.9914 17.4514C9.98357 17.2777 6.99211 16.5902 6.99211 15.7672C6.99211 14.9441 9.98357 14.2576 13.9914 14.0811V16.7667C14.2535 16.7853 15.0039 16.829 16.041 16.829C17.2855 16.829 17.9086 16.7779 18.0208 16.7677V14.083C22.0201 14.2585 25.005 14.946 25.005 15.7672C25.005 16.5884 22.0211 17.2758 18.0208 17.4504L18.0246 17.4514ZM18.0246 13.8052V11.402H23.6059V7.73721H8.41006V11.402H13.9904V13.8043C9.45467 14.0096 6.04366 14.8949 6.04366 15.9557C6.04366 17.0166 9.45467 17.901 13.9904 18.1072V25.8083H18.0237V18.1044C22.549 17.8991 25.9544 17.0148 25.9544 15.9548C25.9544 14.8949 22.5519 14.0105 18.0237 13.8043L18.0246 13.8052Z" fill="white"/>
</svg>
