<svg width="40" height="40" viewBox="0 0 40 40" fill="none" xmlns="http://www.w3.org/2000/svg">
<g clip-path="url(#clip0_12742_23977)">
<circle cx="20" cy="20" r="20" fill="white"/>
<path d="M32.6159 8.39477L31.5176 9.49307C34.1383 12.359 35.5916 16.1019 35.5916 19.9855C35.5916 23.869 34.1383 27.6119 31.5176 30.4779L32.6159 31.5762C35.5304 28.4148 37.1485 24.2725 37.1485 19.9727C37.1485 15.6728 35.5304 11.5305 32.6159 8.36914V8.39477Z" fill="#5A5564"/>
<path d="M9.51846 8.48981C12.3844 5.86909 16.1273 4.41577 20.0109 4.41577C23.8944 4.41577 27.6373 5.86909 30.5033 8.48981L31.6016 7.39151C28.4402 4.477 24.2979 2.85889 19.998 2.85889C15.6982 2.85889 11.5559 4.477 8.39453 7.39151L9.51846 8.48981Z" fill="#5A5564"/>
<path d="M8.4903 30.4886C5.87269 27.6233 4.42128 23.8827 4.42128 20.0017C4.42128 16.1208 5.87269 12.3801 8.4903 9.5148L7.392 8.4165C4.47749 11.5778 2.85938 15.7202 2.85938 20.02C2.85938 24.3198 4.47749 28.4622 7.392 31.6235L8.4903 30.4886Z" fill="#5A5564"/>
<path d="M30.4884 31.5029C27.6224 34.1236 23.8795 35.577 19.996 35.577C16.1124 35.577 12.3695 34.1236 9.50357 31.5029L8.40527 32.6012C11.5666 35.5157 15.709 37.1339 20.0088 37.1339C24.3086 37.1339 28.451 35.5157 31.6123 32.6012L30.4884 31.5029Z" fill="#5A5564"/>
<path d="M26.9342 16.3354C26.7145 14.0437 24.7376 13.2748 22.2371 13.0405V9.88477H20.3041V12.982C19.7953 12.982 19.2754 12.982 18.7592 12.982V9.88477H16.8408V13.0625H12.9199V15.131C12.9199 15.131 14.3477 15.1053 14.3257 15.131C14.5832 15.1026 14.8416 15.1754 15.0464 15.3338C15.2513 15.4922 15.3867 15.724 15.424 15.9803V24.6788C15.4185 24.7692 15.395 24.8576 15.3547 24.9387C15.3145 25.0198 15.2584 25.092 15.1897 25.1511C15.1224 25.2113 15.0436 25.2572 14.958 25.2862C14.8724 25.3151 14.7819 25.3265 14.6918 25.3195C14.7175 25.3415 13.286 25.3195 13.286 25.3195L12.9199 27.6296H16.8042V30.8586H18.7372V27.6772H20.2822V30.8439H22.2188V27.6516C25.4844 27.4539 27.7616 26.6484 28.0471 23.5915C28.2778 21.1313 27.1209 20.033 25.2721 19.5901C26.396 19.0372 27.0916 18.0122 26.9342 16.3354ZM24.2251 23.2108C24.2251 25.6124 20.1101 25.3378 18.7995 25.3378V21.0764C20.1101 21.0801 24.2251 20.703 24.2251 23.2108ZM23.3281 17.2067C23.3281 19.4033 19.8941 19.1361 18.8031 19.1361V15.2628C19.8941 15.2628 23.3281 14.9186 23.3281 17.2067Z" fill="#F09242"/>
<path d="M19.9963 40C16.041 39.9993 12.1747 38.8258 8.88632 36.6279C5.5979 34.43 3.03502 31.3064 1.52172 27.652C0.00841897 23.9976 -0.387339 19.9766 0.384482 16.0973C1.1563 12.218 3.06104 8.6547 5.85787 5.85787C8.6547 3.06104 12.218 1.1563 16.0973 0.384482C19.9766 -0.387339 23.9976 0.00841897 27.652 1.52172C31.3064 3.03502 34.43 5.5979 36.6279 8.88632C38.8258 12.1747 39.9993 16.041 40 19.9963C40.0005 22.6234 39.4834 25.2248 38.4783 27.652C37.4732 30.0792 35.9998 32.2845 34.1421 34.1421C32.2845 35.9998 30.0792 37.4732 27.652 38.4783C25.2248 39.4834 22.6234 40.0005 19.9963 40ZM19.9963 1.55959C16.3523 1.56249 12.7909 2.64563 9.76226 4.67212C6.73364 6.69861 4.37377 9.57747 2.98092 12.9448C1.58807 16.3122 1.22476 20.0169 1.93693 23.5907C2.64909 27.1645 4.40475 30.447 6.982 33.0232C9.55925 35.5994 12.8424 37.3538 16.4165 38.0645C19.9906 38.7753 23.6951 38.4105 27.0619 37.0163C30.4287 35.6221 33.3067 33.2611 35.332 30.2317C37.3572 27.2023 38.439 23.6404 38.4404 19.9963C38.4414 17.5743 37.9649 15.1758 37.0383 12.9381C36.1116 10.7003 34.753 8.66715 33.04 6.95485C31.327 5.24256 29.2933 3.8847 27.0552 2.95894C24.817 2.03318 22.4184 1.55767 19.9963 1.55959Z" fill="#282138"/>
</g>
<defs>
<clipPath id="clip0_12742_23977">
<rect width="40" height="40" fill="white"/>
</clipPath>
</defs>
</svg>
