<?xml version="1.0" encoding="utf-8"?>
<svg xmlns="http://www.w3.org/2000/svg">
  <g id="Layer_2" data-name="Layer 2" transform="matrix(1, 0, 0, 1, 105.321938, 74.977943)">
    <g id="Layer_1-2" data-name="Layer 1">
      <path class="cls-1" d="M139.76,279.89c-.67-.52-1.59-.28-2.56-.17-2,.21-3.8-.63-5.68-1.07-1.07-.26-1-1.25-1.06-1.75-.5-2.68-.7-5.4-1.09-8.09a18,18,0,0,1-.31-5.84c.35-1.86-1.28-3.79.29-5.65a2.18,2.18,0,0,0-.34-2.43.72.72,0,0,1-.3-.9c1.09-2.4,1.11-5.08,2.17-7.53.48-1.11,1.5-1.74,1.84-2.9.17-.55.8-.64,1.21.08a16.27,16.27,0,0,1,1.88,5.1c1,5.29,2.75,10.32,4.21,15.45.7,2.49,2.46,4.43,2.93,6.89.29,1.52,1.26,2.48,2,3.67a4.75,4.75,0,0,1,.79,3.08c-.3,2.25-1.67,2.91-4.55,2.32Z" style="fill: rgb(255, 255, 255);"/>
      <path class="cls-1" d="M27.94,282.27c-.32,1.56-3.74,3-5,2.06a12.92,12.92,0,0,1-4.16-4.74c-2.31-4.78-3.48-9.86-5.11-14.82a61.22,61.22,0,0,1-3-13.19c-.14-1.54-.73-3.17-.21-4.8.16-.5,0-1.14.8-1.18.61,0,.74.33,1,.8a46.8,46.8,0,0,1,2.83,7.11,47.64,47.64,0,0,0,3.49,7.62c1.55,3,2.72,6.24,4.41,9.18,1.81,3.14,3.29,6.44,4.92,9.66A2.76,2.76,0,0,1,27.94,282.27Z" style="fill: rgb(255, 255, 255);"/>
      <path class="cls-1" d="M98.93,274.29c-2.85,0-5.61-.79-8.43-1a5.88,5.88,0,0,1-4.25-3.66c-1.15-4.22-.67-4.74,3.7-6.06a42.17,42.17,0,0,1,12.78-1.91c2.53,0,2.7,1.16,2.59,3.57a9,9,0,0,1-.55,2.93,6.42,6.42,0,0,0-.31,4.43c.15.7-.84,1-1.2,1.15A8.37,8.37,0,0,1,98.93,274.29Z" style="fill: rgb(255, 255, 255);"/>
      <path class="cls-1" d="M112.78,275.79c-2.38-.55-3.41-2.71-2.12-6,.71-1.82.78-3.85,1.67-5.63a1.56,1.56,0,0,1,1.4-1c2.55-.21,5.1-.49,7.64-.82.71-.1,1.33-.07,1.45.67s1.54,1.31.38,2.29c-.27.22-.85.65-.31.95,1.54.85.47,2.17.61,3.22.17,1.21,0,2.36.6,3.61.86,1.78-1.25,3.94-3.6,3.74S116,276.23,112.78,275.79Z" style="fill: rgb(255, 255, 255);"/>
      <path class="cls-1" d="M74.54,248.61c2.23.49,2.66,2.31,2.25,4.38-1,4.82-4.76,5.09-8.36,5.94-1.62.38-3.3.25-4.89,1a3.6,3.6,0,0,1-4.34-1.56c-.51-1.12.47-3.92,1.57-4.81,2.57-2.08,5.26-3.62,8.75-3.65a15.07,15.07,0,0,0,3.34-1C73.44,248.76,74.05,248.7,74.54,248.61Z" style="fill: rgb(255, 255, 255);"/>
      <path class="cls-1" d="M80.31,271.75c.12,1.18-.73,1.57-1.9,1.65-4.21.29-8.41.81-12.63.36a2.84,2.84,0,0,1-2.4-2.08c-.5-1.39.21-2.41.86-3.37a4.75,4.75,0,0,1,2.86-1.81c3.14-.75,6.27-1.61,9.46-2.05a2.37,2.37,0,0,1,3,2.32C79.63,268.36,81,269.76,80.31,271.75Z" style="fill: rgb(255, 255, 255);"/>
      <path class="cls-1" d="M8.51,291.25c-.76-1.48-1.64-2.79-2.25-4.12a16.38,16.38,0,0,1-.84-4.93A12.16,12.16,0,0,0,5,279.9a5.75,5.75,0,0,1-.11-3.42,21.3,21.3,0,0,0,.66-6.08c0-1.57,1.18-2.78,1.83-4.14.23-.46,1.27-.46,1.66.56,1.66,4.33,2.83,8.75,2.11,13.42a35.13,35.13,0,0,1-1.43,6.9A13,13,0,0,0,9.48,290,1.37,1.37,0,0,1,8.51,291.25Z" style="fill: rgb(255, 255, 255);"/>
      <path class="cls-1" d="M89.32,249.76a40.65,40.65,0,0,1,7.36.37c1.46.16,2.88.37,3.83,1.64.38.51,1.34,1.28.65,1.66s-1.08,1.3-2.2,1.54c-3.32.72-6.83.07-10,1.64a12,12,0,0,1-4,.59,1.34,1.34,0,0,1-.94-.36c-1.4-1.44-.69-3.23-.55-4.82A2.22,2.22,0,0,1,85.57,250C86.73,249.9,87.75,248.78,89.32,249.76Z" style="fill: rgb(255, 255, 255);"/>
      <path class="cls-1" d="M158.85,280.68c-2.38-.54-3.25-2.87-2.49-6.66.39-1.93,3.21-3.45,5.47-2.94,3.85.88,5.75,3.13,5.11,6.09C166.23,280.46,163.37,281.7,158.85,280.68Z" style="fill: rgb(255, 255, 255);"/>
      <path class="cls-1" d="M185.65,278.09c-.62,2.06-2.24,1.54-3.27,1.84a12.7,12.7,0,0,1-4.34.45c-1.25-.07-2.51-.43-2.92-2.07a19.87,19.87,0,0,0-1.43-2.89c-.52-1.21-1-2.53,0-3.69s2.35-1,3.54-.22c2.61,1.64,5.21,3.32,7.77,5.05C185.61,277,186.26,277.61,185.65,278.09Z" style="fill: rgb(255, 255, 255);"/>
      <path class="cls-1" d="M52.68,259c-2.13,3.35-4.61,5.9-8.42,6.73-1.8.4-3.55-2-2.8-3.85a7.07,7.07,0,0,1,6.31-4.76c1.18-.09,2.31-.82,3.58-.19A2,2,0,0,1,52.68,259Z" style="fill: rgb(255, 255, 255);"/>
      <path class="cls-1" d="M47.88,277.14c-.58-.2-1.16-.42-1.75-.6a2.38,2.38,0,0,1-1.52-2.24,2,2,0,0,1,1.33-1.86c2.27-1,4.53-2,6.76-3.06a1.71,1.71,0,0,1,2.19.56,3.61,3.61,0,0,1-.81,5.9C52.48,276.76,49,277.51,47.88,277.14Z" style="fill: rgb(255, 255, 255);"/>
      <path class="cls-1" d="M29.1,267.91c.5-1.8,3.08-3.65,4.46-3.2a2.83,2.83,0,0,1,2,3.88c-.37,1.17-3.93,3-5.16,2.61S28.62,269.65,29.1,267.91Z" style="fill: rgb(255, 255, 255);"/>
      <path class="cls-1" d="M114.88,252.67a3.69,3.69,0,0,1,.48,0,2.12,2.12,0,0,1,2,2c.09.92-1,1.4-1.76,1.6a7.12,7.12,0,0,1-5.82-.68c-1.06-.66-.28-1.48-.43-2.21s.56-.56,1.09-.71A7.22,7.22,0,0,1,114.88,252.67Z" style="fill: rgb(255, 255, 255);"/>
      <path class="cls-1" d="M160.94,101.08c-7.17-1.61-12.66-4.91-15.33-11.8a12.89,12.89,0,0,1-.33-9.57c1-2.59,3.42-3.68,6-4.28C161.77,73,172.12,70.08,182,65.72c2.81-1.23,5.5-2.59,8.17-4.07,3.74-2.08,5.41-1.55,7.48,3,1.37,3,1.41,6.1,1.62,9.09a17.08,17.08,0,0,1-.65,5c-1.25,4.68-4.1,8.45-7.15,12a29,29,0,0,1-10,7.39,40.21,40.21,0,0,1-12.07,3C166.56,101.42,163.54,102.18,160.94,101.08Z" style="fill: rgb(255, 255, 255);"/>
      <path class="cls-1" d="M90.13,124.63c-1.69,1.91-1.42,4.89-3.61,6.56-1.85,1.4-3.69,1.77-5.13.54a7.85,7.85,0,0,0-3.54-1.53c-7-1.56-11.61-6.57-11.57-12.89,0-5,1.76-7.52,6.63-9.36,3.64-1.38,7.35-2.75,10.38-5.47a75.35,75.35,0,0,1,7.64-6,10.67,10.67,0,0,1,8.16-1.66c4.29.76,4.2,1.88,3.88,6.14-.15,2.12-.74,4.45,0,6.76.59,1.78-1,3.28-2.12,4.34-3.65,3.49-6.29,7.81-9.86,11.34-.36.35.13,1.28-.81,1.33,0,0-.1-.08-.15-.13a.91.91,0,0,1,.07.14l-.15-.09Z" style="fill: rgb(255, 255, 255);"/>
      <path class="cls-1" d="M9.47,302.07c.54-.22.52-.65.44-1.11l0,0c1.21-1.28.57-2.87.57-4.29,0-.85.22-1.05.82-.93a8.11,8.11,0,0,1,3,.92,6.44,6.44,0,0,0,8,.12,38.7,38.7,0,0,1,5.4-3.56c3.39-1.52,6.64-3.32,10.12-4.68s7.18-2.32,10.71-3.59a65.22,65.22,0,0,1,10.53-3.16,81.79,81.79,0,0,1,10.84-1.58c3.8-.16,7.64-.2,11.44-.33a74.06,74.06,0,0,1,15,.74c3.77.63,7.62.62,11.42,1.21,3.2.49,6.5.32,9.73.65,1.69.17,3.3,1,5,1.17,4.86.57,9.64,1.67,14.42,2.59,5.37,1,10.6.47,15.9.58,3.3.07,6.61.24,9.91.64,2,.24,4.12-.37,6.19-.39,2.54,0,5.13.49,7.6.13,2.26-.33,4.52-.47,6.78-.75,3.65-.45,7.3-1,10.9-1.71a21.67,21.67,0,0,0,5.08-1.86c2.55-1.24,5.23-2.09,7.75-3.46,2.7-1.46,5.2-3.16,7.72-4.84a6.64,6.64,0,0,1,4.65-1.15c5.8.82,7.27-4.16,6.61-8-.49-2.87-1.38-5.67-3.34-7.56-2.61-2.53-4.82-6.15-9.44-5.56-2.14.27-3.87,1.22-4.39,3.37-.84,3.45-2.92,5-6.4,5.37a68.16,68.16,0,0,1-11,.57,67,67,0,0,1-16.26-2.36c-2.17-.63-4.13-2-6.16-3.09-3.23-1.73-6.77-2.77-10-4.43-1.55-.8-3.3-1.08-4.77-2-2.56-1.63-5.5-2.25-8.37-2.88-3.8-.84-4.11-1.76-5.35-5.56-.77-2.37.09-4.78-1.14-6.91-.07-.12-.19-.24-.19-.36.15-3-.86-5.74-2-8.41a6.09,6.09,0,0,0-4.66-3.81c-1.88-.35-2.54.53-3.4,2.22-1.83,3.58-1.48,7.64-2.91,11.3-1.19,3.06-2.35,4.36-5.31,3.6-3.56-.92-7.29-.94-10.74-2.1s-6.86-1-10.23-1.83a42.17,42.17,0,0,0-7.69-1c-2.7-.16-5.47-.2-8.21-.23-4.5-.05-9,.31-13.46.55-2.78.14-5.3,1.23-7.94,1.86-3.27.79-6.46,2-9.68,3-2.64.86-5.25,1.82-7.9,2.64-2.11.66-4.08,1.71-6.16,2.35-3.09.95-4.91,3.43-7.3,5.23-2.64,2-4.19,5.2-7.46,6.45-1.62.62-2.66.42-3.31-1.42-1.62-4.56-3.53-9-4.92-13.66a4.63,4.63,0,0,1,.7-3.44,14.84,14.84,0,0,1,1.7-3.21c1.64-1.76,2.21-4.11,3.36-6.1A88.5,88.5,0,0,0,26,219.55c1.08-2.44,1.7-5.15,3.58-7.32,2.27-2.62,1.65-7.81-.48-10.53-1.23-1.56-2.38-3.18-1.95-5.68.55-3.24.54-6.45,2.32-9.49a7.2,7.2,0,0,0,1.29-4.15,1.23,1.23,0,0,1,.67-1.18c.51-.3,1.93-.56.26-1.36-.25-.12-.21-.48,0-.7,1.64-1.36,2.07-3.34,2.73-5.21a3.48,3.48,0,0,1,.8-1.18c.79-.84,2.25-1.23,1.83-2.84,2-.17.22-2.42,1.57-2.85,1.69-.54,1.55-2.09,1.89-3.3s1.53-.75,2.08-1.4c-1.8-1.14,0-2.39.13-3.47a10.71,10.71,0,0,1,1.47-4,23.78,23.78,0,0,1,3.26-5.14c4.31-4.45,5.77-12.16,1.86-17.61a90.26,90.26,0,0,0-9-11.41c-1.88-1.9-2.83-4.68-3.84-7.33-1.28-3.35-2.18-6.79-3.35-10.16a7.54,7.54,0,0,1-.34-2.61c.05-4.75-1.8-9.2-2-13.9-.24-5.42-.35-10.75,1.36-16.06.78-2.44,1.69-4.87,2.4-7.35s2.82-3.78,4.26-5.66c2.73-3.55,6.67-5.75,10.27-8.16A44.73,44.73,0,0,1,61.25,44c5.12-1.54,10.2-3.07,15.58-3.42a26.21,26.21,0,0,1,6.8.39c.93.19,1.81.89,2.8.06.32-.26.68,0,1,.3,3.45,3.33,7.63,3,11.81,2.1,3.76-.83,7.39-2.14,11.06-3.3,4.46-1.41,7.74-4.47,11.62-6.65a104.78,104.78,0,0,0,10.79-6.76c1.44-1,2.76-2.27,4.17-3.29,3.54-2.57,6.74-5.63,11-7.24,3.26-1.23,6.67-2.07,9.71-4.11,2.47-1.65,5.67-2.2,8.48-3.45s5.66-2.1,8.52-3.06,5.6-1.8,8.42-2.63S189,1.27,192,.47c3.36-.91,6.78-.31,10.05.17a35.57,35.57,0,0,1,9.81,3.29c4,1.9,7.16,5,10.5,7.85a44,44,0,0,1,6.21,5.84,27.7,27.7,0,0,1,4.38,7.75c1.79,4.75,4,9.33,6,14,1.94,4.5,3.65,9.11,5.8,13.51,2.57,5.24,4.71,10.68,7.55,15.81A74.57,74.57,0,0,0,259.58,80c2.61,3.17,4.88,6.66,8,9.5a15.53,15.53,0,0,1,4.82,8,18.4,18.4,0,0,1,.66,6.83c-.55,3.57-.72,7.2-1.24,10.8-.28,1.93-1.4,3.47-1.85,5.32a13.38,13.38,0,0,1-2.76,5.35c-2,2.36-3.74,5-6,7a28.93,28.93,0,0,1-7.14,4.3c-3.46,1.61-7.18,2.66-10.72,4.07-2.6,1-5.35,1.33-7.91,2.38-1.69.7-3.61.49-5.45.59-4.41.24-7.59-2.36-11.09-4.39-2.2-1.27-4.74-1.94-7.11-2.93a19.89,19.89,0,0,0-2.78-1.11c-3.2-.83-4.68.44-4,3.63a1.79,1.79,0,0,1-2.08,1.83c-3-.59-6.13-.53-9.18-.85-2.45-.26-5.21,0-7.15,2.26-1.1,1.28-3,1.48-4.07,3s-3.16,2.86-4.64,4.39a17.93,17.93,0,0,1-1.68,1.39c-4.18,3.48-7.12,7.61-7.21,13.4a33.79,33.79,0,0,0,1.15,8.66,18,18,0,0,0,3.4,6.17,32.34,32.34,0,0,0,8.07,7.68c3.51,2.36,6.72,5.13,10.28,7.44a41.32,41.32,0,0,1,7.49,6.94c1.5,1.65,3.08,3.22,4.48,5,2,2.48,4.08,4.88,5.92,7.47a20.39,20.39,0,0,0,2.48,2.59c2.69,2.64,4.1,6.12,6,9.18,1.5,2.39,3,5,4.47,7.43a59.6,59.6,0,0,1,4.53,8.85c1.28,3.12,2.89,6.18,3.43,9.61a38.19,38.19,0,0,0,1.45,4.83,26.53,26.53,0,0,1,1.23,7.39c0,2.47.43,5.13-.59,7.61-.47,1.13,0,2.39-.11,3.61-.16,2-1.63,3.44-1.81,5.34a16.47,16.47,0,0,1-2.35,6.72c-2,3.4-4.06,6.84-6.93,9.64-.32.31-.82.51-1.12.3a1.88,1.88,0,0,1-.68-1.18,7.18,7.18,0,0,0-10.8-5.29c-3.86,2.34-7.1,5.63-11.21,7.49-2.29,1-4.68,1.94-6.95,3a31.22,31.22,0,0,1-9.26,2.66c-3.25.46-6.6.63-9.85,1.21-3.95.71-7.93,1-11.89,1.42a33.81,33.81,0,0,1-7,.31c-2.91-.31-5.89.11-8.81-.09-3.61-.25-7.18-.86-10.78-1.22-5.09-.51-10.19-.83-15.27-1.42-3.75-.43-7.45-1.42-11.21-1.66-2.4-.15-4.81-.23-7.21-.47-3.12-.32-6.34.32-9.33-1.41-.51-.29-2.13.24-3.27.17-1.65-.11-3.71,0-4.86-.47-2.09-.85-4.09-.06-6.16-.7a15.67,15.67,0,0,0-7.12-.2c-5.42,1-11,1.11-16.41,2.1-4.47.82-8.53,2.66-12.6,4.55-2.64,1.22-5.3,2.46-8,3.6s-5.75,2.49-8,5.08c-2.08,2.34-4.47,4.46-6.37,7-2.71,3.64-5.45,7.22-5.21,12.14a8.93,8.93,0,0,0,2.61,6,7.84,7.84,0,0,0,4.49,2.59c-1.06,1-1.83,2.38-3.54,2.36-.42-.23-1-.3-1.19-.8s-.47-.61-.85-.16c-1.14-2.07-3.44-2.79-5-4.35-3.25-3.2-6.25-6.67-7.41-11.05-1.07-4-2.12-8.28-.06-12.43a1.91,1.91,0,0,1,.81-.87c.18.93.65.82,1.33.48.87-.44,1.5-.92,1.32-2a2,2,0,0,1,.25-1.84c1.18-1.6,4-2.26,3.2-5.1,0-.08.27-.31.44-.35,1-.27,1.29-1.17,1.83-1.85C11.67,302.9,11.57,302.65,9.47,302.07ZM140.3,134.93a2.42,2.42,0,0,0-.63,2.3c2.11,5.57-.5,10.38-3.14,14.72-2.15,3.55-5.5,6.44-8.57,9.36s-7,5.35-10.62,7.88a75.59,75.59,0,0,1-10.78,6.05c-4.48,2.12-7.16,5.89-6.56,9.88.37,2.49,3.16,5.1,5.48,4.31,2.84-1,6-.84,8.58-2.56a13.37,13.37,0,0,1,7-2.27c3-.06,6.06-.54,9.06-.77a82.53,82.53,0,0,0,11.44-1.33c3.9-.84,8-1.77,10.75-4.32,2.53-2.32,5.57-5.08,4.59-9.71-.51-2.44-2.12-4.42-2.28-6.91,0-.11-.32-.18-.47-.29a4.9,4.9,0,0,1-2-4.07,60.52,60.52,0,0,0-1.4-14.66c-.2-.84-.2-2.08-1.35-2.54l-.22-.32c.08-1.2-1-1.77-1.47-2.69,0-.59.32-1.36-.27-1.72-1.88-1.13-3.83-2.14-6.16-1.85C140.37,133.53,140,134,140.3,134.93ZM59.13,69.52c-1.11-1.41-2.19-.08-3.24,0-5,.15-10.13-.67-14.79,2.39a11.46,11.46,0,0,0-3.85,4.84c-2.06,4-1.93,8.39-2,12.69,0,1.61-.6,3.17-.09,4.83,1.29,4.24,2.91,8.33,4.56,12.44s3.47,8.09,5.32,12.08a72.2,72.2,0,0,0,5.77,9.5c1,1.51,2.4,2.66,3.37,4.16,1.82,2.82,3.84,5.12,7.78,4.37.84-.16,2.2-.69,2.72-.16,1.25,1.28,2.83,2.2,3.87,3.7s4.48,2.34,6.2,1.58c2.28-1,4.54-2,6.86-2.92a10.82,10.82,0,0,0,6.16-5.22c1.46-3,3.69-5.5,5.49-8.26a51.36,51.36,0,0,1,6.9-8.82c3.07-3,6.83-4.62,10.71-6,3.44-1.2,7-.06,10.27.9,3.64,1.06,6.82,3.25,10.11,5.14,2,1.15,4.16,2.27,6.57,2.09,1-.08,2.19-.36,1.76-2.2s-1.68-2.48-2.55-3.69-.84-4,.23-3.91c1.23.06,2.38-.82,3.77.07.82.52,1.27,1.41,2.16,1.76,4.35,1.68,8,5.08,13.05,5.09,2.5,0,5,.83,7.5.76a65,65,0,0,0,9.83-1.12c3.29-.59,6.51-1.51,9.75-2.34.46-.12.94-.92,1.31-.12a1.05,1.05,0,0,1-.57,1.64c-1.27.54-2.7.81-3.62,2.14-1.2,1.74-1.06,3.22.68,4.47a7.41,7.41,0,0,0,7.25.64c1.81-.68,3.71-.87,5.53-1.58,2.37-.92,4.89-1.6,7.27-2.56a39.23,39.23,0,0,0,7.82-4.46c2.29-1.59,4.27-3.49,6.36-5.24,2.71-2.26,4.69-5.29,6.84-8.11a26.1,26.1,0,0,0,3.32-5.3,59,59,0,0,0,1.78-5.86c.71-2.32.39-4.75.86-7.12a15.32,15.32,0,0,0,.23-3.88c-.11-1.66-.22-3.4-.37-5.07-.36-4-.87-8-2.86-11.32-1.61-2.71-2.52-5.66-3.87-8.43a68.54,68.54,0,0,0-11.85-17.36,20.38,20.38,0,0,0-6.56-4.84,34.57,34.57,0,0,0-8.16-2.81c-2.21-.35-4.45-1-6.63-.87-4.35.31-7.75,2.82-10.85,5.72a65,65,0,0,1-7.91,6.22,24.45,24.45,0,0,0-3.88,2.7c-1.61,1.71-3.6,2.6-5.43,3.81-2.46,1.63-5.25,2.67-7.72,4.31a10.66,10.66,0,0,1-4.77,2.11c-2.51.17-4.75,1.16-7.14,1.66-4,.82-7.87,2.11-11.92,2.52a9.21,9.21,0,0,0-8.12,11.88,16,16,0,0,0,2.91,5.06c.55.72.08,2.08,1.43,2.24.75.08,1.24.78,1,1.29a1.53,1.53,0,0,1-2,.66,10,10,0,0,1-3.21-1.68c-3.5-3-6.92-6.27-8.59-10.69-1.25-3.29-3.59-5-6.56-6.3-1.44-.61-2.7.44-2.86,2.07a6.93,6.93,0,0,0,1.86,5.11c1.66,2,3,3.9,3.23,6.52a4.85,4.85,0,0,1-1.4,4.3c-1.18.93-2.78.24-3.61-.85-1.56-2-3.86-3.26-5.36-5.34-.84-1.18-2.29-1.26-3.58-1.37-1.07-.1-1.37,1.13-1.47,1.71-.27,1.55.44,3.06,1.09,4.44,1.5,3.19,4.36,5.6,5.4,9.06a3.05,3.05,0,0,1-1,3.42c-1,.71-1.75-.1-2.57-.82-2.21-1.93-3.34-4.48-4.7-7a54.94,54.94,0,0,1-4.09-9.37A13.93,13.93,0,0,0,81.86,64a3.28,3.28,0,0,0-3.51-.21A2.4,2.4,0,0,0,77,66.12,6.79,6.79,0,0,0,78.59,71c.88,1.17,1.39,2.51.57,3.56s-2.24.54-3.39,0c-2.23-1-4.52-1.88-6.81-2.67A100.45,100.45,0,0,0,59.13,69.52ZM70.29,175.58a24.9,24.9,0,0,1-.33,2.5,6.72,6.72,0,0,0,2.48,5.46c1.89,1.64,5.34,1,7.34-.84C81,181.61,82,180.34,83,179.15c3.66-4.1,9.13-5.22,13.59-8,2.42-1.51,5.07-3,7.45-4.57a67.65,67.65,0,0,0,10.7-9.55,8.53,8.53,0,0,0,2-2.53c1.4-3.66,2.48-7.38.93-11.33a18.59,18.59,0,0,0-4.33-6.49c-1.8-1.76-4.31-2.49-6.52-3.66-1.47-.79-6.37-.26-7.63.85a30,30,0,0,1-3.34,2.74c-.88.56-.78,1.69-1.69,2.2-1.81,1-3.13,2.64-4.63,4-2.46,2.27-3.81,5.41-5.91,7.89-3.56,4.2-7.69,7.94-11.66,11.78A6.38,6.38,0,0,0,70.41,169C71.11,171.41,71.58,173.45,70.29,175.58Zm-1.93.6c.94-5.67.15-8.28-5.08-10.19-.35-.13-.94-.6-.9-.69C63,163.74,61.57,163,61,162s-.1-2.25-.68-3.33a12.38,12.38,0,0,0-7.09-6.22c-1.91-.66-5.22.87-4.87,2.56.42,2.08-.31,3.84-.52,5.75a17,17,0,0,1-3.25,8.71,23.9,23.9,0,0,0-5.35,11.75c-.37,2.74-.26,5.62,2.37,7.59,2,1.52,4.25,1.4,6.53,1,1.43-.24,2.87-.84,4.29-.42,3.55,1,6.12-.64,8.64-2.76,1.36-1.14,1.57-3.16,2.93-4.11C66.5,180.79,67.09,178,68.36,176.18Z" style="fill: rgb(255, 255, 255);"/>
    </g>
  </g>
</svg>