<svg preserveAspectRatio="none" width="30" height="42" viewBox="0 0 30 42" fill="none" xmlns="http://www.w3.org/2000/svg">
<path d="M18 42V40H22V38H24V36H26V34H28V30H30V12H28V8H26V6H24V4H22V2H18V0H0V2V4V6V8V12V30V34V36V38V40V42H18Z" fill="#64AD3B"/>
<path d="M26 14H28V12H26V14Z" fill="#95C87D"/>
<path d="M24 12H26V8H24V12Z" fill="#95C87D"/>
<path d="M22 8H24V6H22V8Z" fill="#95C87D"/>
<path d="M18 6L22 6V4L18 4V6Z" fill="#95C87D"/>
<path d="M0 4L18 4V2L0 2V4Z" fill="#95C87D"/>
<path d="M28 26H26V30H28V26Z" fill="#368D00"/>
<path d="M18 36V34H22V32H24V30H26V34H24V36H22V38H18V40H0V36H18Z" fill="#368D00"/>
<path d="M0 2L18 2V0L0 0V2Z" fill="black"/>
<path d="M0 42H18V40H0V42Z" fill="black"/>
<path d="M18 4L22 4V2L18 2V4Z" fill="black"/>
<path d="M18 40H22V38H18V40Z" fill="black"/>
<path d="M22 6H24V4L22 4V6Z" fill="black"/>
<path d="M22 38H24V36H22V38Z" fill="black"/>
<path d="M24 8H26V6H24V8Z" fill="black"/>
<path d="M24 36H26V34H24V36Z" fill="black"/>
<path d="M26 34H28V30H26V34Z" fill="black"/>
<path d="M26 12H28V8H26V12Z" fill="black"/>
<path d="M28 30H30L30 12H28L28 30Z" fill="black"/>
</svg>
