<svg preserveAspectRatio="none" width="30" height="34" viewBox="0 0 30 34" fill="none" xmlns="http://www.w3.org/2000/svg">
<path d="M12 0V2H8V4H6V6H4V8H2V26H4V28H6V30H8V32H12V34H30V0H12Z" fill="#368D00"/>
<path d="M4 12H2V14H4V12Z" fill="#95C87D"/>
<path d="M6 8H4V10H6V8Z" fill="#95C87D"/>
<path d="M8 6H6V8H8V6Z" fill="#95C87D"/>
<path d="M10 4H8V6H10V4Z" fill="#95C87D"/>
<path d="M14 2H12V4H14V2Z" fill="#95C87D"/>
<path d="M4 14H2V22H4V14Z" fill="#368D00"/>
<path d="M12 28V26H8V24H6V22H4V26H6V28H8V30H12V32H30V28H12Z" fill="#368D00"/>
<path d="M8 8H6V10H8V8Z" fill="white"/>
<path d="M10 6H8V8H10V6Z" fill="white"/>
<path d="M14 4H10V6H14V4Z" fill="white"/>
<path d="M30 2H14V4H30V2Z" fill="white"/>
<path d="M6 10H4V14H6V10Z" fill="white"/>
<path d="M30 0H12V2H30V0Z" fill="black"/>
<path d="M30 32H12V34H30V32Z" fill="black"/>
<path d="M12 2H8V4H12V2Z" fill="black"/>
<path d="M12 30H8V32H12V30Z" fill="black"/>
<path d="M8 4H6V6H8V4Z" fill="black"/>
<path d="M8 28H6V30H8V28Z" fill="black"/>
<path d="M6 6H4V8H6V6Z" fill="black"/>
<path d="M6 26H4V28H6V26Z" fill="black"/>
<path d="M4 22H2V26H4V22Z" fill="black"/>
<path d="M4 8H2V12H4V8Z" fill="black"/>
<path d="M2 12H0V22H2V12Z" fill="black"/>
</svg>
