<svg preserveAspectRatio="none" width="283" height="54" viewBox="0 0 283 54" fill="none" xmlns="http://www.w3.org/2000/svg">
<path d="M0 0V12H6V18H12V24H42V36H36V48H30V54H42V48H60V42H66V36H72V24H262V18H268V12H274V0H0Z" fill="#D98C19"/>
<path d="M15 0V6L21 12H51V36H69L75 30L81 18V12H271L277 6V0H15Z" fill="white"/>
<path d="M57 18H51V30H57V18Z" fill="black"/>
<path d="M51 12H21V18H51V12Z" fill="black"/>
<path d="M51 30H45V42H39V48H51V42H69V36H51V30Z" fill="black"/>
<path d="M21 6H15V12H21V6Z" fill="black"/>
<path d="M15 0H9V6H15V0Z" fill="black"/>
<path d="M271 12H81V18H271V12Z" fill="black"/>
<path d="M75 30H69V36H75V30Z" fill="black"/>
<path d="M283 0H277V6H283V0Z" fill="black"/>
<path d="M277 6H271V12H277V6Z" fill="black"/>
<path d="M81 18H75V30H81V18Z" fill="black"/>
</svg>
