<?xml version="1.0" encoding="utf-8"?>
<!-- Generator: Adobe Illustrator 28.2.0, SVG Export Plug-In . SVG Version: 6.00 Build 0)  -->
<svg version="1.1" id="Layer_1" xmlns="http://www.w3.org/2000/svg" xmlns:xlink="http://www.w3.org/1999/xlink" x="0px" y="0px"
	 viewBox="0 0 40 40" style="enable-background:new 0 0 40 40;" xml:space="preserve">
<style type="text/css">
	.st0{fill:#95C87D;}
</style>
<g>
	<g>
		<polygon class="st0" points="15.5,39 15.5,37.2 11.9,37.2 11.9,35.4 8.3,35.4 8.3,33.5 6.5,33.5 6.5,31.7 4.6,31.7 4.6,28.1 
			2.8,28.1 2.8,24.5 1,24.5 1,15.5 2.8,15.5 2.8,11.9 4.6,11.9 4.6,8.3 6.5,8.3 6.5,6.5 8.3,6.5 8.3,4.6 11.9,4.6 11.9,2.8 
			15.5,2.8 15.5,1 24.5,1 24.5,2.8 28.1,2.8 28.1,4.6 31.7,4.6 31.7,6.5 33.5,6.5 33.5,8.3 35.4,8.3 35.4,11.9 37.2,11.9 37.2,15.5 
			39,15.5 39,24.5 37.2,24.5 37.2,28.1 35.4,28.1 35.4,31.7 33.5,31.7 33.5,33.5 31.7,33.5 31.7,35.4 28.1,35.4 28.1,37.2 
			24.5,37.2 24.5,39 		"/>
		<path d="M23.5,2v1.8h2h1.6v1.8h2h1.6v1.8h1.8v1.8h1.8v1.6v2h1.8v1.6v2H38v6.9h-1.8v2v1.6h-1.8v2v1.6h-1.8v1.8h-1.8v1.8h-1.6h-2
			v1.8h-1.6h-2V38h-6.9v-1.8h-2h-1.6v-1.8h-2H9.3v-1.8H7.5v-1.8H5.6v-1.6v-2H3.8v-1.6v-2H2v-6.9h1.8v-2v-1.6h1.8v-2V9.3h1.8V7.5h1.8
			V5.6h1.6h2V3.8h1.6h2V2H23.5 M25.5,0H14.5v1.8h-3.6v1.8H7.3v1.8H5.5v1.8H3.6v3.6H1.8v3.6H0v10.9h1.8v3.6h1.8v3.6h1.8v1.8h1.8v1.8
			h3.6v1.8h3.6V40h10.9v-1.8h3.6v-1.8h3.6v-1.8h1.8v-1.8h1.8v-3.6h1.8v-3.6H40V14.5h-1.8v-3.6h-1.8V7.3h-1.8V5.5h-1.8V3.6h-3.6V1.8
			h-3.6V0L25.5,0z"/>
	</g>
	<g>
		<path d="M13,18h-1v-2h2v1h1v1h1v1h1v1h1v1h1V9h2v12h1v-1h1v-1h1v-1h1v-1h1v-1h2v2h-1v1h-1v1h-1v1h-1v1h-1v1h-1v1h-1v1h-2v-1h-1v-1
			h-1v-1h-1v-1h-1v-1h-1v-1h-1V18z"/>
		<path d="M30,29H10v2h20V29z"/>
	</g>
</g>
</svg>
