<svg width="330" height="330" viewBox="0 0 330 330" fill="none" xmlns="http://www.w3.org/2000/svg">
<circle cx="165" cy="165" r="165" fill="#FFCD1F"/>
<path fill-rule="evenodd" clip-rule="evenodd" d="M225.086 42.0537C227.44 43.1044 229.793 44.071 232.231 44.9956C237.148 49.1142 242.443 52.6865 248.201 55.7124C249.588 56.8471 250.68 58.192 251.563 59.7049C251.479 60.7136 251.731 61.5541 252.403 62.2266C252.656 63.0251 253.076 63.8236 253.664 64.538C255.976 65.4626 258.077 66.7234 259.968 68.3204C263.583 71.9768 267.197 75.549 270.895 79.0372V98.7898H289.807C290.774 100.051 291.909 101.185 293.169 102.152C298.927 107.91 304.811 113.499 310.821 118.963C312.796 121.358 315.065 123.46 317.545 125.267C317.671 125.603 317.881 125.897 318.175 126.107C318.47 139.85 318.47 153.551 318.175 167.293C317.461 168.092 316.704 168.764 315.864 169.395C315.065 169.479 314.351 169.857 313.763 170.445C311.829 172.295 310.148 174.354 308.719 176.539C301.575 183.558 294.43 190.576 287.286 197.553C286.823 197.805 286.403 198.183 286.025 198.603C280.982 198.813 275.938 198.898 270.895 198.813V232.015C270.853 232.267 270.727 232.477 270.475 232.645C268.92 232.855 267.407 232.939 265.852 232.855C265.306 237.226 263.667 241.134 261.019 244.623C258.077 247.649 255.051 250.59 251.983 253.448C251.395 253.658 251.101 254.079 251.143 254.709C249.84 258.155 248.075 261.391 245.889 264.375C241.561 267.947 237.4 271.73 233.491 275.722C229.835 278.538 226.347 281.564 222.985 284.758C220.379 286.397 217.731 287.952 215 289.381C214.117 290.39 213.277 291.44 212.478 292.533C181.378 292.953 150.278 293.079 119.179 292.953C116.657 289.507 113.295 287.322 109.092 286.439C107.747 285.683 106.487 284.842 105.31 283.918C100.309 279 95.1394 274.293 89.76 269.839C87.2384 267.737 84.9689 265.342 83.0357 262.694C82.7835 261.517 82.2372 260.509 81.3546 259.752C80.4721 257.693 79.5475 255.592 78.6229 253.448C76.5216 251.641 74.4202 249.792 72.3189 247.985C70.0074 245.463 68.1162 242.647 66.6453 239.579C66.225 237.94 65.6786 236.385 64.9642 234.956V232.435C64.1657 232.309 63.4512 232.435 62.8629 232.855H60.7615C60.3413 232.729 60.0471 232.435 59.921 232.015V198.813H43.9508C33.6122 188.139 23.0215 177.632 12.2206 167.293C11.9265 153.425 11.9265 139.556 12.2206 125.687C17.9783 120.434 23.4838 114.97 28.8212 109.297C30.082 108.456 31.2167 107.489 32.1833 106.355C34.831 103.833 37.4787 101.311 40.1684 98.7898H59.5007V78.617C65.2164 74.2042 70.89 69.7493 76.5216 65.1684C78.791 58.0239 83.456 53.1908 90.6005 50.6692C93.2482 48.2316 96.1901 46.1723 99.4261 44.5753C100.057 44.6173 100.477 44.3232 100.687 43.7348C101.696 43.0624 102.83 42.6421 104.049 42.474C105.268 42.2218 106.403 41.8016 107.411 41.2132C108.966 41.2552 110.521 41.0871 112.034 40.7929C112.665 40.7509 113.085 40.4567 113.295 39.9524V39.5321C113.883 39.322 114.178 38.9017 114.135 38.2713C114.346 37.851 114.598 37.5148 114.976 37.2206C148.051 36.9265 181.084 36.9265 214.159 37.2206C214.663 37.809 215.21 38.2713 215.84 38.6916C216.05 39.5741 216.471 40.3306 217.101 41.003C219.791 41.1291 222.48 41.5074 225.086 42.0537Z" fill="#120F0F"/>
<path fill-rule="evenodd" clip-rule="evenodd" d="M127.164 87.8629C117.624 87.7369 108.084 87.8629 98.5859 88.2832C98.9222 87.947 99.3424 87.7369 99.8467 87.6528C109.009 87.3166 118.128 87.3586 127.164 87.8629Z" fill="#671918"/>
<path fill-rule="evenodd" clip-rule="evenodd" d="M127.164 87.863C131.913 89.1239 135.821 91.6455 138.931 95.4279H97.7449C98.0811 95.0917 98.5014 94.8815 99.0057 94.7975C98.6695 94.6714 98.3753 94.4613 98.1652 94.1671C98.7115 93.8309 98.9216 93.4106 98.7956 92.9063C97.6608 91.4774 96.1899 90.931 94.3827 91.2252C94.2987 90.6788 94.4668 90.1745 94.803 89.7543C95.9798 89.292 97.1145 88.7876 98.1652 88.2833H98.5854C108.083 87.863 117.624 87.737 127.164 87.863Z" fill="#AB2029"/>
<path fill-rule="evenodd" clip-rule="evenodd" d="M98.1652 88.2832C97.1145 88.7875 95.9798 89.2918 94.8031 89.7541C94.4668 90.1744 94.2987 90.6787 94.3828 91.2251C96.1899 90.9309 97.6609 91.4772 98.7956 92.9061C98.9217 93.4105 98.7115 93.8307 98.1652 94.167C98.3753 94.4611 98.6695 94.6713 99.0057 94.7974C98.5014 94.8814 98.0811 95.0915 97.7449 95.4278C95.6856 96.2263 94.1306 97.6552 93.122 99.6304C92.7017 101.101 92.5756 102.614 92.7017 104.253C92.3655 104.716 92.1554 105.262 92.0713 105.934C91.9873 104.758 91.6931 103.623 91.2308 102.572C90.9366 103.119 90.6844 103.119 90.3903 102.572C90.2642 103.413 90.0961 104.253 89.97 105.094C89.6338 104.674 89.2555 104.253 88.9193 103.833C88.5831 105.724 88.1208 107.531 87.4484 109.297C86.776 109.086 86.3557 108.54 86.1876 107.616C86.0615 105.64 85.8934 103.707 85.7673 101.732C85.6412 102.026 85.4731 102.278 85.347 102.572C85.221 101.732 85.0529 100.891 84.9268 100.051C84.8427 101.101 84.6326 102.11 84.2964 102.993C84.2123 100.723 84.3384 98.4957 84.7166 96.2683C88.2889 92.1076 92.7858 89.4179 98.1652 88.2832Z" fill="#B12229"/>
<path fill-rule="evenodd" clip-rule="evenodd" d="M239.376 196.712H238.115C237.947 194.484 237.317 192.383 236.224 190.408C234.837 187.844 233.366 185.322 231.811 182.843C233.955 183.095 235.93 182.675 237.695 181.582C238.535 181.078 239.166 180.405 239.586 179.481C239.922 152.5 239.88 125.602 239.376 98.7894C238.746 97.2344 237.611 96.1837 236.014 95.6374C233.913 95.4272 231.811 95.3432 229.71 95.4272C216.682 95.133 203.653 94.8809 190.625 94.5867C193.315 91.3506 196.677 89.0392 200.711 87.6523C210.504 87.3581 220.338 87.3581 230.13 87.6523C236.854 88.9551 242.654 91.939 247.571 96.688C247.865 128.208 247.865 159.728 247.571 191.248C247.235 192.131 246.731 192.887 246.1 193.56C243.915 194.736 241.645 195.787 239.376 196.712Z" fill="#AB2029"/>
<path fill-rule="evenodd" clip-rule="evenodd" d="M190.624 94.5869C203.652 94.8811 216.68 95.1333 229.709 95.4274H189.783C189.909 95.0072 190.203 94.713 190.624 94.5869Z" fill="#AB2029"/>
<path fill-rule="evenodd" clip-rule="evenodd" d="M97.746 95.4277H138.932C147.043 101.732 155.028 108.246 162.887 114.97C164.064 115.306 165.199 115.138 166.25 114.55C173.646 108.078 181.211 101.816 188.944 95.848H229.29V149.222C224.793 151.197 220.296 153.257 215.841 155.316C215.295 155.526 214.748 155.61 214.16 155.526C214.538 154.349 215.001 153.257 215.631 152.164C215.925 144.893 215.925 137.581 215.631 130.31C214.118 127.326 211.933 124.931 209.117 123.165C204.914 122.661 200.669 122.367 196.299 122.325C194.197 122.367 192.18 122.619 190.205 123.165C189.953 123.081 189.743 122.955 189.574 122.745C189.07 123.754 188.356 124.594 187.473 125.267C187.263 125.645 187.221 126.065 187.263 126.528C185.456 126.654 184.741 127.62 185.162 129.469L184.531 130.73C184.237 137.581 184.237 144.473 184.531 151.323C184.951 152.71 185.582 153.971 186.422 155.106C171.797 155.526 157.088 155.652 142.294 155.526L144.186 151.744C144.48 144.893 144.48 138.001 144.186 131.15C142.504 128.209 140.319 125.603 137.671 123.376C135.99 123.165 134.309 123.081 132.628 123.165H124.223C122.542 123.081 120.861 123.165 119.18 123.376C116.658 125.477 114.641 127.914 113.086 130.73C112.792 137.749 112.792 144.725 113.086 151.744C113.464 152.584 113.842 153.425 114.136 154.265C114.178 154.433 114.094 154.601 113.926 154.685C107.076 151.996 100.142 149.642 93.123 147.541V99.6304C94.1317 97.6552 95.6867 96.2262 97.746 95.4277Z" fill="#F4B860"/>
<path fill-rule="evenodd" clip-rule="evenodd" d="M229.71 95.4277C231.811 95.3437 233.913 95.4277 236.014 95.6379C237.611 96.1842 238.746 97.2349 239.376 98.7899C239.46 125.393 239.376 152.038 239.166 178.641C238.031 179.313 237.527 180.28 237.695 181.583C235.93 182.675 233.955 183.095 231.811 182.843C230.046 179.187 228.155 175.531 226.138 171.916C221.599 166.747 216.051 163.091 209.537 160.989C211.218 159.308 212.773 157.459 214.16 155.526C214.748 155.61 215.295 155.526 215.841 155.316C220.296 153.257 224.793 151.197 229.29 149.222C229.71 131.361 229.836 113.415 229.71 95.4277Z" fill="#F4B860"/>
<path fill-rule="evenodd" clip-rule="evenodd" d="M92.7022 104.253C92.7863 129.175 92.7022 154.139 92.4921 179.061C91.9878 178.178 91.6936 177.17 91.6516 176.119C91.3153 177.464 90.6849 178.641 89.7604 179.691C89.9705 179.86 90.0966 180.07 90.1806 180.322C88.8778 183.054 89.172 185.365 91.0212 187.256C90.0545 187.803 89.1299 188.433 88.2894 189.147L87.8691 188.727C86.9866 190.114 87.0706 191.459 88.0793 192.72C87.3228 192.846 87.1967 193.14 87.659 193.56C87.2808 193.728 86.9025 193.939 86.6083 194.191C86.2301 193.392 85.5997 192.972 84.7171 192.93C84.423 192.93 84.2969 192.804 84.2969 192.51V102.993C84.6331 102.11 84.8432 101.101 84.9273 100.051C85.0534 100.891 85.2215 101.732 85.3475 102.572C85.4736 102.278 85.6417 102.026 85.7678 101.732C85.8939 103.707 86.062 105.64 86.1881 107.616C86.3562 108.54 86.7765 109.087 87.4489 109.297C88.1213 107.532 88.5836 105.724 88.9198 103.833C89.256 104.253 89.6343 104.674 89.9705 105.094C90.0966 104.253 90.2647 103.413 90.3908 102.572C90.6849 103.119 90.9371 103.119 91.2313 102.572C91.6936 103.623 91.9878 104.758 92.0718 105.935C92.1559 105.262 92.366 104.716 92.7022 104.253Z" fill="#AB2029"/>
<path fill-rule="evenodd" clip-rule="evenodd" d="M188.943 95.8479C189.069 95.5117 189.364 95.3436 189.784 95.4277H229.709C229.835 113.415 229.709 131.361 229.289 149.222V95.8479H188.943Z" fill="#F4B860"/>
<path fill-rule="evenodd" clip-rule="evenodd" d="M124.221 123.165C123.549 124.216 122.918 125.35 122.33 126.527C122.162 133.209 125.314 135.689 131.786 133.882C135.862 130.562 136.157 126.989 132.626 123.165C134.307 123.081 135.988 123.165 137.67 123.375C140.317 125.603 142.503 128.208 144.184 131.15C144.478 138 144.478 144.893 144.184 151.743L142.293 155.526C140.317 157.249 138.468 159.14 136.829 161.199C131.239 161.409 125.608 161.493 120.018 161.409C117.749 159.224 115.774 156.87 114.135 154.265C113.84 153.424 113.462 152.584 113.084 151.743C112.79 144.725 112.79 137.748 113.084 130.73C114.639 127.914 116.656 125.476 119.178 123.375C120.859 123.165 122.54 123.081 124.221 123.165Z" fill="#13100F"/>
<path fill-rule="evenodd" clip-rule="evenodd" d="M124.222 123.165H132.627C136.157 126.989 135.863 130.562 131.787 133.882C125.315 135.689 122.162 133.209 122.331 126.527C122.919 125.35 123.549 124.216 124.222 123.165Z" fill="#FAF9F9"/>
<path fill-rule="evenodd" clip-rule="evenodd" d="M196.089 123.165C192.642 126.863 192.81 130.436 196.509 133.882C200.627 135.479 203.779 134.428 205.965 130.73C206.553 129.385 206.679 127.956 206.385 126.527C205.713 125.308 204.956 124.216 204.074 123.165H209.117C211.933 124.93 214.118 127.326 215.631 130.31C215.925 137.58 215.925 144.893 215.631 152.163C215.001 153.256 214.538 154.349 214.16 155.526C212.773 157.459 211.218 159.308 209.537 160.989C203.821 161.451 198.064 161.535 192.306 161.199C190.247 159.224 188.272 157.165 186.422 155.105C185.582 153.971 184.951 152.71 184.531 151.323C184.237 144.473 184.237 137.58 184.531 130.73L185.162 129.469C187.011 127.41 188.986 125.35 191.045 123.375C192.726 123.165 194.407 123.081 196.089 123.165Z" fill="#12100F"/>
<path fill-rule="evenodd" clip-rule="evenodd" d="M196.087 123.165H204.072C204.955 124.216 205.711 125.308 206.383 126.527C206.678 127.956 206.552 129.385 205.963 130.73C203.778 134.428 200.626 135.479 196.507 133.882C192.809 130.436 192.641 126.863 196.087 123.165Z" fill="#F9F8F8"/>
<path fill-rule="evenodd" clip-rule="evenodd" d="M209.115 123.166H196.087C194.406 123.082 192.725 123.166 191.044 123.376C188.984 125.351 187.009 127.41 185.16 129.47C184.74 127.621 185.454 126.654 187.261 126.528C187.219 126.066 187.261 125.645 187.471 125.267C188.354 124.595 189.068 123.754 189.573 122.745C189.741 122.956 189.951 123.082 190.203 123.166C192.178 122.619 194.196 122.367 196.297 122.325C200.668 122.367 204.913 122.661 209.115 123.166Z" fill="#F4B860"/>
<path fill-rule="evenodd" clip-rule="evenodd" d="M239.375 98.79C239.879 125.603 239.921 152.5 239.585 179.481C239.165 180.406 238.534 181.078 237.694 181.583C237.526 180.28 238.03 179.313 239.165 178.641C239.375 152.038 239.459 125.393 239.375 98.79Z" fill="#F4B860"/>
<path fill-rule="evenodd" clip-rule="evenodd" d="M84.7173 96.2686C84.339 98.496 84.2129 100.723 84.297 102.993V191.249C83.8767 159.939 83.7506 128.545 83.8767 97.1091C84.0028 96.6888 84.297 96.3946 84.7173 96.2686Z" fill="#A12930"/>
<path fill-rule="evenodd" clip-rule="evenodd" d="M93.1221 147.541C100.141 149.642 107.075 151.996 113.925 154.686C114.093 154.602 114.177 154.433 114.135 154.265C115.774 156.871 117.75 159.224 120.019 161.41C112.16 164.015 106.487 169.059 102.998 176.539C102.2 178.263 101.864 180.112 101.948 182.003C99.8463 182.087 97.745 182.003 95.6437 181.793C94.4249 181.246 93.6684 180.364 93.3322 179.061C93.1221 168.554 93.038 158.048 93.1221 147.541Z" fill="#F4B860"/>
<path fill-rule="evenodd" clip-rule="evenodd" d="M83.8766 97.1084C83.7505 128.544 83.8766 159.938 84.2969 191.248V192.509C84.0027 192.341 83.7926 192.047 83.6665 191.669C83.3303 160.064 83.3723 128.544 83.8766 97.1084Z" fill="#54181B"/>
<path fill-rule="evenodd" clip-rule="evenodd" d="M93.1221 99.6309V147.541C93.0381 158.048 93.1221 168.555 93.3323 179.061C93.6685 180.364 94.425 181.247 95.6437 181.793C97.7451 182.003 99.8464 182.087 101.948 182.003C101.864 180.112 102.2 178.263 102.998 176.54C106.487 169.059 112.16 164.016 120.019 161.41C125.609 161.494 131.24 161.41 136.83 161.2C138.469 159.141 140.318 157.25 142.293 155.526C157.087 155.652 171.796 155.526 186.422 155.106C188.271 157.165 190.246 159.225 192.305 161.2C198.063 161.536 203.821 161.452 209.536 160.99C216.05 163.091 221.598 166.748 226.137 171.917C228.154 175.531 230.045 179.187 231.81 182.844C233.365 185.323 234.836 187.845 236.223 190.409C237.316 192.384 237.946 194.485 238.114 196.713H239.375C238.913 197.007 238.661 197.427 238.535 197.973C235.299 193.14 231.39 188.854 226.767 185.155C221.346 181.541 216.008 177.759 210.797 173.808C207.771 172.211 204.535 171.16 201.131 170.656H200.711C196.802 169.353 192.726 168.429 188.523 167.924C171.838 167.63 155.196 167.63 138.511 167.924C132.459 168.933 126.575 170.488 120.86 172.547C115.69 176.33 110.479 180.112 105.31 183.894C104.091 185.197 102.83 186.374 101.527 187.467C101.233 187.467 101.107 187.593 101.107 187.887C98.1654 190.829 95.3496 193.939 92.7019 197.133C89.5078 196.713 86.8181 195.326 84.7168 192.93C85.5994 192.972 86.2298 193.393 86.608 194.191C86.9442 193.939 87.2804 193.729 87.6587 193.561C87.1964 193.14 87.3225 192.846 88.0789 192.72C87.0703 191.459 86.9862 190.114 87.8688 188.728L88.2891 189.148C89.1296 188.433 90.0542 187.803 91.0208 187.257C89.1716 185.365 88.8774 183.054 90.1803 180.322C90.0962 180.07 89.9701 179.86 89.76 179.692C90.6846 178.641 91.315 177.464 91.6512 176.12C91.6932 177.17 91.9874 178.179 92.4917 179.061C92.7019 154.14 92.7859 129.176 92.7019 104.254C92.5758 102.615 92.7019 101.102 93.1221 99.6309Z" fill="#A92026"/>
<path fill-rule="evenodd" clip-rule="evenodd" d="M59.5008 128.628H59.0806C56.3908 128.544 53.7432 128.67 51.0955 129.049C53.5751 128.208 56.2227 127.956 59.0806 128.208V118.962C55.6764 118.836 52.3143 119.004 48.9941 119.383C49.0362 119.13 49.1622 118.92 49.4144 118.752C52.7765 118.542 56.1387 118.458 59.5008 118.542V128.628Z" fill="#DC6D49"/>
<path fill-rule="evenodd" clip-rule="evenodd" d="M59.0791 128.628V168.554C56.4314 168.806 53.9098 168.386 51.5143 167.293C50.5477 166.116 49.497 164.982 48.3623 163.931C48.3203 162.88 47.9 162.04 47.1015 161.409C46.8073 152.584 46.8073 143.758 47.1015 134.932C47.6478 134.176 47.858 133.335 47.7319 132.411C48.4043 130.898 49.5391 129.763 51.094 129.049C53.7417 128.67 56.3894 128.544 59.0791 128.628Z" fill="#F6B960"/>
<path fill-rule="evenodd" clip-rule="evenodd" d="M51.0944 129.049C49.5394 129.763 48.4047 130.898 47.7323 132.411C47.1439 133.167 46.6396 134.008 46.2613 134.932C45.9672 143.884 45.9672 152.878 46.2613 161.83C48.5728 168.007 52.9856 170.403 59.4998 168.974V178.64C55.9695 178.808 52.4393 178.598 48.9931 178.01C43.8658 172.757 38.6125 167.629 33.2331 162.67C32.9389 162.124 32.6867 161.535 32.3925 160.989C32.0983 152.289 32.0983 143.632 32.3925 134.932C37.856 129.679 43.4035 124.468 48.9931 119.383C52.3132 119.004 55.6753 118.836 59.0795 118.962V128.208C56.2217 127.956 53.574 128.208 51.0944 129.049Z" fill="#E5663F"/>
<path fill-rule="evenodd" clip-rule="evenodd" d="M59.0798 128.629H59.5001V168.975C52.9859 170.403 48.5731 168.008 46.2617 161.83C45.9675 152.878 45.9675 143.885 46.2617 134.933C46.6399 134.008 47.1442 133.168 47.7326 132.411C47.8587 133.336 47.6485 134.176 47.1022 134.933C46.808 143.759 46.808 152.584 47.1022 161.41C47.9007 162.04 48.321 162.881 48.363 163.931C49.4977 164.982 50.5484 166.117 51.515 167.293C53.9105 168.386 56.4321 168.806 59.0798 168.554V128.629Z" fill="#F6B960"/>
<path fill-rule="evenodd" clip-rule="evenodd" d="M200.71 170.656V237.058H101.527V187.466C102.83 186.374 104.091 185.197 105.31 183.894C110.479 180.112 115.69 176.329 120.86 172.547C126.575 170.487 132.459 168.932 138.511 167.924C155.195 167.63 171.838 167.63 188.523 167.924C192.725 168.428 196.802 169.353 200.71 170.656Z" fill="#F4B860"/>
<path fill-rule="evenodd" clip-rule="evenodd" d="M315.863 169.395C313.594 171.916 311.24 174.312 308.719 176.539C310.148 174.354 311.829 172.294 313.762 170.445C314.35 169.857 315.065 169.479 315.863 169.395Z" fill="#260F10"/>
<path fill-rule="evenodd" clip-rule="evenodd" d="M201.131 170.655C204.535 171.16 207.771 172.21 210.797 173.807C216.008 177.758 221.346 181.54 226.767 185.154C231.39 188.853 235.299 193.14 238.535 197.973C241.182 203.562 244.04 209.026 247.15 214.363C249.378 224.954 245.511 232.224 235.593 236.217C224.119 236.595 212.646 236.763 201.131 236.637V170.655Z" fill="#F4B860"/>
<path fill-rule="evenodd" clip-rule="evenodd" d="M191.885 180.742C188.396 180.658 184.866 180.742 181.378 180.952C181 181.373 180.579 181.751 180.117 182.003V180.322C184.11 180.196 188.018 180.322 191.885 180.742Z" fill="#D4A565"/>
<path fill-rule="evenodd" clip-rule="evenodd" d="M191.886 180.742C192.138 180.784 192.348 180.91 192.516 181.162C192.811 183.81 192.811 186.5 192.516 189.148C190.667 191.039 188.776 192.888 186.843 194.611C184.489 195.115 182.094 195.157 179.698 194.821L173.814 188.937C175.832 186.542 177.933 184.23 180.118 182.003C180.581 181.751 181.001 181.373 181.379 180.952C184.867 180.742 188.398 180.658 191.886 180.742Z" fill="#12100E"/>
<path fill-rule="evenodd" clip-rule="evenodd" d="M138.51 180.742C142.167 180.658 145.781 180.742 149.437 180.952L156.792 188.307C157.086 188.727 157.086 189.148 156.792 189.568C154.775 191.333 152.715 193.056 150.698 194.821C148.597 195.115 146.495 195.115 144.394 194.821L138.3 188.727C137.964 186.038 138.048 183.39 138.51 180.742Z" fill="#14110F"/>
<path fill-rule="evenodd" clip-rule="evenodd" d="M101.107 187.887V236.638H96.4841C90.1801 234.452 85.9354 230.25 83.666 224.03C83.3718 220.794 83.3718 217.6 83.666 214.364C86.902 208.732 89.9279 202.974 92.7017 197.133C95.3494 193.939 98.1652 190.829 101.107 187.887Z" fill="#F4B860"/>
<path fill-rule="evenodd" clip-rule="evenodd" d="M101.528 187.466V237.057C99.7625 237.183 98.0814 237.057 96.4844 236.637H101.107V187.886C101.107 187.592 101.233 187.466 101.528 187.466Z" fill="#F4B860"/>
<path fill-rule="evenodd" clip-rule="evenodd" d="M200.711 170.655H201.131V236.637C212.647 236.763 224.12 236.595 235.593 236.217C234.963 236.553 234.29 236.763 233.492 236.847C222.565 237.058 211.638 237.142 200.711 237.058V170.655Z" fill="#F4B860"/>
<path fill-rule="evenodd" clip-rule="evenodd" d="M107.412 248.825C108.841 251.011 110.774 252.482 113.296 253.238C117.12 254.793 120.902 256.474 124.643 258.281C125.904 258.491 127.164 258.786 128.425 259.122C140.613 259.206 152.801 259.248 164.988 259.332C178.017 259.374 191.045 259.164 204.073 258.701C210.041 256.432 215.925 253.91 221.725 251.137C222.523 250.422 223.195 249.666 223.826 248.825H230.13C229.373 251.011 228.113 252.902 226.347 254.499C220.548 258.239 215.252 262.568 210.377 267.527C208.36 269.04 206.133 269.923 203.653 270.259C177.302 270.385 150.951 270.259 124.643 269.839C123.256 269.418 121.995 268.788 120.86 267.947C116.027 262.652 110.564 258.197 104.47 254.499C102.747 252.86 101.486 250.969 100.688 248.825H107.412Z" fill="#E46640"/>
<path fill-rule="evenodd" clip-rule="evenodd" d="M107.412 248.825H223.826C223.196 249.666 222.523 250.422 221.725 251.137C215.925 253.91 210.041 256.432 204.074 258.701C191.045 259.164 178.017 259.374 164.989 259.332C152.801 259.248 140.613 259.206 128.425 259.122C127.165 258.786 125.904 258.491 124.643 258.281C120.903 256.474 117.12 254.793 113.296 253.238C110.774 252.482 108.841 251.011 107.412 248.825Z" fill="#F6B761"/>
<path fill-rule="evenodd" clip-rule="evenodd" d="M124.643 269.839C150.951 270.259 177.302 270.385 203.653 270.259C177.806 270.763 151.876 270.805 125.903 270.469C125.399 270.385 124.979 270.175 124.643 269.839Z" fill="#CE6B4D"/>
<path fill-rule="evenodd" clip-rule="evenodd" d="M270.895 168.596H271.315C274.005 168.68 276.652 168.554 279.3 168.176C276.82 169.016 274.173 169.268 271.315 169.016V178.262C274.719 178.388 278.081 178.22 281.401 177.842C281.359 178.094 281.233 178.304 280.981 178.472C277.619 178.682 274.257 178.767 270.895 178.682V168.596Z" fill="#DC6D49"/>
<path fill-rule="evenodd" clip-rule="evenodd" d="M271.314 168.596V128.671C273.962 128.418 276.484 128.839 278.879 129.931C279.846 131.108 280.897 132.243 282.031 133.293C282.073 134.344 282.494 135.185 283.292 135.815C283.586 144.641 283.586 153.466 283.292 162.292C282.746 163.048 282.536 163.889 282.662 164.814C281.989 166.326 280.855 167.461 279.3 168.176C276.652 168.554 274.004 168.68 271.314 168.596Z" fill="#F6B960"/>
<path fill-rule="evenodd" clip-rule="evenodd" d="M279.3 168.176C280.855 167.461 281.99 166.327 282.662 164.814C283.25 164.057 283.755 163.217 284.133 162.292C284.427 153.34 284.427 144.347 284.133 135.395C281.821 129.217 277.409 126.822 270.895 128.251V118.584C274.425 118.416 277.955 118.626 281.401 119.215C286.528 124.468 291.782 129.595 297.161 134.555C297.455 135.101 297.708 135.689 298.002 136.236C298.296 144.935 298.296 153.593 298.002 162.292C292.538 167.546 286.991 172.757 281.401 177.842C278.081 178.22 274.719 178.388 271.315 178.262V169.016C274.173 169.269 276.82 169.016 279.3 168.176Z" fill="#E5663F"/>
<path fill-rule="evenodd" clip-rule="evenodd" d="M271.315 168.596H270.895V128.25C277.409 126.821 281.821 129.217 284.133 135.395C284.427 144.347 284.427 153.34 284.133 162.292C283.755 163.217 283.25 164.057 282.662 164.814C282.536 163.889 282.746 163.048 283.292 162.292C283.587 153.466 283.587 144.641 283.292 135.815C282.494 135.185 282.074 134.344 282.032 133.294C280.897 132.243 279.846 131.108 278.88 129.931C276.484 128.839 273.962 128.418 271.315 128.671V168.596Z" fill="#F6B960"/>
<path d="M237.656 98.3691H219.795V164.435H237.656V98.3691Z" fill="#F4B860"/>
</svg>
