<svg width="55" height="62" viewBox="0 0 55 62" fill="none" xmlns="http://www.w3.org/2000/svg">
<g clip-path="url(#clip0_571_57119)">
<path d="M43.419 32.1597H40.5234V35.084H43.419H46.3145V32.1597H43.419Z" fill="#64AD3B"/>
<path d="M34.7393 5.84863H31.8438V8.77297H34.7393V5.84863Z" fill="#64AD3B"/>
<path d="M20.2617 20.4624V23.3868V26.3111V29.2354H23.1573V26.3111V23.3868V20.4624V17.5381H20.2617V20.4624Z" fill="#64AD3B"/>
<path d="M20.2627 29.2354H17.3672V32.1597H20.2627V29.2354Z" fill="#64AD3B"/>
<path d="M17.3663 32.1597H14.4707V35.084H17.3663V32.1597Z" fill="#64AD3B"/>
<path d="M54.9991 32.1597H52.1035V35.084H54.9991V32.1597Z" fill="#010101"/>
<path d="M52.1045 35.084H49.209V38.0083H52.1045V35.084Z" fill="#010101"/>
<path d="M49.2081 38.0083H46.3125V40.9326H49.2081V38.0083Z" fill="#010101"/>
<path d="M46.3135 40.9326H43.418V43.8491H46.3135V40.9326Z" fill="#010101"/>
<path d="M43.417 43.8491H40.5215V46.7735H43.417V43.8491Z" fill="#010101"/>
<path d="M43.417 32.1597H46.3126H49.2082H52.1037V29.2354H49.2082H46.3126H43.417H40.5215V32.1597H43.417Z" fill="#010101"/>
<path d="M40.5225 46.7734H37.627V49.6978H40.5225V46.7734Z" fill="#010101"/>
<path d="M37.627 8.77299V11.6973V14.6138V17.5381V20.4625V23.3868V26.3111V29.2355H40.5225V26.3111V23.3868V20.4625V17.5381V14.6138V11.6973V8.77299V5.84865V2.92432H37.627V5.84865V8.77299Z" fill="#010101"/>
<path d="M37.6261 49.6982H34.7383V52.6226H37.6261V49.6982Z" fill="#010101"/>
<path d="M34.7393 52.6226H31.8438V55.5469H34.7393V52.6226Z" fill="#010101"/>
<path d="M31.8428 55.5469H28.9473V58.4712H31.8428V55.5469Z" fill="#010101"/>
<path d="M28.9483 58.4712H26.0527V61.3955H28.9483V58.4712Z" fill="#010101"/>
<path d="M26.0518 55.5469H23.1562V58.4712H26.0518V55.5469Z" fill="#010101"/>
<path d="M23.1573 52.6226H20.2617V55.5469H23.1573V52.6226Z" fill="#010101"/>
<path d="M23.1563 2.92434H26.0519H28.9475H31.843H34.7386H37.6263V0H34.7386H31.843H28.9475H26.0519H23.1563H20.2608H17.3652V2.92434H20.2608H23.1563Z" fill="#010101"/>
<path d="M20.2608 49.6982H17.3652V52.6226H20.2608V49.6982Z" fill="#010101"/>
<path d="M17.3663 46.7734H14.4707V49.6978H17.3663V46.7734Z" fill="#010101"/>
<path d="M17.3663 26.3111V23.3868V20.4625V17.5381V14.6138V11.6973V8.77299V5.84865V2.92432H14.4707V5.84865V8.77299V11.6973V14.6138V17.5381V20.4625V23.3868V26.3111V29.2355H17.3663V26.3111Z" fill="#010101"/>
<path d="M14.4698 43.8491H11.5742V46.7735H14.4698V43.8491Z" fill="#010101"/>
<path d="M11.5752 40.9326H8.67969V43.8491H11.5752V40.9326Z" fill="#010101"/>
<path d="M8.67879 38.0083H5.79102V40.9326H8.67879V38.0083Z" fill="#010101"/>
<path d="M8.67981 32.1597H11.5754H14.4709V29.2354H11.5754H8.67981H5.79204H2.89648V32.1597H5.79204H8.67981Z" fill="#010101"/>
<path d="M5.79204 35.084H2.89648V38.0083H5.79204V35.084Z" fill="#010101"/>
<path d="M2.89556 32.1597H0V35.084H2.89556V32.1597Z" fill="#010101"/>
<path d="M52.1045 32.1597H49.209V35.084H52.1045V32.1597Z" fill="#368D00"/>
<path d="M49.2081 35.084H46.3125V38.0083H49.2081V35.084Z" fill="#368D00"/>
<path d="M46.3135 38.0083H43.418V40.9326H46.3135V38.0083Z" fill="#368D00"/>
<path d="M43.417 40.9326H40.5215V43.8491H43.417V40.9326Z" fill="#368D00"/>
<path d="M40.5225 43.8491H37.627V46.7735H40.5225V43.8491Z" fill="#368D00"/>
<path d="M37.6261 46.7734H34.7383V49.6978H37.6261V46.7734Z" fill="#368D00"/>
<path d="M34.7393 49.6982H31.8438V52.6226H34.7393V49.6982Z" fill="#368D00"/>
<path d="M31.8428 52.6226H28.9473V55.5469H31.8428V52.6226Z" fill="#368D00"/>
<path d="M28.9483 55.5469H26.0527V58.4712H28.9483V55.5469Z" fill="#368D00"/>
<path d="M40.522 32.1598H37.6264V29.2354H34.7387V26.3111V23.3868V20.4624V17.5381V14.6138V11.6973V8.77295H31.8431H28.9476H26.052H23.1564V11.6973V14.6138V17.5381V20.4624V23.3868V26.3111V29.2354H20.2609V32.1598V35.0841H17.3653V38.0085H14.4698H11.5742V40.9328H14.4698V43.8493H17.3653V46.7736H20.2609V49.6979H23.1564V52.6223H26.052H28.9476V49.6979H31.8431V46.7736H34.7387V43.8493H37.6264V40.9328H40.522V38.0085H43.4176V35.0841H40.522V32.1598Z" fill="#64AD3B"/>
<path d="M11.5752 35.084H8.67969V38.0083H11.5752V35.084Z" fill="#64AD3B"/>
<path d="M49.2081 32.1597H46.3125V35.084H49.2081V32.1597Z" fill="#64AD3B"/>
<path d="M46.3135 35.084H43.418V38.0083H46.3135V35.084Z" fill="#64AD3B"/>
<path d="M43.417 38.0083H40.5215V40.9326H43.417V38.0083Z" fill="#64AD3B"/>
<path d="M40.5225 40.9326H37.627V43.8491H40.5225V40.9326Z" fill="#64AD3B"/>
<path d="M40.5225 29.2354H37.627V32.1597H40.5225V29.2354Z" fill="#64AD3B"/>
<path d="M37.6261 43.8491H34.7383V46.7735H37.6261V43.8491Z" fill="#64AD3B"/>
<path d="M37.6261 23.3868V20.4625V17.5381V14.6138V11.6973V8.77297V5.84863H34.7383V8.77297V11.6973V14.6138V17.5381V20.4625V23.3868V26.3111V29.2355H37.6261V26.3111V23.3868Z" fill="#64AD3B"/>
<path d="M34.7393 46.7734H31.8438V49.6978H34.7393V46.7734Z" fill="#64AD3B"/>
<path d="M31.8428 49.6982H28.9473V52.6226H31.8428V49.6982Z" fill="#64AD3B"/>
<path d="M23.1562 52.6226V55.5469H26.0518H28.9474V52.6226H26.0518H23.1562Z" fill="#64AD3B"/>
<path d="M23.1573 49.6982H20.2617V52.6226H23.1573V49.6982Z" fill="#64AD3B"/>
<path d="M20.2608 46.7734H17.3652V49.6978H20.2608V46.7734Z" fill="#64AD3B"/>
<path d="M17.3663 43.8491H14.4707V46.7735H17.3663V43.8491Z" fill="#64AD3B"/>
<path d="M14.4698 40.9326H11.5742V43.8491H14.4698V40.9326Z" fill="#64AD3B"/>
<path d="M11.5752 38.0083H8.67969V40.9326H11.5752V38.0083Z" fill="#64AD3B"/>
<path d="M8.67879 35.084H5.79102V38.0083H8.67879V35.084Z" fill="#64AD3B"/>
<path d="M31.843 2.92432H28.9475H26.0519H23.1563H20.2608H17.3652V5.84865V8.77299V11.6973V14.6138V17.5381V20.4625V23.3868V26.3111V29.2355H20.2608V26.3111V23.3868V20.4625V17.5381V14.6138V11.6973V8.77299V5.84865H23.1563H26.0519H28.9475H31.843H34.7386H37.6263V2.92432H34.7386H31.843Z" fill="#95C87D"/>
<path d="M17.3663 29.2354H14.4707V32.1597H17.3663V29.2354Z" fill="#95C87D"/>
<path d="M8.67981 32.1597H5.79204H2.89648V35.084H5.79204H8.67981H11.5754H14.4709V32.1597H11.5754H8.67981Z" fill="#95C87D"/>
<path d="M26.0528 5.84863H23.1573H20.2617V8.77297V11.6973V14.6138V17.5381H23.1573V14.6138V11.6973V8.77297H26.0528H28.9484H31.8439V5.84863H28.9484H26.0528Z" fill="#64AD3B"/>
<path d="M20.2608 32.1597H17.3652V35.084H20.2608V32.1597Z" fill="#95C87D"/>
<path d="M11.5742 35.084V38.0083H14.4698H17.3653V35.084H14.4698H11.5742Z" fill="#95C87D"/>
</g>
<defs>
<clipPath id="clip0_571_57119">
<rect width="55" height="61.3953" fill="white"/>
</clipPath>
</defs>
</svg>
