<svg preserveAspectRatio="none" width="48" height="64" viewBox="0 0 48 64" fill="none" xmlns="http://www.w3.org/2000/svg">
<path d="M20 0V2H16V4H12V6H10V8H8V10H6V12H4V16H2V20H0V44H2V48H4V52H6V54H8V56H10V58H12V60H16V62H20V64H48V62V60V58V56V54V52V48V44V20V16V12V10V8V6V4V2V0H20Z" fill="#00A1FA"/>
<path d="M24 2H20V4H24V2Z" fill="#AAE7FF"/>
<path d="M48 4H46V6H48V4Z" fill="#AAE7FF"/>
<path d="M20 4H16V6H20V4Z" fill="#AAE7FF"/>
<path d="M16 6H12V8H16V6Z" fill="#AAE7FF"/>
<path d="M12 8H10V12H12V8Z" fill="#AAE7FF"/>
<path d="M10 10H8V12H10V10Z" fill="#AAE7FF"/>
<path d="M8 12H6V16H8V12Z" fill="#AAE7FF"/>
<path d="M4 20H2V26H4V20Z" fill="#AAE7FF"/>
<path d="M6 16H4V20H6V16Z" fill="#AAE7FF"/>
<path d="M46 2H24V4H20V6H16V8H12V10H10V12H8V14H6V18H8V16H10V14H12V12H16V10H20V8H24V6H46V4H48V2H46Z" fill="white"/>
<path d="M6 18H4V22H6V18Z" fill="white"/>
<path d="M48 0H20V2H48V0Z" fill="black"/>
<path d="M48 62H20V64H48V62Z" fill="black"/>
<path d="M20 2H16V4H20V2Z" fill="black"/>
<path d="M16 4H12V6H16V4Z" fill="black"/>
<path d="M16 58H12V60H16V58Z" fill="black"/>
<path d="M20 60H16V62H20V60Z" fill="black"/>
<path d="M12 6H10V8H12V6Z" fill="black"/>
<path d="M10 8H8V10H10V8Z" fill="black"/>
<path d="M8 10H6V12H8V10Z" fill="black"/>
<path d="M8 52H6V54H8V52Z" fill="black"/>
<path d="M12 56H10V58H12V56Z" fill="black"/>
<path d="M10 54H8V56H10V54Z" fill="black"/>
<path d="M6 12H4V16H6V12Z" fill="black"/>
<path d="M6 48H4V52H6V48Z" fill="black"/>
<path d="M4 16H2V20H4V16Z" fill="black"/>
<path d="M4 44H2V48H4V44Z" fill="black"/>
<path d="M2 20H0V44H2V20Z" fill="black"/>
<path d="M20 56V54H16V52H12V50H10V48H8V46H6V42H4V38H2V44H4V48H6V52H8V54H10V56H12V58H16V60H20V62H48V56H20Z" fill="#00A1FA"/>
</svg>
