<svg preserveAspectRatio="none" width="48" height="64" viewBox="0 0 48 64" fill="none" xmlns="http://www.w3.org/2000/svg">
<path d="M28 0V2H32V4H36V6H38V8H40V10H42V12H44V16H46V20H48V44H46V48H44V52H42V54H40V56H38V58H36V60H32V62H28V64H0V62V60V58V56V54V52V48V44V20V16V12V10V8V6V4V2V0H28Z" fill="#00A1FA"/>
<path d="M40 12V10H38V8H36V6H32V4H28V2H0V6H28V8H32V10H36V12H38V14H40V16H42V12H40Z" fill="#AAE7FF"/>
<path d="M46 20H44V24H46V20Z" fill="#AAE7FF"/>
<path d="M44 16H42V20H44V16Z" fill="#AAE7FF"/>
<path d="M0 2L28 2V0L0 0V2Z" fill="black"/>
<path d="M0 64H28V62H0V64Z" fill="black"/>
<path d="M28 4L32 4V2L28 2V4Z" fill="black"/>
<path d="M32 6L36 6V4L32 4V6Z" fill="black"/>
<path d="M32 60H36V58H32V60Z" fill="black"/>
<path d="M28 62H32V60H28V62Z" fill="black"/>
<path d="M36 8H38V6H36V8Z" fill="black"/>
<path d="M38 10H40V8H38V10Z" fill="black"/>
<path d="M40 12H42V10H40V12Z" fill="black"/>
<path d="M40 54H42V52H40V54Z" fill="black"/>
<path d="M36 58H38V56H36V58Z" fill="black"/>
<path d="M38 56H40V54H38V56Z" fill="black"/>
<path d="M42 16H44V12H42V16Z" fill="black"/>
<path d="M42 52H44V48H42V52Z" fill="black"/>
<path d="M44 20H46V16H44V20Z" fill="black"/>
<path d="M44 48H46V44H44V48Z" fill="black"/>
<path d="M46 44H48V20H46V44Z" fill="black"/>
<path d="M44 38V42H42V46H40V48H38V50H36V52H32V54H28V56H0V62H28V60H32V58H36V56H38V54H40V52H42V48H44V44H46V38H44Z" fill="#00A1FA"/>
</svg>
