<svg preserveAspectRatio="none" width="30" height="42" viewBox="0 0 30 42" fill="none" xmlns="http://www.w3.org/2000/svg">
<path d="M12 0V2H8V4H6V6H4V8H2V12H0V30H2V34H4V36H6V38H8V40H12V42H30V40V38V36V34V30V12V8V6V4V2V0H12Z" fill="#64AD3B"/>
<path d="M4 12H2V14H4V12Z" fill="#95C87D"/>
<path d="M6 8H4V10H6V8Z" fill="#95C87D"/>
<path d="M8 6H6V8H8V6Z" fill="#95C87D"/>
<path d="M10 4H8V6H10V4Z" fill="#95C87D"/>
<path d="M14 2H12V4H14V2Z" fill="#95C87D"/>
<path d="M4 26H2V30H4V26Z" fill="#368D00"/>
<path d="M12 36V34H8V32H6V30H4V34H6V36H8V38H12V40H30V36H12Z" fill="#368D00"/>
<path d="M8 8H6V10H8V8Z" fill="white"/>
<path d="M10 6H8V8H10V6Z" fill="white"/>
<path d="M14 4H10V6H14V4Z" fill="white"/>
<path d="M30 2H14V4H30V2Z" fill="white"/>
<path d="M6 10H4V14H6V10Z" fill="white"/>
<path d="M30 0H12V2H30V0Z" fill="black"/>
<path d="M30 40H12V42H30V40Z" fill="black"/>
<path d="M12 2H8V4H12V2Z" fill="black"/>
<path d="M12 38H8V40H12V38Z" fill="black"/>
<path d="M8 4H6V6H8V4Z" fill="black"/>
<path d="M8 36H6V38H8V36Z" fill="black"/>
<path d="M6 6H4V8H6V6Z" fill="black"/>
<path d="M6 34H4V36H6V34Z" fill="black"/>
<path d="M4 30H2V34H4V30Z" fill="black"/>
<path d="M4 8H2V12H4V8Z" fill="black"/>
<path d="M2 12H0V30H2V12Z" fill="black"/>
</svg>
