<svg preserveAspectRatio="none" width="30" height="34" viewBox="0 0 30 34" fill="none" xmlns="http://www.w3.org/2000/svg">
<path d="M18 34V32H22V30H24V28H26V26H28V8H26V6H24V4H22V2H18V0H0V34H18Z" fill="#64AD3B"/>
<path d="M26 14H28V12H26V14Z" fill="#95C87D"/>
<path d="M24 12H26V8H24V12Z" fill="#95C87D"/>
<path d="M22 8H24V6H22V8Z" fill="#95C87D"/>
<path d="M18 6H22V4H18V6Z" fill="#95C87D"/>
<path d="M0 4H18V2H0V4Z" fill="#95C87D"/>
<path d="M28 14H26V22H28V14Z" fill="#368D00"/>
<path d="M18 28V26H22V24H24V22H26V26H24V28H22V30H18V32H0V28H18Z" fill="#368D00"/>
<path d="M0 2H18V0H0V2Z" fill="black"/>
<path d="M0 34H18V32H0V34Z" fill="black"/>
<path d="M18 4H22V2H18V4Z" fill="black"/>
<path d="M18 32H22V30H18V32Z" fill="black"/>
<path d="M22 6H24V4H22V6Z" fill="black"/>
<path d="M22 30H24V28H22V30Z" fill="black"/>
<path d="M24 8H26V6H24V8Z" fill="black"/>
<path d="M24 28H26V26H24V28Z" fill="black"/>
<path d="M26 26H28V22H26V26Z" fill="black"/>
<path d="M26 12H28V8H26V12Z" fill="black"/>
<path d="M28 22H30V12H28V22Z" fill="black"/>
</svg>
