<svg preserveAspectRatio="none" width="30" height="28" viewBox="0 0 30 28" fill="none" xmlns="http://www.w3.org/2000/svg">
<path d="M10 0V2H6V4H4V6H2V8H0V12V16V20H2V22H4V24H6V26H10V28H30V0H10Z" fill="#FFA400"/>
<path d="M2 12H0V14H2V12Z" fill="#FFE077"/>
<path d="M4 8H2V10H4V8Z" fill="#FFE077"/>
<path d="M6 6H4V8H6V6Z" fill="#FFE077"/>
<path d="M8 4H6V6H8V4Z" fill="#FFE077"/>
<path d="M12 2H10V4H12V2Z" fill="#FFE077"/>
<path d="M2 14H0V16H2V14Z" fill="#FFA400"/>
<path d="M10 22V20H6V18H4V16H2V20H4V22H6V24H10V26H30V22H10Z" fill="#FFA400"/>
<path d="M6 8H4V10H6V8Z" fill="white"/>
<path d="M8 6H6V8H8V6Z" fill="white"/>
<path d="M12 4H8V6H12V4Z" fill="white"/>
<path d="M30 2H12V4H30V2Z" fill="white"/>
<path d="M4 10H2V14H4V10Z" fill="white"/>
<path d="M30 0H10V2H30V0Z" fill="black"/>
<path d="M30 26H10V28H30V26Z" fill="black"/>
<path d="M10 2H6V4H10V2Z" fill="black"/>
<path d="M10 24H6V26H10V24Z" fill="black"/>
<path d="M6 4H4V6H6V4Z" fill="black"/>
<path d="M6 22H4V24H6V22Z" fill="black"/>
<path d="M4 6H2V8H4V6Z" fill="black"/>
<path d="M4 20H2V22H4V20Z" fill="black"/>
<path d="M2 16H0V20H2V16Z" fill="black"/>
<path d="M2 8H0V12H2V8Z" fill="black"/>
<path d="M2 12H0V16H2V12Z" fill="black"/>
</svg>
