<svg preserveAspectRatio="none" width="48" height="53" viewBox="0 0 48 53" fill="none" xmlns="http://www.w3.org/2000/svg">
<path d="M20 0V2H16V4H12V6H10V8H8V10H6V12H4V16H2V20H0V33H2V37H4V41H6V43H8V45H10V47H12V49H16V51H20V53H48V0H20Z" fill="#FFA400"/>
<path d="M24 2H20V4H24V2Z" fill="#FFE077"/>
<path d="M48 4H46V6H48V4Z" fill="white"/>
<path d="M20 4H16V6H20V4Z" fill="#FFE077"/>
<path d="M16 6H12V8H16V6Z" fill="#FFE077"/>
<path d="M12 8H10V12H12V8Z" fill="#FFE077"/>
<path d="M10 10H8V12H10V10Z" fill="#FFE077"/>
<path d="M8 12H6V16H8V12Z" fill="#FFE077"/>
<path d="M4 20H2V26H4V20Z" fill="#FFE077"/>
<path d="M6 16H4V20H6V16Z" fill="#FFE077"/>
<path d="M46 2H24V4H20V6H16V8H12V10H10V12H8V14H6V18H8V16H10V14H12V12H16V10H20V8H24V6H46V4H48V2H46Z" fill="white"/>
<path d="M6 18H4V22H6V18Z" fill="white"/>
<path d="M48 0H20V2H48V0Z" fill="black"/>
<path d="M48 51H20V53H48V51Z" fill="black"/>
<path d="M20 2H16V4H20V2Z" fill="black"/>
<path d="M16 4H12V6H16V4Z" fill="black"/>
<path d="M16 47H12V49H16V47Z" fill="black"/>
<path d="M20 49H16V51H20V49Z" fill="black"/>
<path d="M12 6H10V8H12V6Z" fill="black"/>
<path d="M10 8H8V10H10V8Z" fill="black"/>
<path d="M8 10H6V12H8V10Z" fill="black"/>
<path d="M8 41H6V43H8V41Z" fill="black"/>
<path d="M12 45H10V47H12V45Z" fill="black"/>
<path d="M10 43H8V45H10V43Z" fill="black"/>
<path d="M6 12H4V16H6V12Z" fill="black"/>
<path d="M6 37H4V41H6V37Z" fill="black"/>
<path d="M4 16H2V20H4V16Z" fill="black"/>
<path d="M4 33H2V37H4V33Z" fill="black"/>
<path d="M2 20H0V33H2V20Z" fill="black"/>
<path d="M20 45V43H16V41H12V39H10V37H8V35H6V31H4V27H2V33H4V37H6V41H8V43H10V45H12V47H16V49H20V51H48V45H20Z" fill="#FFE077"/>
</svg>
