<svg preserveAspectRatio="none" width="48" height="26" viewBox="0 0 48 26" fill="none" xmlns="http://www.w3.org/2000/svg">
<path d="M0 0V6V10V14V16V18V20V22V24V26H28V24H32V22H36V20H38V18H40V16H42V14H44V10H46V6H48V0H0Z" fill="#64AD3B"/>
<path d="M0 26L28 26V24L0 24V26Z" fill="black"/>
<path d="M32 22H36V20H32V22Z" fill="black"/>
<path d="M28 24H32V22H28V24Z" fill="black"/>
<path d="M40 16H42V14H40V16Z" fill="black"/>
<path d="M36 20H38V18H36V20Z" fill="black"/>
<path d="M38 18H40V16H38V18Z" fill="black"/>
<path d="M42 14H44V10H42V14Z" fill="black"/>
<path d="M44 10H46V6H44V10Z" fill="black"/>
<path d="M46 6H48V0H46V6Z" fill="black"/>
<path d="M44 0V4H42V8H40V10H38V12H36V14H32V16H28V18H0V24H28V22H32V20H36V18H38V16H40V14H42V10H44V6H46V0H44Z" fill="#368D00"/>
</svg>
