<svg preserveAspectRatio="none" width="48" height="26" viewBox="0 0 48 26" fill="none" xmlns="http://www.w3.org/2000/svg">
<path d="M0 0V6H2V10H4V14H6V16H8V18H10V20H12V22H16V24H20V26H48V24V22V20V18V16V14V10V6V0H0Z" fill="#64AD3B"/>
<path d="M48 24H20V26H48V24Z" fill="black"/>
<path d="M16 20H12V22H16V20Z" fill="black"/>
<path d="M20 22H16V24H20V22Z" fill="black"/>
<path d="M8 14H6V16H8V14Z" fill="black"/>
<path d="M12 18H10V20H12V18Z" fill="black"/>
<path d="M10 16H8V18H10V16Z" fill="black"/>
<path d="M6 10H4V14H6V10Z" fill="black"/>
<path d="M4 6H2V10H4V6Z" fill="black"/>
<path d="M2 0H0V6H2V0Z" fill="black"/>
<path d="M20 18V16H16V14H12V12H10V10H8V8H6V4H4V0H2V6H4V10H6V14H8V16H10V18H12V20H16V22H20V24H48V18H20Z" fill="#368D00"/>
</svg>
