<?xml version="1.0" encoding="UTF-8" standalone="no"?>
<svg
   preserveAspectRatio="none"
   width="48"
   height="26"
   viewBox="0 0 48 26"
   fill="none"
   version="1.1"
   id="svg11"
   sodipodi:docname="panel-red-main-bl.svg"
   inkscape:version="1.4 (e7c3feb1, 2024-10-09)"
   xmlns:inkscape="http://www.inkscape.org/namespaces/inkscape"
   xmlns:sodipodi="http://sodipodi.sourceforge.net/DTD/sodipodi-0.dtd"
   xmlns="http://www.w3.org/2000/svg"
   xmlns:svg="http://www.w3.org/2000/svg">
  <defs
     id="defs11">
    <filter
       style="color-interpolation-filters:sRGB;"
       inkscape:label="Colorize"
       id="filter12"
       x="0"
       y="0"
       width="1"
       height="1">
      <feComposite
         in2="SourceGraphic"
         operator="arithmetic"
         k1="2.77556e-17"
         k2="1"
         result="composite1"
         id="feComposite11" />
      <feColorMatrix
         in="composite1"
         values="0"
         type="saturate"
         result="colormatrix1"
         id="feColorMatrix11" />
      <feFlood
         flood-opacity="1"
         flood-color="rgb(199,35,35)"
         result="flood1"
         id="feFlood11" />
      <feBlend
         in="flood1"
         in2="colormatrix1"
         mode="multiply"
         result="blend1"
         id="feBlend11" />
      <feBlend
         in2="blend1"
         mode="normal"
         result="blend2"
         id="feBlend12" />
      <feColorMatrix
         in="blend2"
         values="1"
         type="saturate"
         result="colormatrix2"
         id="feColorMatrix12" />
      <feComposite
         in="colormatrix2"
         in2="SourceGraphic"
         operator="in"
         k2="1"
         result="composite2"
         id="feComposite12" />
    </filter>
    <filter
       style="color-interpolation-filters:sRGB;"
       inkscape:label="Colorize"
       id="filter14"
       x="0"
       y="0"
       width="1"
       height="1">
      <feComposite
         in2="SourceGraphic"
         operator="arithmetic"
         k1="2.77556e-17"
         k2="1"
         result="composite1"
         id="feComposite13" />
      <feColorMatrix
         in="composite1"
         values="0"
         type="saturate"
         result="colormatrix1"
         id="feColorMatrix13" />
      <feFlood
         flood-opacity="1"
         flood-color="rgb(199,35,35)"
         result="flood1"
         id="feFlood13" />
      <feBlend
         in="flood1"
         in2="colormatrix1"
         mode="multiply"
         result="blend1"
         id="feBlend13" />
      <feBlend
         in2="blend1"
         mode="normal"
         result="blend2"
         id="feBlend14" />
      <feColorMatrix
         in="blend2"
         values="1"
         type="saturate"
         result="colormatrix2"
         id="feColorMatrix14" />
      <feComposite
         in="colormatrix2"
         in2="SourceGraphic"
         operator="in"
         k2="1"
         result="composite2"
         id="feComposite14" />
    </filter>
  </defs>
  <sodipodi:namedview
     id="namedview11"
     pagecolor="#ffffff"
     bordercolor="#000000"
     borderopacity="0.25"
     inkscape:showpageshadow="2"
     inkscape:pageopacity="0.0"
     inkscape:pagecheckerboard="0"
     inkscape:deskcolor="#d1d1d1"
     inkscape:zoom="22"
     inkscape:cx="24.022727"
     inkscape:cy="12.977273"
     inkscape:window-width="1200"
     inkscape:window-height="1186"
     inkscape:window-x="0"
     inkscape:window-y="25"
     inkscape:window-maximized="0"
     inkscape:current-layer="svg11" />
  <path
     d="M0 0V6H2V10H4V14H6V16H8V18H10V20H12V22H16V24H20V26H48V0H0Z"
     fill="#FFCD1F"
     id="path1"
     style="filter:url(#filter14)" />
  <path
     d="M48 24H20V26H48V24Z"
     fill="black"
     id="path2" />
  <path
     d="M16 20H12V22H16V20Z"
     fill="black"
     id="path3" />
  <path
     d="M20 22H16V24H20V22Z"
     fill="black"
     id="path4" />
  <path
     d="M8 14H6V16H8V14Z"
     fill="black"
     id="path5" />
  <path
     d="M12 18H10V20H12V18Z"
     fill="black"
     id="path6" />
  <path
     d="M10 16H8V18H10V16Z"
     fill="black"
     id="path7" />
  <path
     d="M6 10H4V14H6V10Z"
     fill="black"
     id="path8" />
  <path
     d="M4 6H2V10H4V6Z"
     fill="black"
     id="path9" />
  <path
     d="M2 0H0V6H2V0Z"
     fill="black"
     id="path10" />
  <path
     d="M20 18V16H16V14H12V12H10V10H8V8H6V4H4V0H2V6H4V10H6V14H8V16H10V18H12V20H16V22H20V24H48V18H20Z"
     fill="#FFA400"
     id="path11"
     style="filter:url(#filter12)" />
</svg>
