<svg preserveAspectRatio="none" width="30" height="14" viewBox="0 0 30 14" fill="none" xmlns="http://www.w3.org/2000/svg">
<path fill-rule="evenodd" clip-rule="evenodd" d="M30 14H0V12V8V6V4V2V0H18V2H22V4H24V6H26V8H28V12H30V14Z" fill="#64AD3B"/>
<path d="M26 14H28V12H26V14Z" fill="#95C87D"/>
<path d="M24 12H26V8H24V12Z" fill="#95C87D"/>
<path d="M22 8H24V6H22V8Z" fill="#95C87D"/>
<path d="M18 6L22 6V4L18 4V6Z" fill="#95C87D"/>
<path d="M0 4L18 4V2L0 2V4Z" fill="#95C87D"/>
<path d="M0 2L18 2V0L0 0V2Z" fill="black"/>
<path d="M18 4L22 4V2L18 2V4Z" fill="black"/>
<path d="M22 6H24V4L22 4V6Z" fill="black"/>
<path d="M24 8H26V6H24V8Z" fill="black"/>
<path d="M26 12H28V8H26V12Z" fill="black"/>
<path d="M28 14H30V12H28V14Z" fill="black"/>
</svg>
