<?xml version="1.0" encoding="UTF-8" standalone="no"?>
<svg
   preserveAspectRatio="none"
   width="48"
   height="26"
   viewBox="0 0 48 26"
   fill="none"
   version="1.1"
   id="svg11"
   sodipodi:docname="panel-red-main-br.svg"
   inkscape:version="1.4 (e7c3feb1, 2024-10-09)"
   xmlns:inkscape="http://www.inkscape.org/namespaces/inkscape"
   xmlns:sodipodi="http://sodipodi.sourceforge.net/DTD/sodipodi-0.dtd"
   xmlns="http://www.w3.org/2000/svg"
   xmlns:svg="http://www.w3.org/2000/svg">
  <defs
     id="defs11">
    <filter
       style="color-interpolation-filters:sRGB;"
       inkscape:label="Colorize"
       id="filter13"
       x="0"
       y="0"
       width="1"
       height="1">
      <feComposite
         in2="SourceGraphic"
         operator="arithmetic"
         k1="2.77556e-17"
         k2="1"
         result="composite1"
         id="feComposite12" />
      <feColorMatrix
         in="composite1"
         values="0"
         type="saturate"
         result="colormatrix1"
         id="feColorMatrix12" />
      <feFlood
         flood-opacity="1"
         flood-color="rgb(199,35,35)"
         result="flood1"
         id="feFlood12" />
      <feBlend
         in="flood1"
         in2="colormatrix1"
         mode="multiply"
         result="blend1"
         id="feBlend12" />
      <feBlend
         in2="blend1"
         mode="normal"
         result="blend2"
         id="feBlend13" />
      <feColorMatrix
         in="blend2"
         values="1"
         type="saturate"
         result="colormatrix2"
         id="feColorMatrix13" />
      <feComposite
         in="colormatrix2"
         in2="SourceGraphic"
         operator="in"
         k2="1"
         result="composite2"
         id="feComposite13" />
    </filter>
    <filter
       style="color-interpolation-filters:sRGB;"
       inkscape:label="Colorize"
       id="filter15"
       x="0"
       y="0"
       width="1"
       height="1">
      <feComposite
         in2="SourceGraphic"
         operator="arithmetic"
         k1="2.77556e-17"
         k2="1"
         result="composite1"
         id="feComposite14" />
      <feColorMatrix
         in="composite1"
         values="0"
         type="saturate"
         result="colormatrix1"
         id="feColorMatrix14" />
      <feFlood
         flood-opacity="1"
         flood-color="rgb(199,35,35)"
         result="flood1"
         id="feFlood14" />
      <feBlend
         in="flood1"
         in2="colormatrix1"
         mode="multiply"
         result="blend1"
         id="feBlend14" />
      <feBlend
         in2="blend1"
         mode="normal"
         result="blend2"
         id="feBlend15" />
      <feColorMatrix
         in="blend2"
         values="1"
         type="saturate"
         result="colormatrix2"
         id="feColorMatrix15" />
      <feComposite
         in="colormatrix2"
         in2="SourceGraphic"
         operator="in"
         k2="1"
         result="composite2"
         id="feComposite15" />
    </filter>
  </defs>
  <sodipodi:namedview
     id="namedview11"
     pagecolor="#ffffff"
     bordercolor="#000000"
     borderopacity="0.25"
     inkscape:showpageshadow="2"
     inkscape:pageopacity="0.0"
     inkscape:pagecheckerboard="0"
     inkscape:deskcolor="#d1d1d1"
     inkscape:zoom="22"
     inkscape:cx="24.022727"
     inkscape:cy="12.977273"
     inkscape:window-width="1200"
     inkscape:window-height="1186"
     inkscape:window-x="0"
     inkscape:window-y="25"
     inkscape:window-maximized="0"
     inkscape:current-layer="svg11" />
  <path
     d="M0 0V26H28V24H32V22H36V20H38V18H40V16H42V14H44V10H46V6H48V0H0Z"
     fill="#FFCD1F"
     id="path1"
     inkscape:label="path1"
     style="filter:url(#filter13)" />
  <path
     d="M0 26H28V24H0V26Z"
     fill="black"
     id="path2" />
  <path
     d="M32 22H36V20H32V22Z"
     fill="black"
     id="path3" />
  <path
     d="M28 24H32V22H28V24Z"
     fill="black"
     id="path4" />
  <path
     d="M40 16H42V14H40V16Z"
     fill="black"
     id="path5" />
  <path
     d="M36 20H38V18H36V20Z"
     fill="black"
     id="path6" />
  <path
     d="M38 18H40V16H38V18Z"
     fill="black"
     id="path7" />
  <path
     d="M42 14H44V10H42V14Z"
     fill="black"
     id="path8" />
  <path
     d="M44 10H46V6H44V10Z"
     fill="black"
     id="path9" />
  <path
     d="M46 6H48V0H46V6Z"
     fill="black"
     id="path10" />
  <path
     d="M44 0V4H42V8H40V10H38V12H36V14H32V16H28V18H0V24H28V22H32V20H36V18H38V16H40V14H42V10H44V6H46V0H44Z"
     fill="#FFA400"
     id="path11"
     style="filter:url(#filter15)" />
</svg>
